{"glyphs":{"0":{"ha":888,"x_min":136,"x_max":754,"o":"m 277 407 l 604 734 q 610 749 610 740 q 604 762 610 757 l 533 832 q 498 846 519 846 l 392 846 q 357 832 370 846 l 277 751 q 262 717 262 737 l 262 414 q 268 403 262 403 q 277 407 273 403 m 392 126 l 498 126 q 533 140 519 126 l 614 221 q 628 256 628 235 l 628 558 q 623 570 628 570 q 614 566 618 570 l 286 237 q 279 224 279 231 q 286 210 279 216 l 357 140 q 392 126 371 126 m 154 808 l 300 953 q 345 972 317 972 l 546 972 q 590 954 572 972 l 734 808 q 754 764 754 791 l 754 208 q 734 163 754 182 l 590 18 q 546 0 572 0 l 345 0 q 300 20 317 0 l 154 164 q 136 208 136 182 l 136 764 q 154 808 136 791 z "},"1":{"ha":888,"x_min":199,"x_max":692,"o":"m 382 189 l 382 736 q 376 747 382 747 q 368 743 372 747 l 307 681 q 261 663 287 663 q 217 681 235 663 q 199 725 199 699 q 216 771 199 753 l 400 954 q 446 972 418 972 q 490 954 471 972 q 509 909 509 935 l 509 189 q 527 145 509 163 q 571 126 545 126 l 629 126 q 673 107 655 126 q 692 62 692 88 q 673 18 692 37 q 629 0 655 0 l 261 0 q 217 18 235 0 q 199 62 199 37 q 217 107 199 88 q 261 126 235 126 l 319 126 q 363 145 345 126 q 382 189 382 163 z "},"2":{"ha":888,"x_min":136,"x_max":754,"o":"m 262 746 l 262 729 q 243 685 262 703 q 199 667 224 667 q 155 685 173 667 q 136 729 136 703 l 136 793 q 154 838 136 820 l 271 953 q 315 972 288 972 l 575 972 q 619 953 602 972 l 736 838 q 754 793 754 817 l 754 707 q 736 663 754 681 l 277 203 q 265 176 265 191 q 284 141 265 155 q 325 126 302 126 l 692 126 q 736 107 718 126 q 754 62 754 88 q 736 18 754 37 q 692 0 718 0 l 199 0 q 155 18 173 0 q 136 62 136 37 l 136 215 q 154 260 136 242 l 616 722 q 628 750 628 734 q 616 778 628 766 l 562 832 q 528 846 549 846 l 363 846 q 328 832 341 846 l 277 781 q 262 746 262 766 z "},"3":{"ha":888,"x_min":136,"x_max":754,"o":"m 262 746 l 262 729 q 243 685 262 703 q 199 667 224 667 q 155 685 173 667 q 136 729 136 703 l 136 793 q 154 838 136 820 l 271 953 q 315 972 288 972 l 575 972 q 619 953 602 972 l 736 838 q 754 793 754 819 l 754 603 q 736 558 754 576 l 708 530 q 690 486 690 513 q 708 440 690 458 l 736 412 q 754 368 754 394 l 754 179 q 736 135 754 153 l 619 20 q 575 0 602 0 l 315 0 q 271 20 288 0 l 154 135 q 136 179 136 153 l 136 243 q 155 287 136 269 q 199 304 173 304 q 244 287 225 304 q 262 243 262 269 l 262 227 q 277 192 262 206 l 328 140 q 363 126 342 126 l 528 126 q 562 140 548 126 l 614 192 q 628 227 628 206 l 628 321 q 614 355 628 341 l 562 408 q 528 422 548 422 l 370 422 q 324 441 342 422 q 306 486 306 460 q 324 531 306 513 q 370 549 342 549 l 528 549 q 562 562 549 549 l 614 615 q 628 650 628 629 l 628 746 q 614 781 628 766 l 562 832 q 528 846 549 846 l 363 846 q 328 832 341 846 l 277 781 q 262 746 262 766 z "},"4":{"ha":888,"x_min":136,"x_max":754,"o":"m 363 518 l 566 518 q 610 536 591 518 q 628 581 628 555 l 628 909 q 647 954 628 935 q 692 972 666 972 q 736 954 718 972 q 754 909 754 935 l 754 62 q 736 18 754 37 q 692 0 718 0 q 647 18 666 0 q 628 62 628 37 l 628 329 q 610 373 628 355 q 566 392 591 392 l 315 392 q 271 411 288 392 l 154 526 q 136 572 136 544 l 136 909 q 155 954 136 935 q 199 972 173 972 q 243 954 224 972 q 262 909 262 935 l 262 618 q 277 583 262 597 l 328 532 q 363 518 341 518 z "},"5":{"ha":888,"x_min":136,"x_max":754,"o":"m 262 243 l 262 227 q 277 192 262 206 l 328 140 q 363 126 342 126 l 528 126 q 562 140 548 126 l 614 192 q 628 227 628 206 l 628 354 q 614 389 628 374 l 562 440 q 528 454 548 454 l 315 454 q 271 473 288 454 l 154 589 q 136 635 136 606 l 136 909 q 155 954 136 935 q 199 972 173 972 l 692 972 q 736 954 718 972 q 754 909 754 935 q 736 864 754 882 q 692 846 718 846 l 325 846 q 281 827 299 846 q 262 783 262 809 l 262 681 q 277 646 262 660 l 328 595 q 363 581 342 581 l 574 581 q 619 561 602 581 l 736 446 q 754 400 754 427 l 754 179 q 736 135 754 153 l 619 20 q 574 0 602 0 l 315 0 q 271 20 288 0 l 154 135 q 136 179 136 153 l 136 243 q 155 287 136 269 q 199 306 173 306 q 243 287 224 306 q 262 243 262 269 z "},"6":{"ha":888,"x_min":136,"x_max":754,"o":"m 262 358 l 262 227 q 277 192 262 206 l 328 140 q 363 126 342 126 l 528 126 q 562 140 548 126 l 614 192 q 628 227 628 206 l 628 321 q 614 355 628 341 l 562 408 q 528 422 548 422 l 325 422 q 281 404 299 422 q 262 358 262 385 m 628 729 l 628 746 q 614 781 628 766 l 562 832 q 528 846 549 846 l 363 846 q 328 832 341 846 l 277 781 q 262 746 262 766 l 262 612 q 281 568 262 587 q 325 549 299 549 l 574 549 q 619 530 601 549 l 736 412 q 754 368 754 394 l 754 179 q 736 135 754 153 l 619 20 q 574 0 602 0 l 315 0 q 271 20 288 0 l 154 135 q 136 179 136 153 l 136 793 q 154 838 136 820 l 271 953 q 315 972 288 972 l 574 972 q 619 953 602 972 l 736 838 q 754 793 754 819 l 754 729 q 736 685 754 703 q 692 667 718 667 q 647 685 666 667 q 628 729 628 703 z "},"7":{"ha":888,"x_min":136,"x_max":754,"o":"m 509 439 l 509 62 q 490 18 509 37 q 446 0 471 0 q 400 18 418 0 q 382 62 382 36 l 382 486 q 400 530 382 512 l 614 745 q 628 779 628 759 l 628 783 q 610 827 628 809 q 566 846 591 846 l 199 846 q 154 864 172 846 q 136 909 136 882 q 155 954 136 935 q 199 972 173 972 l 692 972 q 736 954 718 972 q 754 909 754 935 l 754 732 q 736 688 754 706 l 522 473 q 509 439 509 460 z "},"8":{"ha":888,"x_min":136,"x_max":754,"o":"m 614 355 l 562 408 q 528 422 548 422 l 363 422 q 328 408 342 422 l 277 355 q 262 321 262 341 l 262 227 q 277 192 262 206 l 328 140 q 363 126 342 126 l 528 126 q 562 140 548 126 l 614 192 q 628 227 628 206 l 628 321 q 614 355 628 341 m 614 781 l 562 832 q 528 846 549 846 l 363 846 q 328 832 341 846 l 277 781 q 262 746 262 766 l 262 650 q 277 615 262 629 l 328 562 q 363 549 341 549 l 528 549 q 562 562 549 549 l 614 615 q 628 650 628 629 l 628 746 q 614 781 628 766 m 575 0 l 315 0 q 271 20 288 0 l 154 135 q 136 179 136 153 l 136 368 q 154 412 136 395 l 182 440 q 200 486 200 458 q 182 530 200 512 l 154 558 q 136 603 136 576 l 136 793 q 154 838 136 820 l 271 953 q 315 972 288 972 l 575 972 q 619 953 602 972 l 736 838 q 754 793 754 819 l 754 603 q 736 558 754 576 l 708 530 q 690 486 690 513 q 708 440 690 458 l 736 412 q 754 368 754 394 l 754 179 q 736 135 754 153 l 619 20 q 575 0 602 0 z "},"9":{"ha":888,"x_min":136,"x_max":754,"o":"m 628 612 l 628 746 q 614 781 628 766 l 562 832 q 528 846 549 846 l 363 846 q 328 832 341 846 l 277 781 q 262 746 262 766 l 262 650 q 277 615 262 629 l 328 562 q 363 549 341 549 l 566 549 q 610 568 591 549 q 628 612 628 587 m 262 243 l 262 227 q 277 192 262 206 l 328 140 q 363 126 342 126 l 528 126 q 562 140 548 126 l 614 192 q 628 227 628 206 l 628 358 q 610 404 628 385 q 566 422 591 422 l 315 422 q 271 440 288 422 l 154 558 q 136 603 136 576 l 136 793 q 154 838 136 820 l 271 953 q 315 972 288 972 l 575 972 q 619 953 602 972 l 736 838 q 754 793 754 819 l 754 179 q 736 135 754 153 l 619 20 q 575 0 602 0 l 315 0 q 271 20 288 0 l 154 135 q 136 179 136 153 l 136 243 q 155 287 136 269 q 199 304 173 304 q 244 287 225 304 q 262 243 262 269 z "},"\r":{"ha":347,"x_min":0,"x_max":0,"o":""},"\u0000":{"ha":0,"x_min":0,"x_max":0,"o":""}," ":{"ha":888,"x_min":0,"x_max":0,"o":""},"!":{"ha":888,"x_min":354,"x_max":534,"o":"m 472 0 l 416 0 q 372 18 391 0 q 354 62 354 37 l 354 118 q 372 162 354 144 q 416 180 391 180 l 472 180 q 516 162 498 180 q 534 118 534 144 l 534 62 q 516 18 534 37 q 472 0 498 0 m 509 909 l 509 340 q 490 296 509 315 q 444 278 471 278 q 400 296 418 278 q 382 340 382 315 l 382 909 q 400 954 382 935 q 444 972 418 972 q 489 954 470 972 q 509 909 509 935 z "},"\"":{"ha":888,"x_min":256,"x_max":635,"o":"m 382 909 l 382 717 q 363 673 382 691 q 318 654 344 654 q 274 673 292 654 q 256 717 256 691 l 256 909 q 274 954 256 935 q 318 972 292 972 q 363 954 344 972 q 382 909 382 935 m 635 909 l 635 717 q 616 673 635 691 q 571 654 597 654 q 527 673 545 654 q 509 717 509 691 l 509 909 q 527 954 509 935 q 571 972 545 972 q 616 954 597 972 q 635 909 635 935 z "},"#":{"ha":888,"x_min":136,"x_max":754,"o":"m 399 406 l 472 406 q 496 427 494 406 l 510 547 l 510 550 q 492 568 510 568 l 418 568 q 395 547 397 568 l 380 427 l 380 424 q 399 406 380 406 m 210 68 l 235 258 l 235 261 q 216 279 235 279 l 199 279 q 155 298 173 279 q 136 342 136 316 q 154 388 136 370 q 199 406 172 406 l 231 406 q 254 427 252 406 l 267 547 l 267 550 q 249 568 267 568 l 199 568 q 155 587 173 568 q 136 632 136 606 q 155 676 136 658 q 199 694 173 694 l 264 694 q 288 715 286 694 l 309 916 q 330 955 311 939 q 372 971 349 971 l 379 971 q 418 952 402 971 q 433 908 433 933 l 433 901 l 414 715 l 414 713 q 432 694 414 694 l 505 694 q 529 715 527 694 l 550 916 q 571 955 553 939 q 614 971 590 971 l 621 971 q 660 950 644 968 q 676 908 676 932 l 676 901 l 656 715 l 656 713 q 673 694 656 694 l 692 694 q 736 676 718 694 q 754 632 754 658 q 736 587 754 606 q 692 568 718 568 l 660 568 q 636 547 638 568 l 624 427 l 624 424 q 642 406 624 406 l 692 406 q 736 388 718 406 q 754 342 754 370 q 736 298 754 316 q 692 279 718 279 l 627 279 q 603 258 605 279 l 578 54 q 556 15 575 31 q 514 -1 538 -1 l 507 -1 q 469 18 484 -1 q 453 61 453 37 l 453 68 l 476 258 l 476 261 q 458 279 476 279 l 385 279 q 361 258 363 279 l 336 54 q 315 15 334 31 q 272 -1 296 -1 l 265 -1 q 226 18 242 -1 q 210 61 210 37 l 210 68 z "},"$":{"ha":888,"x_min":136,"x_max":754,"o":"m 509 404 l 509 146 q 528 126 509 126 q 562 140 548 126 l 614 192 q 628 227 628 206 l 628 322 q 614 357 628 342 l 562 410 q 529 424 548 424 q 509 404 509 424 m 382 570 l 382 827 q 363 846 382 846 q 328 832 341 846 l 277 781 q 262 746 262 766 l 262 650 q 277 615 262 629 l 328 564 q 361 550 341 550 q 382 570 382 550 m 315 972 l 361 972 q 382 993 382 972 l 382 1013 q 400 1057 382 1038 q 444 1075 418 1075 q 490 1057 472 1075 q 509 1013 509 1039 l 509 993 q 529 972 509 972 l 575 972 q 619 953 602 972 l 736 838 q 754 793 754 819 l 754 729 q 736 685 754 703 q 692 667 718 667 q 647 685 666 667 q 628 729 628 703 l 628 746 q 614 781 628 766 l 562 832 q 529 846 549 846 q 509 827 509 846 l 509 571 q 529 550 509 550 l 575 550 q 619 530 600 550 l 736 414 q 754 370 754 395 l 754 180 q 736 135 754 153 l 619 20 q 575 0 602 0 l 529 0 q 509 -21 509 0 l 509 -40 q 490 -85 509 -66 q 444 -103 472 -103 q 400 -84 418 -103 q 382 -40 382 -66 l 382 -21 q 361 0 382 0 l 315 0 q 271 20 288 0 l 154 135 q 136 180 136 153 l 136 243 q 155 287 136 269 q 199 306 173 306 q 243 287 224 306 q 262 243 262 269 l 262 227 q 277 192 262 206 l 328 140 q 361 126 342 126 q 382 146 382 126 l 382 403 q 361 424 382 424 l 315 424 q 271 441 288 424 l 154 558 q 136 603 136 576 l 136 793 q 154 838 136 820 l 271 953 q 315 972 288 972 z "},"%":{"ha":888,"x_min":136,"x_max":754,"o":"m 628 779 l 628 909 q 647 954 628 935 q 692 972 666 972 q 736 954 718 972 q 754 909 754 935 l 754 732 q 734 688 754 707 l 277 228 q 262 193 262 214 l 262 62 q 243 18 262 37 q 199 0 224 0 q 155 18 173 0 q 136 62 136 37 l 136 240 q 155 285 136 266 l 614 745 q 628 779 628 759 m 692 0 l 608 0 q 564 18 583 0 q 546 62 546 37 l 546 146 q 564 190 546 172 q 608 208 583 208 l 692 208 q 736 190 718 208 q 754 146 754 172 l 754 62 q 736 18 754 37 q 692 0 718 0 m 282 764 l 199 764 q 155 782 173 764 q 136 827 136 801 l 136 909 q 155 954 136 935 q 199 972 173 972 l 282 972 q 326 954 308 972 q 345 909 345 935 l 345 827 q 326 782 345 801 q 282 764 308 764 z "},"&":{"ha":888,"x_min":136,"x_max":808,"o":"m 566 227 l 566 401 q 545 422 566 422 l 363 422 q 328 408 342 422 l 277 355 q 262 321 262 341 l 262 227 q 277 192 262 206 l 328 140 q 363 126 342 126 l 464 126 q 498 140 484 126 l 551 192 q 566 227 566 206 m 692 401 l 692 180 q 672 135 692 155 l 557 20 q 511 0 537 0 l 315 0 q 271 20 288 0 l 154 135 q 136 180 136 153 l 136 368 q 154 412 136 395 l 182 440 q 200 486 200 458 q 182 530 200 512 l 154 558 q 136 603 136 576 l 136 793 q 154 838 136 820 l 271 953 q 315 972 288 972 l 444 972 q 490 954 472 972 q 509 909 509 936 q 490 864 509 883 q 444 846 472 846 l 363 846 q 328 832 341 846 l 277 781 q 262 746 262 766 l 262 650 q 277 615 262 629 l 328 562 q 363 549 341 549 l 545 549 q 566 570 566 549 l 566 603 q 584 648 566 629 q 628 667 602 667 q 673 648 654 667 q 692 603 692 629 l 692 570 q 713 549 692 549 l 745 549 q 789 530 770 549 q 808 486 808 512 q 789 441 808 460 q 745 422 770 422 l 713 422 q 692 401 692 422 z "},"'":{"ha":888,"x_min":382,"x_max":509,"o":"m 509 909 l 509 717 q 490 673 509 691 q 444 654 471 654 q 400 673 418 654 q 382 717 382 691 l 382 909 q 400 954 382 935 q 444 972 418 972 q 489 954 470 972 q 509 909 509 935 z "},"(":{"ha":888,"x_min":278,"x_max":611,"o":"m 504 62 l 549 62 q 593 44 574 62 q 611 0 611 26 q 593 -45 611 -26 q 549 -64 574 -64 l 457 -64 q 412 -45 429 -64 l 296 71 q 278 115 278 88 l 278 856 q 296 900 278 882 l 412 1015 q 457 1035 430 1035 l 549 1035 q 593 1017 574 1035 q 611 972 611 998 q 593 927 611 946 q 549 908 574 908 l 504 908 q 469 895 483 908 l 418 843 q 404 808 404 829 l 404 163 q 418 127 404 141 l 469 77 q 504 62 484 62 z "},")":{"ha":888,"x_min":278,"x_max":611,"o":"m 340 62 l 385 62 q 419 77 405 62 l 471 127 q 485 163 485 142 l 485 808 q 471 843 485 829 l 419 895 q 385 908 406 908 l 340 908 q 296 927 315 908 q 278 972 278 946 q 296 1017 278 998 q 340 1035 315 1035 l 432 1035 q 476 1015 458 1035 l 593 900 q 611 856 611 882 l 611 115 q 593 71 611 89 l 476 -45 q 432 -64 459 -64 l 340 -64 q 296 -45 315 -64 q 278 0 278 -26 q 296 44 278 26 q 340 62 315 62 z "},"*":{"ha":888,"x_min":258,"x_max":631,"o":"m 328 885 l 379 856 q 382 854 380 855 q 386 853 385 854 q 387 852 387 852 q 397 867 397 852 l 397 925 q 411 959 397 945 q 444 972 425 972 q 478 959 464 972 q 492 925 492 945 l 492 867 q 501 852 492 852 q 503 853 502 852 q 507 854 505 854 q 510 856 509 855 l 561 885 q 585 890 570 890 q 617 877 604 890 q 631 844 631 864 q 608 804 631 816 l 557 774 q 549 764 549 770 q 557 754 549 758 l 608 724 q 631 684 631 712 q 618 650 631 663 q 585 637 605 637 q 561 643 570 637 l 510 672 q 501 675 502 675 q 492 661 492 675 l 492 603 q 478 569 492 583 q 444 555 464 555 q 411 569 425 555 q 397 603 397 583 l 397 661 q 387 675 397 675 l 379 672 l 328 643 q 304 637 319 637 q 272 650 285 637 q 258 682 258 663 q 282 724 258 709 l 334 754 q 342 764 342 758 q 334 774 342 770 l 282 804 q 258 846 258 819 q 272 878 258 865 q 304 890 285 890 q 328 885 319 890 z "},"+":{"ha":888,"x_min":195,"x_max":694,"o":"m 571 547 l 632 547 q 676 529 658 547 q 694 485 694 511 q 676 439 694 457 q 632 421 659 421 l 571 421 q 527 402 545 421 q 509 358 509 384 l 509 296 q 490 251 509 269 q 444 233 472 233 q 400 252 418 233 q 382 296 382 270 l 382 358 q 363 402 382 384 q 319 421 345 421 l 257 421 q 213 439 231 421 q 195 485 195 457 q 213 529 195 511 q 257 547 231 547 l 319 547 q 363 566 345 547 q 382 610 382 584 l 382 672 q 400 716 382 698 q 444 734 418 734 q 490 716 472 734 q 509 672 509 699 l 509 610 q 527 566 509 584 q 571 547 545 547 z "},",":{"ha":888,"x_min":354,"x_max":534,"o":"m 416 180 l 471 180 q 515 161 496 180 q 534 117 534 142 l 534 -18 q 515 -62 534 -43 l 457 -121 q 419 -136 441 -136 q 383 -121 399 -136 q 368 -85 368 -106 q 383 -47 368 -66 l 431 0 l 416 0 q 372 18 391 0 q 354 62 354 37 l 354 117 q 372 161 354 142 q 416 180 391 180 z "},"-":{"ha":888,"x_min":195,"x_max":694,"o":"m 257 550 l 632 550 q 676 532 658 550 q 694 488 694 513 q 676 442 694 460 q 632 424 659 424 l 257 424 q 213 442 231 424 q 195 488 195 460 q 213 532 195 513 q 257 550 231 550 z "},".":{"ha":888,"x_min":347,"x_max":542,"o":"m 479 0 l 410 0 q 366 18 384 0 q 347 62 347 37 l 347 132 q 366 176 347 158 q 410 195 384 195 l 479 195 q 524 176 505 195 q 542 132 542 158 l 542 62 q 524 18 542 37 q 479 0 505 0 z "},"/":{"ha":888,"x_min":136,"x_max":754,"o":"m 628 779 l 628 909 q 647 954 628 935 q 692 972 666 972 q 736 954 718 972 q 754 909 754 935 l 754 732 q 734 688 754 707 l 277 228 q 262 193 262 214 l 262 62 q 243 18 262 37 q 199 0 224 0 q 155 18 173 0 q 136 62 136 37 l 136 240 q 155 285 136 266 l 614 745 q 628 779 628 759 z "},":":{"ha":888,"x_min":347,"x_max":542,"o":"m 479 0 l 410 0 q 366 18 384 0 q 347 62 347 37 l 347 132 q 366 176 347 158 q 410 195 384 195 l 479 195 q 524 176 505 195 q 542 132 542 158 l 542 62 q 524 18 542 37 q 479 0 505 0 m 479 472 l 410 472 q 366 490 384 472 q 347 534 347 509 l 347 604 q 366 648 347 630 q 410 667 384 667 l 479 667 q 524 648 505 667 q 542 604 542 630 l 542 534 q 524 490 542 509 q 479 472 505 472 z "},";":{"ha":888,"x_min":347,"x_max":542,"o":"m 416 180 l 471 180 q 515 161 496 180 q 534 117 534 142 l 534 -18 q 515 -62 534 -43 l 457 -121 q 419 -136 441 -136 q 383 -121 399 -136 q 368 -85 368 -106 q 383 -47 368 -62 l 431 0 l 416 0 q 372 18 391 0 q 354 62 354 37 l 354 117 q 372 161 354 142 q 416 180 391 180 m 479 472 l 410 472 q 366 490 384 472 q 347 534 347 509 l 347 604 q 366 648 347 630 q 410 667 384 667 l 479 667 q 524 648 505 667 q 542 604 542 630 l 542 534 q 524 490 542 509 q 479 472 505 472 z "},"<":{"ha":888,"x_min":225,"x_max":665,"o":"m 243 530 l 555 843 q 599 861 574 861 q 645 842 625 861 q 665 798 665 823 q 647 754 665 772 l 422 529 q 401 485 401 508 q 424 439 401 461 l 644 218 q 663 174 663 200 q 645 128 663 146 q 600 110 628 110 q 554 127 572 110 l 243 439 q 225 485 225 456 q 243 530 225 513 z "},"=":{"ha":888,"x_min":195,"x_max":694,"o":"m 257 694 l 632 694 q 676 676 658 694 q 694 632 694 658 q 676 586 694 604 q 632 568 659 568 l 257 568 q 213 586 231 568 q 195 632 195 604 q 213 676 195 658 q 257 694 231 694 m 257 406 l 632 406 q 676 387 658 406 q 694 343 694 369 q 676 297 694 315 q 632 279 659 279 l 257 279 q 213 297 231 279 q 195 343 195 315 q 213 387 195 369 q 257 406 231 406 z "},">":{"ha":888,"x_min":225,"x_max":665,"o":"m 335 843 l 647 530 q 665 485 665 512 q 647 439 665 457 l 336 127 q 290 110 319 110 q 245 128 262 110 q 228 174 228 146 q 245 218 228 201 l 467 439 q 489 485 489 461 q 468 529 489 508 l 243 754 q 225 798 225 772 q 245 842 225 823 q 292 861 265 861 q 335 843 317 861 z "},"?":{"ha":888,"x_min":136,"x_max":754,"o":"m 754 793 l 754 703 q 736 659 754 677 l 522 444 q 509 410 509 431 l 509 340 q 490 296 509 315 q 446 278 471 278 q 400 296 418 278 q 382 340 382 314 l 382 457 q 400 501 382 483 l 614 715 q 628 750 628 730 q 616 778 628 766 l 562 832 q 528 846 549 846 l 363 846 q 328 832 341 846 l 277 781 q 262 746 262 766 l 262 729 q 243 685 262 703 q 199 667 224 667 q 155 685 173 667 q 136 729 136 703 l 136 793 q 154 838 136 820 l 271 953 q 315 972 288 972 l 575 972 q 619 953 602 972 l 736 838 q 754 793 754 817 m 472 0 l 416 0 q 372 18 391 0 q 354 62 354 37 l 354 118 q 372 162 354 144 q 416 180 391 180 l 472 180 q 516 162 498 180 q 534 118 534 144 l 534 62 q 516 18 534 37 q 472 0 498 0 z "},"@":{"ha":888,"x_min":136,"x_max":754,"o":"m 522 410 l 546 386 q 581 372 559 372 l 607 372 q 628 393 628 372 l 628 746 q 614 781 628 766 l 562 832 q 528 846 549 846 l 363 846 q 328 832 341 846 l 277 781 q 262 746 262 766 l 262 227 q 277 192 262 206 l 328 140 q 363 126 342 126 l 566 126 q 610 107 591 126 q 628 62 628 88 q 610 18 628 37 q 566 0 591 0 l 315 0 q 271 20 288 0 l 154 135 q 136 180 136 153 l 136 793 q 154 838 136 820 l 271 953 q 315 972 288 972 l 574 972 q 619 953 602 972 l 736 838 q 754 793 754 819 l 754 310 q 736 264 754 283 q 692 245 718 245 l 534 245 q 489 265 509 245 l 400 354 q 382 399 382 372 l 382 632 q 400 676 382 658 q 444 694 418 694 q 490 676 472 694 q 509 632 509 659 l 509 444 q 522 410 509 423 z "},"A":{"ha":888,"x_min":136,"x_max":754,"o":"m 754 764 l 754 62 q 736 18 754 37 q 692 0 718 0 q 647 18 666 0 q 628 62 628 37 l 628 329 q 610 373 628 355 q 566 392 591 392 l 325 392 q 281 373 299 392 q 262 329 262 355 l 262 62 q 243 18 262 37 q 199 0 224 0 q 155 18 173 0 q 136 62 136 37 l 136 764 q 154 808 136 791 l 300 953 q 345 972 317 972 l 546 972 q 590 954 572 972 l 734 808 q 754 764 754 791 m 628 581 l 628 717 q 614 751 628 737 l 533 832 q 498 846 519 846 l 392 846 q 357 832 370 846 l 277 751 q 262 717 262 737 l 262 581 q 281 536 262 555 q 325 518 299 518 l 566 518 q 610 536 591 518 q 628 581 628 555 z "},"B":{"ha":888,"x_min":136,"x_max":754,"o":"m 562 562 l 614 615 q 628 650 628 629 l 628 746 q 614 781 628 766 l 562 832 q 528 846 549 846 l 325 846 q 281 827 299 846 q 262 783 262 809 l 262 612 q 281 568 262 587 q 325 549 299 549 l 528 549 q 562 562 549 549 m 562 140 l 614 192 q 628 227 628 206 l 628 321 q 614 355 628 341 l 562 408 q 528 422 548 422 l 325 422 q 281 404 299 422 q 262 358 262 385 l 262 189 q 281 145 262 163 q 325 126 299 126 l 528 126 q 562 140 548 126 m 736 558 l 708 530 q 690 486 690 513 q 708 440 690 458 l 736 412 q 754 368 754 394 l 754 180 q 736 135 754 153 l 619 20 q 574 0 602 0 l 199 0 q 155 18 173 0 q 136 62 136 37 l 136 909 q 155 954 136 935 q 199 972 173 972 l 574 972 q 619 953 602 972 l 736 838 q 754 793 754 819 l 754 603 q 736 558 754 576 z "},"C":{"ha":888,"x_min":136,"x_max":754,"o":"m 262 717 l 262 256 q 277 221 262 235 l 357 140 q 392 126 371 126 l 498 126 q 533 140 519 126 l 614 221 q 628 256 628 235 l 628 297 q 647 342 628 323 q 692 361 666 361 q 736 342 718 361 q 754 297 754 323 l 754 208 q 734 164 754 182 l 590 18 q 546 0 572 0 l 345 0 q 298 20 318 0 l 154 164 q 136 208 136 182 l 136 764 q 154 808 136 791 l 298 953 q 345 972 318 972 l 546 972 q 590 954 572 972 l 734 808 q 754 764 754 791 l 754 675 q 736 630 754 649 q 692 611 718 611 q 647 630 666 611 q 628 675 628 649 l 628 717 q 614 751 628 737 l 533 832 q 498 846 519 846 l 392 846 q 357 832 370 846 l 277 751 q 262 717 262 737 z "},"D":{"ha":888,"x_min":136,"x_max":754,"o":"m 533 140 l 614 221 q 628 256 628 235 l 628 717 q 614 751 628 737 l 533 832 q 498 846 519 846 l 325 846 q 281 827 299 846 q 262 783 262 809 l 262 189 q 281 145 262 163 q 325 126 299 126 l 498 126 q 533 140 519 126 m 590 954 l 734 808 q 754 764 754 791 l 754 208 q 734 164 754 182 l 590 18 q 546 0 572 0 l 199 0 q 155 18 173 0 q 136 62 136 37 l 136 909 q 155 954 136 935 q 199 972 173 972 l 546 972 q 590 954 572 972 z "},"E":{"ha":888,"x_min":136,"x_max":754,"o":"m 136 62 l 136 909 q 155 954 136 935 q 199 972 173 972 l 692 972 q 736 954 718 972 q 754 909 754 935 q 736 865 754 884 q 692 846 718 846 l 325 846 q 281 827 299 846 q 262 783 262 809 l 262 612 q 281 568 262 587 q 325 549 299 549 l 597 549 q 642 530 623 549 q 661 486 661 512 q 642 441 661 460 q 597 422 623 422 l 325 422 q 281 404 299 422 q 262 358 262 385 l 262 189 q 281 145 262 163 q 325 126 299 126 l 692 126 q 736 107 718 126 q 754 62 754 88 q 736 18 754 37 q 692 0 718 0 l 199 0 q 155 18 173 0 q 136 62 136 37 z "},"F":{"ha":888,"x_min":136,"x_max":754,"o":"m 262 358 l 262 61 q 243 17 262 35 q 199 -1 224 -1 q 155 17 173 -1 q 136 61 136 35 l 136 909 q 155 954 136 935 q 199 972 173 972 l 692 972 q 736 954 718 972 q 754 909 754 935 q 736 865 754 884 q 692 846 718 846 l 325 846 q 281 827 299 846 q 262 783 262 809 l 262 612 q 281 568 262 587 q 325 549 299 549 l 597 549 q 642 530 623 549 q 660 486 660 512 q 642 441 660 460 q 597 422 623 422 l 325 422 q 281 404 299 422 q 262 358 262 385 z "},"G":{"ha":888,"x_min":136,"x_max":754,"o":"m 628 729 l 628 746 q 614 781 628 766 l 562 832 q 528 846 549 846 l 363 846 q 328 832 341 846 l 277 781 q 262 746 262 766 l 262 227 q 277 192 262 206 l 328 140 q 363 126 342 126 l 528 126 q 562 140 548 126 l 614 192 q 628 227 628 206 l 628 359 q 610 404 628 385 q 566 422 591 422 l 482 422 q 437 441 456 422 q 418 486 418 460 q 437 530 418 512 q 482 549 456 549 l 692 549 q 736 530 718 549 q 754 486 754 512 l 754 180 q 736 135 754 153 l 619 20 q 574 0 602 0 l 315 0 q 271 20 288 0 l 154 135 q 136 180 136 153 l 136 793 q 154 838 136 820 l 271 953 q 315 972 288 972 l 574 972 q 619 953 602 972 l 736 838 q 754 793 754 819 l 754 729 q 736 685 754 703 q 692 667 718 667 q 647 685 666 667 q 628 729 628 703 z "},"H":{"ha":888,"x_min":136,"x_max":754,"o":"m 754 909 l 754 62 q 736 18 754 37 q 692 0 718 0 q 646 18 664 0 q 628 62 628 36 l 628 359 q 610 405 628 386 q 566 424 591 424 l 325 424 q 281 405 299 424 q 262 359 262 386 l 262 62 q 243 18 262 37 q 199 0 224 0 q 155 18 173 0 q 136 62 136 37 l 136 909 q 155 954 136 935 q 199 972 173 972 q 243 954 224 972 q 262 909 262 935 l 262 612 q 281 568 262 587 q 325 549 299 549 l 566 549 q 610 568 591 549 q 628 612 628 587 l 628 909 q 646 954 628 936 q 692 972 664 972 q 736 954 718 972 q 754 909 754 935 z "},"I":{"ha":888,"x_min":199,"x_max":692,"o":"m 629 0 l 261 0 q 217 18 235 0 q 199 62 199 37 q 217 107 199 88 q 261 126 235 126 l 319 126 q 363 145 345 126 q 382 189 382 163 l 382 783 q 363 827 382 809 q 319 846 345 846 l 261 846 q 217 865 235 846 q 199 909 199 884 q 217 954 199 935 q 261 972 235 972 l 629 972 q 673 954 655 972 q 692 909 692 935 q 673 865 692 884 q 629 846 655 846 l 571 846 q 527 827 545 846 q 509 783 509 809 l 509 189 q 527 145 509 163 q 571 126 545 126 l 629 126 q 673 107 655 126 q 692 62 692 88 q 673 18 692 37 q 629 0 655 0 z "},"J":{"ha":888,"x_min":136,"x_max":754,"o":"m 628 227 l 628 783 q 610 827 628 809 q 566 846 591 846 l 444 846 q 400 865 418 846 q 382 909 382 884 q 400 954 382 935 q 444 972 418 972 l 692 972 q 736 954 718 972 q 754 909 754 935 l 754 180 q 736 135 754 153 l 619 20 q 575 0 602 0 l 315 0 q 271 20 288 0 l 154 135 q 136 180 136 153 l 136 297 q 155 342 136 323 q 199 361 173 361 q 243 342 224 361 q 262 297 262 323 l 262 227 q 277 192 262 206 l 328 140 q 363 126 342 126 l 528 126 q 562 140 548 126 l 614 192 q 628 227 628 206 z "},"K":{"ha":888,"x_min":136,"x_max":754,"o":"m 390 424 l 325 424 q 281 405 299 424 q 262 359 262 386 l 262 62 q 243 18 262 37 q 199 0 224 0 q 155 18 173 0 q 136 62 136 37 l 136 909 q 155 954 136 935 q 199 972 173 972 q 243 954 224 972 q 262 909 262 935 l 262 612 q 281 568 262 587 q 325 549 299 549 l 390 549 q 425 562 412 549 l 614 751 q 628 786 628 766 l 628 909 q 647 954 628 935 q 692 972 666 972 q 736 954 718 972 q 754 909 754 935 l 754 739 q 736 694 754 713 l 571 530 q 553 486 553 510 q 571 441 553 462 l 736 278 q 754 233 754 260 l 754 62 q 736 18 754 37 q 692 0 718 0 q 647 18 666 0 q 628 62 628 37 l 628 186 q 614 221 628 207 l 425 410 q 390 424 411 424 z "},"L":{"ha":888,"x_min":136,"x_max":754,"o":"m 262 909 l 262 189 q 281 145 262 163 q 325 126 299 126 l 692 126 q 736 107 718 126 q 754 62 754 88 q 736 18 754 37 q 692 0 718 0 l 199 0 q 155 18 173 0 q 136 62 136 37 l 136 909 q 155 954 136 935 q 199 972 173 972 q 243 954 224 972 q 262 909 262 935 z "},"M":{"ha":888,"x_min":136,"x_max":754,"o":"m 628 62 l 628 736 q 623 747 628 747 q 614 743 618 747 l 522 652 q 509 616 509 638 l 509 486 q 490 442 509 460 q 446 424 471 424 q 400 442 418 424 q 382 486 382 460 l 382 616 q 368 652 382 638 l 277 743 q 268 747 273 747 q 262 736 262 747 l 262 62 q 243 18 262 37 q 199 0 224 0 q 155 18 173 0 q 136 62 136 37 l 136 909 q 155 954 136 935 q 199 972 173 972 q 244 954 226 972 l 400 798 q 446 779 420 779 q 490 798 472 779 l 646 954 q 692 972 664 972 q 736 954 718 972 q 754 909 754 935 l 754 62 q 736 18 754 37 q 692 0 718 0 q 647 18 666 0 q 628 62 628 37 z "},"N":{"ha":888,"x_min":136,"x_max":754,"o":"m 254 940 l 618 315 q 625 309 623 309 q 628 318 628 309 l 628 909 q 647 954 628 935 q 692 972 666 972 q 736 954 718 972 q 754 909 754 935 l 754 62 q 736 18 754 37 q 692 0 718 0 q 636 32 654 0 l 272 659 q 265 665 270 665 q 262 656 262 665 l 262 62 q 243 18 262 37 q 199 0 224 0 q 155 18 173 0 q 136 62 136 37 l 136 909 q 155 954 136 935 q 199 972 173 972 q 254 940 235 972 z "},"O":{"ha":888,"x_min":136,"x_max":754,"o":"m 619 953 l 736 838 q 754 793 754 819 l 754 179 q 736 135 754 153 l 619 20 q 574 0 602 0 l 315 0 q 271 20 288 0 l 154 135 q 136 179 136 153 l 136 793 q 154 838 136 820 l 271 953 q 315 972 288 972 l 574 972 q 619 953 602 972 m 562 140 l 614 192 q 628 227 628 206 l 628 746 q 614 781 628 766 l 562 832 q 528 846 549 846 l 363 846 q 328 832 341 846 l 277 781 q 262 746 262 766 l 262 227 q 277 192 262 206 l 328 140 q 363 126 342 126 l 528 126 q 562 140 548 126 z "},"P":{"ha":888,"x_min":136,"x_max":754,"o":"m 262 329 l 262 62 q 243 18 262 37 q 199 0 224 0 q 155 18 173 0 q 136 62 136 37 l 136 909 q 155 954 136 935 q 199 972 173 972 l 574 972 q 619 953 602 972 l 736 838 q 754 793 754 819 l 754 572 q 736 526 754 545 l 619 411 q 574 392 602 392 l 325 392 q 281 373 299 392 q 262 329 262 355 m 325 518 l 528 518 q 562 532 549 518 l 614 583 q 628 618 628 597 l 628 746 q 614 781 628 766 l 562 832 q 528 846 549 846 l 325 846 q 281 827 299 846 q 262 783 262 809 l 262 581 q 281 536 262 555 q 325 518 299 518 z "},"Q":{"ha":888,"x_min":136,"x_max":754,"o":"m 562 140 l 614 192 q 628 227 628 206 l 628 746 q 614 781 628 766 l 562 832 q 528 846 549 846 l 363 846 q 328 832 341 846 l 277 781 q 262 746 262 766 l 262 227 q 277 192 262 206 l 328 140 q 363 126 342 126 l 528 126 q 562 140 548 126 m 528 0 l 317 0 q 271 20 288 0 l 154 135 q 136 180 136 153 l 136 793 q 154 838 136 820 l 271 953 q 317 972 288 972 l 575 972 q 619 953 602 972 l 736 838 q 754 793 754 819 l 754 180 q 736 135 754 153 l 708 109 q 690 62 690 91 q 708 18 690 36 l 736 -8 q 754 -54 754 -26 q 736 -98 754 -80 q 692 -117 718 -117 q 646 -98 664 -117 l 562 -14 q 528 0 549 0 z "},"R":{"ha":888,"x_min":136,"x_max":754,"o":"m 498 392 l 325 392 q 281 373 299 392 q 262 329 262 355 l 262 62 q 243 18 262 37 q 199 0 224 0 q 155 18 173 0 q 136 62 136 37 l 136 909 q 155 954 136 935 q 199 972 173 972 l 546 972 q 591 953 572 972 l 736 808 q 754 764 754 790 l 754 600 q 734 555 754 575 l 679 500 q 661 456 661 482 q 679 410 661 429 l 736 354 q 754 310 754 336 l 754 62 q 736 18 754 37 q 692 0 718 0 q 647 18 666 0 q 628 62 628 37 l 628 262 q 614 297 628 283 l 533 378 q 498 392 519 392 m 533 532 l 614 612 q 628 647 628 627 l 628 717 q 614 751 628 737 l 533 832 q 498 846 519 846 l 325 846 q 281 827 299 846 q 262 783 262 809 l 262 581 q 281 536 262 555 q 325 518 299 518 l 498 518 q 533 532 519 518 z "},"S":{"ha":888,"x_min":136,"x_max":754,"o":"m 628 729 l 628 746 q 614 781 628 766 l 562 832 q 528 846 549 846 l 363 846 q 328 832 341 846 l 277 781 q 262 746 262 766 l 262 650 q 277 615 262 629 l 328 562 q 363 549 341 549 l 575 549 q 619 530 601 549 l 736 412 q 754 368 754 394 l 754 179 q 736 135 754 153 l 619 20 q 575 0 602 0 l 315 0 q 271 20 288 0 l 154 135 q 136 179 136 153 l 136 243 q 155 287 136 269 q 199 304 173 304 q 244 287 225 304 q 262 243 262 269 l 262 227 q 277 192 262 206 l 328 140 q 363 126 342 126 l 528 126 q 562 140 548 126 l 614 192 q 628 227 628 206 l 628 321 q 614 355 628 341 l 562 408 q 528 422 548 422 l 315 422 q 271 440 288 422 l 154 558 q 136 603 136 576 l 136 793 q 154 838 136 820 l 271 953 q 315 972 288 972 l 575 972 q 619 953 602 972 l 736 838 q 754 793 754 819 l 754 729 q 736 685 754 703 q 692 667 718 667 q 647 685 666 667 q 628 729 628 703 z "},"T":{"ha":888,"x_min":136,"x_max":754,"o":"m 509 783 l 509 62 q 490 18 509 36 q 444 0 472 0 q 400 18 418 0 q 382 62 382 37 l 382 783 q 363 827 382 809 q 319 846 345 846 l 199 846 q 155 865 173 846 q 136 909 136 884 q 155 954 136 935 q 199 972 173 972 l 692 972 q 736 954 718 972 q 754 909 754 935 q 736 865 754 884 q 692 846 718 846 l 571 846 q 527 827 545 846 q 509 783 509 809 z "},"U":{"ha":888,"x_min":136,"x_max":754,"o":"m 262 909 l 262 227 q 277 192 262 206 l 328 140 q 363 126 342 126 l 528 126 q 562 140 548 126 l 614 192 q 628 227 628 206 l 628 909 q 647 954 628 935 q 692 972 666 972 q 736 954 718 972 q 754 909 754 935 l 754 179 q 736 135 754 153 l 619 20 q 574 0 602 0 l 315 0 q 271 20 288 0 l 154 135 q 136 179 136 153 l 136 909 q 155 954 136 935 q 199 972 173 972 q 243 954 224 972 q 262 909 262 935 z "},"V":{"ha":888,"x_min":136,"x_max":754,"o":"m 628 330 l 628 909 q 647 954 628 935 q 692 972 666 972 q 736 954 718 972 q 754 909 754 935 l 754 283 q 734 237 754 257 l 515 18 q 471 0 497 0 l 419 0 q 375 18 393 0 l 155 237 q 136 283 136 256 l 136 909 q 155 954 136 935 q 199 972 173 972 q 243 954 224 972 q 262 909 262 935 l 262 330 q 277 296 262 310 l 400 171 q 446 153 418 153 q 490 171 472 153 l 614 296 q 628 330 628 310 z "},"W":{"ha":888,"x_min":136,"x_max":754,"o":"m 628 233 l 628 909 q 647 954 628 935 q 692 972 666 972 q 736 954 718 972 q 754 909 754 935 l 754 186 q 736 142 754 160 l 612 18 q 568 0 594 0 q 524 18 542 0 l 446 97 l 367 18 q 322 0 349 0 q 278 18 296 0 l 154 142 q 136 186 136 159 l 136 909 q 155 954 136 935 q 199 972 173 972 q 243 954 224 972 q 262 909 262 935 l 262 233 q 281 194 262 210 q 322 178 299 178 q 364 194 347 178 q 382 233 382 210 l 382 486 q 400 531 382 513 q 446 549 418 549 q 490 530 471 549 q 509 486 509 512 l 509 233 q 527 194 509 210 q 568 178 545 178 q 610 194 593 178 q 628 233 628 210 z "},"X":{"ha":888,"x_min":136,"x_max":754,"o":"m 628 753 l 628 909 q 647 954 628 935 q 692 972 666 972 q 736 954 718 972 q 754 909 754 935 l 754 705 q 734 661 754 679 l 606 530 q 586 486 586 511 q 606 441 586 461 l 734 311 q 754 267 754 294 l 754 62 q 736 18 754 37 q 692 0 718 0 q 647 18 666 0 q 628 62 628 37 l 628 220 q 614 254 628 240 l 490 378 q 444 397 471 397 q 400 378 420 397 l 277 254 q 262 220 262 240 l 262 62 q 243 18 262 37 q 199 0 224 0 q 155 18 173 0 q 136 62 136 37 l 136 267 q 155 311 136 294 l 285 441 q 304 486 304 461 q 285 530 304 511 l 155 661 q 136 705 136 678 l 136 909 q 155 954 136 935 q 199 972 173 972 q 243 954 224 972 q 262 909 262 935 l 262 753 q 277 718 262 732 l 400 593 q 444 575 420 575 q 490 593 471 575 l 614 718 q 628 753 628 732 z "},"Y":{"ha":888,"x_min":136,"x_max":754,"o":"m 368 416 l 155 629 q 136 675 136 648 l 136 909 q 155 954 136 935 q 199 972 173 972 q 243 954 224 972 q 262 909 262 935 l 262 722 q 277 688 262 702 l 400 562 q 444 545 418 545 q 490 562 473 545 l 614 688 q 628 722 628 702 l 628 909 q 647 954 628 935 q 692 972 666 972 q 736 954 718 972 q 754 909 754 935 l 754 675 q 734 629 754 649 l 522 416 q 509 382 509 403 l 509 62 q 490 18 509 36 q 444 0 472 0 q 400 18 418 0 q 382 62 382 37 l 382 382 q 368 416 382 403 z "},"Z":{"ha":888,"x_min":136,"x_max":754,"o":"m 154 285 l 614 745 q 628 779 628 759 l 628 783 q 610 827 628 809 q 566 846 591 846 l 199 846 q 155 865 173 846 q 136 909 136 884 q 155 954 136 935 q 199 972 173 972 l 692 972 q 736 954 718 972 q 754 909 754 935 l 754 732 q 736 688 754 706 l 277 228 q 262 193 262 214 l 262 189 q 281 145 262 163 q 325 126 299 126 l 692 126 q 736 107 718 126 q 754 62 754 88 q 736 18 754 37 q 692 0 718 0 l 199 0 q 155 18 173 0 q 136 62 136 37 l 136 240 q 154 285 136 267 z "},"[":{"ha":888,"x_min":278,"x_max":611,"o":"m 549 -64 l 340 -64 q 296 -45 315 -64 q 278 -1 278 -27 l 278 972 q 296 1017 278 998 q 340 1035 315 1035 l 549 1035 q 593 1017 574 1035 q 611 972 611 998 q 593 927 611 946 q 549 908 574 908 l 467 908 q 422 890 441 908 q 404 846 404 871 l 404 125 q 422 81 404 99 q 467 62 441 62 l 549 62 q 593 44 574 62 q 611 0 611 26 q 593 -45 611 -26 q 549 -64 574 -64 z "},"\\":{"ha":888,"x_min":136,"x_max":754,"o":"m 262 909 l 262 779 q 277 745 262 759 l 734 285 q 754 240 754 265 l 754 62 q 736 18 754 37 q 692 0 718 0 q 647 18 666 0 q 628 62 628 37 l 628 193 q 614 228 628 214 l 155 688 q 136 732 136 707 l 136 909 q 155 954 136 935 q 199 972 173 972 q 243 954 224 972 q 262 909 262 935 z "},"]":{"ha":888,"x_min":278,"x_max":611,"o":"m 549 -64 l 340 -64 q 296 -45 315 -64 q 278 0 278 -26 q 296 44 278 26 q 340 62 315 62 l 422 62 q 467 81 448 62 q 485 125 485 99 l 485 846 q 467 890 485 871 q 422 908 448 908 l 340 908 q 296 927 315 908 q 278 972 278 946 q 296 1017 278 998 q 340 1035 315 1035 l 549 1035 q 593 1017 574 1035 q 611 972 611 998 l 611 -1 q 593 -45 611 -27 q 549 -64 574 -64 z "},"^":{"ha":888,"x_min":180,"x_max":708,"o":"m 444 972 q 489 954 471 972 l 690 753 q 708 707 708 735 q 689 662 708 680 q 643 644 671 644 q 602 663 620 644 l 489 775 q 444 794 470 794 q 400 775 419 794 l 288 663 q 245 644 269 644 q 199 662 218 644 q 180 707 180 680 q 199 753 180 734 l 400 954 q 444 972 418 972 z "},"_":{"ha":888,"x_min":136,"x_max":754,"o":"m 199 62 l 692 62 q 736 44 718 62 q 754 0 754 26 q 736 -46 754 -28 q 692 -64 718 -64 l 199 -64 q 154 -46 172 -64 q 136 0 136 -28 q 155 44 136 26 q 199 62 173 62 z "},"`":{"ha":888,"x_min":323,"x_max":564,"o":"m 456 1143 l 342 1257 q 323 1301 323 1275 q 342 1345 323 1327 q 386 1364 360 1364 q 432 1346 414 1364 l 545 1232 q 564 1187 564 1213 q 545 1143 564 1162 q 500 1125 526 1125 q 456 1143 474 1125 z "},"a":{"ha":888,"x_min":136,"x_max":754,"o":"m 754 764 l 754 62 q 736 18 754 37 q 692 0 718 0 q 647 18 666 0 q 628 62 628 37 l 628 329 q 610 373 628 355 q 566 392 591 392 l 325 392 q 281 373 299 392 q 262 329 262 355 l 262 62 q 243 18 262 37 q 199 0 224 0 q 155 18 173 0 q 136 62 136 37 l 136 764 q 154 808 136 791 l 300 953 q 345 972 317 972 l 546 972 q 590 954 572 972 l 734 808 q 754 764 754 791 m 628 581 l 628 717 q 614 751 628 737 l 533 832 q 498 846 519 846 l 392 846 q 357 832 370 846 l 277 751 q 262 717 262 737 l 262 581 q 281 536 262 555 q 325 518 299 518 l 566 518 q 610 536 591 518 q 628 581 628 555 z "},"b":{"ha":888,"x_min":136,"x_max":754,"o":"m 562 562 l 614 615 q 628 650 628 629 l 628 746 q 614 781 628 766 l 562 832 q 528 846 549 846 l 325 846 q 281 827 299 846 q 262 783 262 809 l 262 612 q 281 568 262 587 q 325 549 299 549 l 528 549 q 562 562 549 549 m 562 140 l 614 192 q 628 227 628 206 l 628 321 q 614 355 628 341 l 562 408 q 528 422 548 422 l 325 422 q 281 404 299 422 q 262 358 262 385 l 262 189 q 281 145 262 163 q 325 126 299 126 l 528 126 q 562 140 548 126 m 736 558 l 708 530 q 690 486 690 513 q 708 440 690 458 l 736 412 q 754 368 754 394 l 754 180 q 736 135 754 153 l 619 20 q 574 0 602 0 l 199 0 q 155 18 173 0 q 136 62 136 37 l 136 909 q 155 954 136 935 q 199 972 173 972 l 574 972 q 619 953 602 972 l 736 838 q 754 793 754 819 l 754 603 q 736 558 754 576 z "},"c":{"ha":888,"x_min":136,"x_max":754,"o":"m 262 717 l 262 256 q 277 221 262 235 l 357 140 q 392 126 371 126 l 498 126 q 533 140 519 126 l 614 221 q 628 256 628 235 l 628 297 q 647 342 628 323 q 692 361 666 361 q 736 342 718 361 q 754 297 754 323 l 754 208 q 734 164 754 182 l 590 18 q 546 0 572 0 l 345 0 q 298 20 318 0 l 154 164 q 136 208 136 182 l 136 764 q 154 808 136 791 l 298 953 q 345 972 318 972 l 546 972 q 590 954 572 972 l 734 808 q 754 764 754 791 l 754 675 q 736 630 754 649 q 692 611 718 611 q 647 630 666 611 q 628 675 628 649 l 628 717 q 614 751 628 737 l 533 832 q 498 846 519 846 l 392 846 q 357 832 370 846 l 277 751 q 262 717 262 737 z "},"d":{"ha":888,"x_min":136,"x_max":754,"o":"m 533 140 l 614 221 q 628 256 628 235 l 628 717 q 614 751 628 737 l 533 832 q 498 846 519 846 l 325 846 q 281 827 299 846 q 262 783 262 809 l 262 189 q 281 145 262 163 q 325 126 299 126 l 498 126 q 533 140 519 126 m 590 954 l 734 808 q 754 764 754 791 l 754 208 q 734 164 754 182 l 590 18 q 546 0 572 0 l 199 0 q 155 18 173 0 q 136 62 136 37 l 136 909 q 155 954 136 935 q 199 972 173 972 l 546 972 q 590 954 572 972 z "},"e":{"ha":888,"x_min":136,"x_max":754,"o":"m 136 62 l 136 909 q 155 954 136 935 q 199 972 173 972 l 692 972 q 736 954 718 972 q 754 909 754 935 q 736 865 754 884 q 692 846 718 846 l 325 846 q 281 827 299 846 q 262 783 262 809 l 262 612 q 281 568 262 587 q 325 549 299 549 l 597 549 q 642 530 623 549 q 661 486 661 512 q 642 441 661 460 q 597 422 623 422 l 325 422 q 281 404 299 422 q 262 358 262 385 l 262 189 q 281 145 262 163 q 325 126 299 126 l 692 126 q 736 107 718 126 q 754 62 754 88 q 736 18 754 37 q 692 0 718 0 l 199 0 q 155 18 173 0 q 136 62 136 37 z "},"f":{"ha":888,"x_min":136,"x_max":754,"o":"m 262 358 l 262 61 q 243 17 262 35 q 199 -1 224 -1 q 155 17 173 -1 q 136 61 136 35 l 136 909 q 155 954 136 935 q 199 972 173 972 l 692 972 q 736 954 718 972 q 754 909 754 935 q 736 865 754 884 q 692 846 718 846 l 325 846 q 281 827 299 846 q 262 783 262 809 l 262 612 q 281 568 262 587 q 325 549 299 549 l 597 549 q 642 530 623 549 q 660 486 660 512 q 642 441 660 460 q 597 422 623 422 l 325 422 q 281 404 299 422 q 262 358 262 385 z "},"g":{"ha":888,"x_min":136,"x_max":754,"o":"m 628 729 l 628 746 q 614 781 628 766 l 562 832 q 528 846 549 846 l 363 846 q 328 832 341 846 l 277 781 q 262 746 262 766 l 262 227 q 277 192 262 206 l 328 140 q 363 126 342 126 l 528 126 q 562 140 548 126 l 614 192 q 628 227 628 206 l 628 359 q 610 404 628 385 q 566 422 591 422 l 482 422 q 437 441 456 422 q 418 486 418 460 q 437 530 418 512 q 482 549 456 549 l 692 549 q 736 530 718 549 q 754 486 754 512 l 754 180 q 736 135 754 153 l 619 20 q 574 0 602 0 l 315 0 q 271 20 288 0 l 154 135 q 136 180 136 153 l 136 793 q 154 838 136 820 l 271 953 q 315 972 288 972 l 574 972 q 619 953 602 972 l 736 838 q 754 793 754 819 l 754 729 q 736 685 754 703 q 692 667 718 667 q 647 685 666 667 q 628 729 628 703 z "},"h":{"ha":888,"x_min":136,"x_max":754,"o":"m 754 909 l 754 62 q 736 18 754 37 q 692 0 718 0 q 646 18 664 0 q 628 62 628 36 l 628 359 q 610 405 628 386 q 566 424 591 424 l 325 424 q 281 405 299 424 q 262 359 262 386 l 262 62 q 243 18 262 37 q 199 0 224 0 q 155 18 173 0 q 136 62 136 37 l 136 909 q 155 954 136 935 q 199 972 173 972 q 243 954 224 972 q 262 909 262 935 l 262 612 q 281 568 262 587 q 325 549 299 549 l 566 549 q 610 568 591 549 q 628 612 628 587 l 628 909 q 646 954 628 936 q 692 972 664 972 q 736 954 718 972 q 754 909 754 935 z "},"i":{"ha":888,"x_min":199,"x_max":692,"o":"m 629 0 l 261 0 q 217 18 235 0 q 199 62 199 37 q 217 107 199 88 q 261 126 235 126 l 319 126 q 363 145 345 126 q 382 189 382 163 l 382 783 q 363 827 382 809 q 319 846 345 846 l 261 846 q 217 865 235 846 q 199 909 199 884 q 217 954 199 935 q 261 972 235 972 l 629 972 q 673 954 655 972 q 692 909 692 935 q 673 865 692 884 q 629 846 655 846 l 571 846 q 527 827 545 846 q 509 783 509 809 l 509 189 q 527 145 509 163 q 571 126 545 126 l 629 126 q 673 107 655 126 q 692 62 692 88 q 673 18 692 37 q 629 0 655 0 z "},"j":{"ha":888,"x_min":136,"x_max":754,"o":"m 628 227 l 628 783 q 610 827 628 809 q 566 846 591 846 l 444 846 q 400 865 418 846 q 382 909 382 884 q 400 954 382 935 q 444 972 418 972 l 692 972 q 736 954 718 972 q 754 909 754 935 l 754 180 q 736 135 754 153 l 619 20 q 575 0 602 0 l 315 0 q 271 20 288 0 l 154 135 q 136 180 136 153 l 136 297 q 155 342 136 323 q 199 361 173 361 q 243 342 224 361 q 262 297 262 323 l 262 227 q 277 192 262 206 l 328 140 q 363 126 342 126 l 528 126 q 562 140 548 126 l 614 192 q 628 227 628 206 z "},"k":{"ha":888,"x_min":136,"x_max":754,"o":"m 390 424 l 325 424 q 281 405 299 424 q 262 359 262 386 l 262 62 q 243 18 262 37 q 199 0 224 0 q 155 18 173 0 q 136 62 136 37 l 136 909 q 155 954 136 935 q 199 972 173 972 q 243 954 224 972 q 262 909 262 935 l 262 612 q 281 568 262 587 q 325 549 299 549 l 390 549 q 425 562 412 549 l 614 751 q 628 786 628 766 l 628 909 q 647 954 628 935 q 692 972 666 972 q 736 954 718 972 q 754 909 754 935 l 754 739 q 736 694 754 713 l 571 530 q 553 486 553 510 q 571 441 553 462 l 736 278 q 754 233 754 260 l 754 62 q 736 18 754 37 q 692 0 718 0 q 647 18 666 0 q 628 62 628 37 l 628 186 q 614 221 628 207 l 425 410 q 390 424 411 424 z "},"l":{"ha":888,"x_min":136,"x_max":754,"o":"m 262 909 l 262 189 q 281 145 262 163 q 325 126 299 126 l 692 126 q 736 107 718 126 q 754 62 754 88 q 736 18 754 37 q 692 0 718 0 l 199 0 q 155 18 173 0 q 136 62 136 37 l 136 909 q 155 954 136 935 q 199 972 173 972 q 243 954 224 972 q 262 909 262 935 z "},"m":{"ha":888,"x_min":136,"x_max":754,"o":"m 628 62 l 628 736 q 623 747 628 747 q 614 743 618 747 l 522 652 q 509 616 509 638 l 509 486 q 490 442 509 460 q 446 424 471 424 q 400 442 418 424 q 382 486 382 460 l 382 616 q 368 652 382 638 l 277 743 q 268 747 273 747 q 262 736 262 747 l 262 62 q 243 18 262 37 q 199 0 224 0 q 155 18 173 0 q 136 62 136 37 l 136 909 q 155 954 136 935 q 199 972 173 972 q 244 954 226 972 l 400 798 q 446 779 420 779 q 490 798 472 779 l 646 954 q 692 972 664 972 q 736 954 718 972 q 754 909 754 935 l 754 62 q 736 18 754 37 q 692 0 718 0 q 647 18 666 0 q 628 62 628 37 z "},"n":{"ha":888,"x_min":136,"x_max":754,"o":"m 254 940 l 618 315 q 625 309 623 309 q 628 318 628 309 l 628 909 q 647 954 628 935 q 692 972 666 972 q 736 954 718 972 q 754 909 754 935 l 754 62 q 736 18 754 37 q 692 0 718 0 q 636 32 654 0 l 272 659 q 265 665 270 665 q 262 656 262 665 l 262 62 q 243 18 262 37 q 199 0 224 0 q 155 18 173 0 q 136 62 136 37 l 136 909 q 155 954 136 935 q 199 972 173 972 q 254 940 235 972 z "},"o":{"ha":888,"x_min":136,"x_max":754,"o":"m 619 953 l 736 838 q 754 793 754 819 l 754 179 q 736 135 754 153 l 619 20 q 574 0 602 0 l 315 0 q 271 20 288 0 l 154 135 q 136 179 136 153 l 136 793 q 154 838 136 820 l 271 953 q 315 972 288 972 l 574 972 q 619 953 602 972 m 562 140 l 614 192 q 628 227 628 206 l 628 746 q 614 781 628 766 l 562 832 q 528 846 549 846 l 363 846 q 328 832 341 846 l 277 781 q 262 746 262 766 l 262 227 q 277 192 262 206 l 328 140 q 363 126 342 126 l 528 126 q 562 140 548 126 z "},"p":{"ha":888,"x_min":136,"x_max":754,"o":"m 262 329 l 262 62 q 243 18 262 37 q 199 0 224 0 q 155 18 173 0 q 136 62 136 37 l 136 909 q 155 954 136 935 q 199 972 173 972 l 574 972 q 619 953 602 972 l 736 838 q 754 793 754 819 l 754 572 q 736 526 754 545 l 619 411 q 574 392 602 392 l 325 392 q 281 373 299 392 q 262 329 262 355 m 325 518 l 528 518 q 562 532 549 518 l 614 583 q 628 618 628 597 l 628 746 q 614 781 628 766 l 562 832 q 528 846 549 846 l 325 846 q 281 827 299 846 q 262 783 262 809 l 262 581 q 281 536 262 555 q 325 518 299 518 z "},"q":{"ha":888,"x_min":136,"x_max":754,"o":"m 528 0 l 317 0 q 271 20 288 0 l 154 135 q 136 180 136 153 l 136 793 q 154 838 136 820 l 271 953 q 317 972 288 972 l 575 972 q 619 953 602 972 l 736 838 q 754 793 754 819 l 754 180 q 736 135 754 153 l 708 109 q 690 62 690 91 q 708 18 690 36 l 736 -8 q 754 -54 754 -26 q 736 -98 754 -80 q 692 -117 718 -117 q 646 -98 664 -117 l 562 -14 q 528 0 549 0 m 562 140 l 614 192 q 628 227 628 206 l 628 746 q 614 781 628 766 l 562 832 q 528 846 549 846 l 363 846 q 328 832 341 846 l 277 781 q 262 746 262 766 l 262 227 q 277 192 262 206 l 328 140 q 363 126 342 126 l 528 126 q 562 140 548 126 z "},"r":{"ha":888,"x_min":136,"x_max":754,"o":"m 498 392 l 325 392 q 281 373 299 392 q 262 329 262 355 l 262 62 q 243 18 262 37 q 199 0 224 0 q 155 18 173 0 q 136 62 136 37 l 136 909 q 155 954 136 935 q 199 972 173 972 l 546 972 q 591 953 572 972 l 736 808 q 754 764 754 790 l 754 600 q 734 555 754 575 l 679 500 q 661 456 661 482 q 679 410 661 429 l 736 354 q 754 310 754 336 l 754 62 q 736 18 754 37 q 692 0 718 0 q 647 18 666 0 q 628 62 628 37 l 628 262 q 614 297 628 283 l 533 378 q 498 392 519 392 m 533 532 l 614 612 q 628 647 628 627 l 628 717 q 614 751 628 737 l 533 832 q 498 846 519 846 l 325 846 q 281 827 299 846 q 262 783 262 809 l 262 581 q 281 536 262 555 q 325 518 299 518 l 498 518 q 533 532 519 518 z "},"s":{"ha":888,"x_min":136,"x_max":754,"o":"m 628 729 l 628 746 q 614 781 628 766 l 562 832 q 528 846 549 846 l 363 846 q 328 832 341 846 l 277 781 q 262 746 262 766 l 262 650 q 277 615 262 629 l 328 562 q 363 549 341 549 l 575 549 q 619 530 601 549 l 736 412 q 754 368 754 394 l 754 179 q 736 135 754 153 l 619 20 q 575 0 602 0 l 315 0 q 271 20 288 0 l 154 135 q 136 179 136 153 l 136 243 q 155 287 136 269 q 199 304 173 304 q 244 287 225 304 q 262 243 262 269 l 262 227 q 277 192 262 206 l 328 140 q 363 126 342 126 l 528 126 q 562 140 548 126 l 614 192 q 628 227 628 206 l 628 321 q 614 355 628 341 l 562 408 q 528 422 548 422 l 315 422 q 271 440 288 422 l 154 558 q 136 603 136 576 l 136 793 q 154 838 136 820 l 271 953 q 315 972 288 972 l 575 972 q 619 953 602 972 l 736 838 q 754 793 754 819 l 754 729 q 736 685 754 703 q 692 667 718 667 q 647 685 666 667 q 628 729 628 703 z "},"t":{"ha":888,"x_min":136,"x_max":754,"o":"m 509 783 l 509 62 q 490 18 509 36 q 444 0 472 0 q 400 18 418 0 q 382 62 382 37 l 382 783 q 363 827 382 809 q 319 846 345 846 l 199 846 q 155 865 173 846 q 136 909 136 884 q 155 954 136 935 q 199 972 173 972 l 692 972 q 736 954 718 972 q 754 909 754 935 q 736 865 754 884 q 692 846 718 846 l 571 846 q 527 827 545 846 q 509 783 509 809 z "},"u":{"ha":888,"x_min":136,"x_max":754,"o":"m 262 909 l 262 227 q 277 192 262 206 l 328 140 q 363 126 342 126 l 528 126 q 562 140 548 126 l 614 192 q 628 227 628 206 l 628 909 q 647 954 628 935 q 692 972 666 972 q 736 954 718 972 q 754 909 754 935 l 754 179 q 736 135 754 153 l 619 20 q 574 0 602 0 l 315 0 q 271 20 288 0 l 154 135 q 136 179 136 153 l 136 909 q 155 954 136 935 q 199 972 173 972 q 243 954 224 972 q 262 909 262 935 z "},"v":{"ha":888,"x_min":136,"x_max":754,"o":"m 628 330 l 628 909 q 647 954 628 935 q 692 972 666 972 q 736 954 718 972 q 754 909 754 935 l 754 283 q 734 237 754 257 l 515 18 q 471 0 497 0 l 419 0 q 375 18 393 0 l 155 237 q 136 283 136 256 l 136 909 q 155 954 136 935 q 199 972 173 972 q 243 954 224 972 q 262 909 262 935 l 262 330 q 277 296 262 310 l 400 171 q 446 153 418 153 q 490 171 472 153 l 614 296 q 628 330 628 310 z "},"w":{"ha":888,"x_min":136,"x_max":754,"o":"m 628 233 l 628 909 q 647 954 628 935 q 692 972 666 972 q 736 954 718 972 q 754 909 754 935 l 754 186 q 736 142 754 160 l 612 18 q 568 0 594 0 q 524 18 542 0 l 446 97 l 367 18 q 322 0 349 0 q 278 18 296 0 l 154 142 q 136 186 136 159 l 136 909 q 155 954 136 935 q 199 972 173 972 q 243 954 224 972 q 262 909 262 935 l 262 233 q 281 194 262 210 q 322 178 299 178 q 364 194 347 178 q 382 233 382 210 l 382 486 q 400 531 382 513 q 446 549 418 549 q 490 530 471 549 q 509 486 509 512 l 509 233 q 527 194 509 210 q 568 178 545 178 q 610 194 593 178 q 628 233 628 210 z "},"x":{"ha":888,"x_min":136,"x_max":754,"o":"m 628 753 l 628 909 q 647 954 628 935 q 692 972 666 972 q 736 954 718 972 q 754 909 754 935 l 754 705 q 734 661 754 679 l 606 530 q 586 486 586 511 q 606 441 586 461 l 734 311 q 754 267 754 294 l 754 62 q 736 18 754 37 q 692 0 718 0 q 647 18 666 0 q 628 62 628 37 l 628 220 q 614 254 628 240 l 490 378 q 444 397 471 397 q 400 378 420 397 l 277 254 q 262 220 262 240 l 262 62 q 243 18 262 37 q 199 0 224 0 q 155 18 173 0 q 136 62 136 37 l 136 267 q 155 311 136 294 l 285 441 q 304 486 304 461 q 285 530 304 511 l 155 661 q 136 705 136 678 l 136 909 q 155 954 136 935 q 199 972 173 972 q 243 954 224 972 q 262 909 262 935 l 262 753 q 277 718 262 732 l 400 593 q 444 575 420 575 q 490 593 471 575 l 614 718 q 628 753 628 732 z "},"y":{"ha":888,"x_min":136,"x_max":754,"o":"m 368 416 l 155 629 q 136 675 136 648 l 136 909 q 155 954 136 935 q 199 972 173 972 q 243 954 224 972 q 262 909 262 935 l 262 722 q 277 688 262 702 l 400 562 q 444 545 418 545 q 490 562 473 545 l 614 688 q 628 722 628 702 l 628 909 q 647 954 628 935 q 692 972 666 972 q 736 954 718 972 q 754 909 754 935 l 754 675 q 734 629 754 649 l 522 416 q 509 382 509 403 l 509 62 q 490 18 509 36 q 444 0 472 0 q 400 18 418 0 q 382 62 382 37 l 382 382 q 368 416 382 403 z "},"z":{"ha":888,"x_min":136,"x_max":754,"o":"m 154 285 l 614 745 q 628 779 628 759 l 628 783 q 610 827 628 809 q 566 846 591 846 l 199 846 q 155 865 173 846 q 136 909 136 884 q 155 954 136 935 q 199 972 173 972 l 692 972 q 736 954 718 972 q 754 909 754 935 l 754 732 q 736 688 754 706 l 277 228 q 262 193 262 214 l 262 189 q 281 145 262 163 q 325 126 299 126 l 692 126 q 736 107 718 126 q 754 62 754 88 q 736 18 754 37 q 692 0 718 0 l 199 0 q 155 18 173 0 q 136 62 136 37 l 136 240 q 154 285 136 267 z "},"{":{"ha":888,"x_min":220,"x_max":669,"o":"m 386 471 l 444 412 q 463 368 463 394 l 463 163 q 476 127 463 141 l 528 77 q 562 62 542 62 l 607 62 q 651 44 633 62 q 669 0 669 26 q 651 -46 669 -28 q 607 -65 633 -65 l 515 -65 q 471 -46 490 -65 l 354 71 q 336 115 336 88 l 336 321 q 322 355 336 341 l 237 440 q 220 485 220 458 q 237 529 220 511 l 322 614 q 336 648 336 628 l 336 856 q 354 900 336 882 l 471 1015 q 515 1035 488 1035 l 607 1035 q 651 1017 633 1035 q 669 972 669 998 q 651 927 669 946 q 607 908 633 908 l 562 908 q 528 895 541 908 l 476 843 q 463 808 463 829 l 463 602 q 444 557 463 575 l 386 498 q 380 485 380 493 q 386 471 380 476 z "},"|":{"ha":888,"x_min":382,"x_max":509,"o":"m 382 -40 l 382 1013 q 400 1057 382 1038 q 444 1075 418 1075 q 490 1057 472 1075 q 509 1013 509 1039 l 509 -40 q 490 -85 509 -66 q 444 -103 472 -103 q 400 -84 418 -103 q 382 -40 382 -66 z "},"}":{"ha":888,"x_min":220,"x_max":669,"o":"m 444 412 l 503 471 q 510 485 510 478 q 503 498 510 491 l 444 557 q 427 602 427 574 l 427 808 q 412 843 427 829 l 361 895 q 326 908 347 908 l 282 908 q 238 927 256 908 q 220 972 220 946 q 238 1017 220 998 q 282 1035 256 1035 l 374 1035 q 418 1015 400 1035 l 534 900 q 553 856 553 882 l 553 648 q 567 614 553 628 l 652 529 q 669 485 669 511 q 652 440 669 458 l 567 355 q 553 321 553 341 l 553 115 q 534 71 553 89 l 418 -46 q 374 -65 399 -65 l 282 -65 q 238 -46 256 -65 q 220 0 220 -28 q 238 44 220 26 q 282 62 256 62 l 326 62 q 361 77 347 62 l 412 127 q 427 163 427 142 l 427 368 q 444 412 427 395 z "},"~":{"ha":888,"x_min":151,"x_max":739,"o":"m 302 529 l 278 503 l 278 422 q 259 377 278 396 q 212 358 240 358 q 170 377 189 358 q 151 422 151 397 l 151 533 q 170 572 151 552 l 235 639 q 273 656 252 656 l 383 656 q 424 639 407 656 l 492 572 q 507 533 507 557 l 507 468 l 534 441 l 589 441 l 612 468 l 612 551 q 631 596 612 576 q 676 615 650 615 q 720 596 701 615 q 739 551 739 576 l 739 440 q 725 401 739 416 l 656 335 q 616 318 643 318 l 505 318 q 464 335 481 318 l 397 401 q 380 440 380 418 l 380 503 l 355 529 l 302 529 z "},"":{"ha":888,"x_min":354,"x_max":534,"o":"m 416 972 l 472 972 q 516 954 498 972 q 534 909 534 935 l 534 854 q 516 810 534 829 q 472 791 498 791 l 416 791 q 372 810 391 791 q 354 854 354 829 l 354 909 q 372 954 354 935 q 416 972 391 972 m 509 632 l 509 62 q 490 18 509 37 q 444 0 471 0 q 400 18 418 0 q 382 62 382 37 l 382 632 q 400 676 382 658 q 444 694 418 694 q 490 676 471 694 q 509 632 509 658 z "},"":{"ha":888,"x_min":136,"x_max":754,"o":"m 507 1013 l 507 993 q 528 972 507 972 l 546 972 q 590 954 572 972 l 734 808 q 754 764 754 791 l 754 675 q 736 630 754 649 q 692 611 718 611 q 647 630 666 611 q 628 675 628 649 l 628 717 q 614 751 628 737 l 533 832 q 518 839 526 839 q 507 823 507 839 l 507 149 q 518 134 507 134 q 533 140 526 134 l 614 221 q 628 256 628 235 l 628 297 q 647 342 628 323 q 692 361 666 361 q 736 342 718 361 q 754 297 754 323 l 754 208 q 734 164 754 182 l 590 18 q 546 0 572 0 l 528 0 q 507 -21 507 0 l 507 -40 q 489 -85 507 -66 q 443 -103 471 -103 q 399 -84 417 -103 q 380 -40 380 -66 l 380 -21 q 359 0 380 0 l 345 0 q 298 20 318 0 l 154 164 q 136 208 136 182 l 136 764 q 154 808 136 791 l 298 953 q 345 972 318 972 l 359 972 q 380 993 380 972 l 380 1013 q 399 1057 380 1038 q 443 1075 417 1075 q 489 1057 471 1075 q 507 1013 507 1039 m 380 149 l 380 823 q 371 839 380 839 q 357 832 363 839 l 277 751 q 262 717 262 737 l 262 256 q 277 221 262 235 l 357 140 q 371 134 363 134 q 380 149 380 134 z "},"":{"ha":888,"x_min":136,"x_max":754,"o":"m 628 729 l 628 746 q 612 782 628 766 l 564 831 q 528 846 549 846 l 489 846 q 453 831 468 846 l 404 782 q 389 746 389 766 l 389 539 q 410 518 389 518 l 628 518 q 673 500 654 518 q 692 456 692 481 q 673 410 692 428 q 628 392 654 392 l 410 392 q 389 371 389 392 l 389 147 q 410 126 389 126 l 692 126 q 736 107 718 126 q 754 62 754 88 q 736 18 754 37 q 692 0 718 0 l 199 0 q 155 18 173 0 q 136 62 136 37 q 155 107 136 88 q 199 126 173 126 l 241 126 q 262 147 262 126 l 262 371 q 241 392 262 392 l 199 392 q 154 410 172 392 q 136 456 136 428 q 155 500 136 481 q 199 518 173 518 l 241 518 q 262 539 262 518 l 262 793 q 281 838 262 819 l 397 953 q 441 972 415 972 l 575 972 q 619 953 602 972 l 736 838 q 754 793 754 819 l 754 729 q 736 685 754 703 q 692 667 718 667 q 647 685 666 667 q 628 729 628 703 z "},"":{"ha":888,"x_min":125,"x_max":764,"o":"m 593 439 l 593 533 q 578 570 593 555 l 528 619 q 492 635 512 635 l 397 635 q 361 619 376 635 l 311 570 q 296 533 296 554 l 296 439 q 311 403 296 418 l 361 353 q 397 338 376 338 l 492 338 q 528 353 513 338 l 578 403 q 593 439 593 418 m 187 624 q 195 639 195 636 q 187 653 195 646 l 143 697 q 125 743 125 715 q 143 787 125 769 q 187 806 161 806 q 233 787 215 806 l 278 743 q 292 737 284 737 q 306 743 300 737 q 350 761 328 761 l 539 761 q 583 743 561 761 q 597 737 589 737 q 611 743 605 737 l 656 787 q 701 806 674 806 q 745 787 727 806 q 764 743 764 769 q 746 697 764 715 l 701 653 q 696 639 696 648 q 701 624 696 629 q 720 581 720 606 l 720 392 q 701 349 720 367 q 696 334 696 343 q 701 318 696 323 l 746 273 q 764 229 764 256 q 745 185 764 203 q 701 167 727 167 q 656 184 673 167 l 611 229 q 597 236 604 236 q 583 229 595 236 q 539 211 559 211 l 350 211 q 306 229 330 211 q 292 236 299 236 q 278 229 285 236 l 233 184 q 187 167 216 167 q 143 185 161 167 q 125 229 125 203 q 143 275 125 257 l 187 319 q 195 334 195 327 q 187 349 195 341 q 170 392 170 366 l 170 581 q 187 624 170 606 z "},"":{"ha":888,"x_min":136,"x_max":754,"o":"m 378 511 q 368 532 378 522 l 155 745 q 136 790 136 764 l 136 909 q 155 954 136 935 q 199 972 173 972 q 243 954 224 972 q 262 909 262 935 l 262 838 q 277 803 262 817 l 400 677 q 444 660 418 660 q 490 677 473 660 l 614 803 q 628 838 628 817 l 628 909 q 647 954 628 935 q 692 972 666 972 q 736 954 718 972 q 754 909 754 935 l 754 790 q 734 745 754 764 l 522 532 q 513 511 513 522 q 529 497 513 497 l 632 497 q 676 479 658 497 q 694 435 694 460 q 676 389 694 407 q 632 371 659 371 l 529 371 q 509 350 509 371 l 509 329 q 529 309 509 309 l 632 309 q 676 290 658 309 q 694 245 694 271 q 676 200 694 218 q 632 182 659 182 l 529 182 q 509 161 509 182 l 509 62 q 490 18 509 36 q 444 0 472 0 q 400 18 418 0 q 382 62 382 37 l 382 161 q 361 182 382 182 l 257 182 q 213 200 231 182 q 195 245 195 218 q 213 290 195 271 q 257 309 231 309 l 361 309 q 382 329 382 309 l 382 350 q 361 371 382 371 l 257 371 q 213 389 231 371 q 195 435 195 407 q 213 479 195 460 q 257 497 231 497 l 361 497 q 378 511 378 497 z "},"":{"ha":888,"x_min":382,"x_max":509,"o":"m 382 614 l 382 1013 q 400 1057 382 1038 q 444 1075 418 1075 q 490 1057 472 1075 q 509 1013 509 1039 l 509 614 q 490 569 509 587 q 444 551 472 551 q 400 570 418 551 q 382 614 382 588 m 382 -40 l 382 358 q 400 402 382 384 q 444 421 418 421 q 490 403 472 421 q 509 358 509 385 l 509 -40 q 490 -85 509 -66 q 444 -103 472 -103 q 400 -84 418 -103 q 382 -40 382 -66 z "},"":{"ha":888,"x_min":136,"x_max":754,"o":"m 628 844 l 628 863 q 614 897 628 883 l 562 949 q 528 962 549 962 l 363 962 q 328 949 341 962 l 277 897 q 262 863 262 883 l 262 829 q 277 794 262 808 l 328 742 q 363 728 342 728 l 575 728 q 619 710 602 728 l 736 593 q 754 549 754 574 l 754 422 q 736 378 754 396 l 663 307 l 736 233 q 754 189 754 215 l 754 62 q 736 18 754 37 l 619 -97 q 575 -117 602 -117 l 315 -117 q 271 -97 288 -117 l 154 18 q 136 62 136 36 l 136 126 q 155 170 136 152 q 199 187 173 187 q 244 170 225 187 q 262 126 262 152 l 262 110 q 277 75 262 90 l 328 24 q 363 9 342 9 l 528 9 q 562 24 548 9 l 614 75 q 628 110 628 90 l 628 142 q 614 176 628 162 l 562 229 q 528 243 549 243 l 315 243 q 271 261 289 243 l 154 378 q 136 422 136 395 l 136 549 q 154 593 136 575 l 227 664 l 154 737 q 136 782 136 755 l 136 909 q 154 954 136 937 l 271 1069 q 315 1089 288 1089 l 575 1089 q 619 1069 602 1089 l 736 954 q 754 909 754 936 l 754 844 q 736 800 754 819 q 692 782 718 782 q 647 800 666 782 q 628 844 628 819 m 277 435 l 328 383 q 363 370 341 370 l 528 370 q 562 383 549 370 l 614 435 q 628 469 628 449 l 628 500 q 614 534 628 520 l 562 587 q 528 602 548 602 l 363 602 q 328 587 342 602 l 277 536 q 262 501 262 522 l 262 469 q 277 435 262 449 z "},"":{"ha":888,"x_min":245,"x_max":642,"o":"m 579 1139 l 551 1139 q 507 1157 526 1139 q 489 1202 489 1176 l 489 1229 q 507 1273 489 1255 q 551 1292 526 1292 l 579 1292 q 623 1273 605 1292 q 642 1229 642 1255 l 642 1202 q 623 1157 642 1176 q 579 1139 605 1139 m 336 1139 l 309 1139 q 264 1157 283 1139 q 245 1202 245 1176 l 245 1229 q 264 1273 245 1255 q 309 1292 283 1292 l 336 1292 q 380 1273 362 1292 q 399 1229 399 1255 l 399 1202 q 380 1157 399 1176 q 336 1139 362 1139 z "},"":{"ha":888,"x_min":136,"x_max":754,"o":"m 530 421 q 544 446 533 437 q 571 454 555 454 q 600 443 588 454 q 611 414 611 431 l 611 383 q 599 354 611 368 l 524 281 q 496 268 513 268 l 395 268 q 366 281 380 268 l 292 354 q 279 383 279 366 l 279 591 q 292 619 279 607 l 366 693 q 395 705 378 705 l 496 705 q 524 694 513 705 l 599 619 q 611 591 611 607 l 611 561 q 600 532 611 544 q 571 521 588 521 q 544 530 555 521 q 530 554 533 538 q 515 589 526 578 l 494 611 q 458 625 480 625 l 432 625 q 396 611 410 625 l 375 589 q 359 554 359 573 l 359 421 q 375 385 359 400 l 396 364 q 432 349 412 349 l 458 349 q 494 364 479 349 l 515 385 q 530 421 526 395 m 611 221 l 659 268 q 669 284 664 273 q 673 304 673 296 l 673 669 q 659 705 673 690 l 611 753 q 575 768 595 768 l 315 768 q 279 753 295 768 l 232 705 q 216 669 216 690 l 216 304 q 221 284 216 296 q 232 268 227 273 l 279 221 q 315 205 295 205 l 575 205 q 611 221 595 205 m 640 838 l 743 733 q 754 707 754 722 l 754 267 q 743 239 754 254 l 640 138 q 612 125 629 125 l 278 125 q 250 138 261 125 l 147 239 q 136 267 136 254 l 136 707 q 147 733 136 722 l 250 838 q 278 848 261 848 l 612 848 q 640 838 629 848 z "},"":{"ha":888,"x_min":138,"x_max":753,"o":"m 155 532 l 364 741 q 406 757 380 757 q 453 739 433 757 q 473 693 473 720 q 456 650 473 667 l 335 530 q 314 486 314 511 q 336 440 314 460 l 453 325 q 469 281 469 309 q 453 234 469 252 q 408 216 436 216 q 363 235 381 216 l 155 440 q 138 486 138 460 q 155 532 138 514 m 435 532 l 643 741 q 685 757 659 757 q 732 739 712 757 q 753 693 753 720 q 734 650 753 668 l 614 530 q 593 486 593 511 q 615 440 593 460 l 732 325 q 749 281 749 308 q 732 234 749 252 q 688 216 715 216 q 642 235 660 216 l 435 440 q 416 486 416 460 q 435 532 416 513 z "},"":{"ha":888,"x_min":136,"x_max":754,"o":"m 359 604 l 359 546 q 371 517 359 529 q 400 505 383 505 l 440 505 q 476 521 460 505 l 515 559 q 522 575 522 566 q 515 589 522 582 l 494 611 q 458 625 480 625 l 380 625 q 359 604 359 625 m 440 425 l 400 425 q 371 413 383 425 q 359 385 359 401 l 359 309 q 348 280 359 292 q 319 268 336 268 q 291 280 302 268 q 279 309 279 292 l 279 665 q 291 694 279 682 q 319 705 302 705 l 496 705 q 525 693 513 705 l 599 619 q 611 591 611 607 l 611 558 q 599 529 611 541 l 564 494 q 551 465 551 482 q 564 437 551 448 l 599 401 q 611 374 611 389 l 611 309 q 600 280 611 292 q 571 268 588 268 q 542 280 554 268 q 530 309 530 292 l 530 336 q 515 371 530 356 l 476 411 q 440 425 462 425 m 611 221 l 659 268 q 669 284 664 273 q 673 304 673 296 l 673 669 q 659 705 673 690 l 611 753 q 575 768 595 768 l 315 768 q 279 753 295 768 l 232 705 q 216 669 216 690 l 216 304 q 221 284 216 296 q 232 268 227 273 l 279 221 q 315 205 295 205 l 575 205 q 611 221 595 205 m 640 838 l 743 733 q 754 707 754 722 l 754 267 q 743 239 754 254 l 640 138 q 612 125 629 125 l 278 125 q 250 138 261 125 l 147 239 q 136 267 136 254 l 136 707 q 147 733 136 722 l 250 838 q 278 848 261 848 l 612 848 q 640 838 629 848 z "},"":{"ha":888,"x_min":250,"x_max":637,"o":"m 575 1139 l 313 1139 q 269 1157 287 1139 q 250 1202 250 1176 q 269 1246 250 1227 q 313 1265 287 1265 l 575 1265 q 619 1246 601 1265 q 637 1202 637 1227 q 619 1157 637 1176 q 575 1139 601 1139 z "},"":{"ha":888,"x_min":262,"x_max":627,"o":"m 262 739 l 262 840 q 277 872 262 856 l 361 958 q 395 972 375 972 l 494 972 q 528 958 513 972 l 612 872 q 627 840 627 860 l 627 739 q 612 707 627 721 l 528 623 q 494 608 513 608 l 395 608 q 361 623 377 608 l 277 707 q 262 739 262 721 m 403 850 l 385 832 q 370 790 370 817 q 385 749 370 764 l 403 730 q 444 715 418 715 q 486 730 471 715 l 504 749 q 519 790 519 764 q 504 832 519 817 l 486 850 q 444 865 471 865 q 403 850 418 865 z "},"":{"ha":888,"x_min":164,"x_max":726,"o":"m 571 547 l 632 547 q 676 529 658 547 q 694 485 694 511 q 676 439 694 457 q 632 421 659 421 l 571 421 q 527 402 545 421 q 509 358 509 384 l 509 296 q 490 251 509 269 q 444 233 472 233 q 400 252 418 233 q 382 296 382 270 l 382 358 q 363 402 382 384 q 319 421 345 421 l 257 421 q 213 439 231 421 q 195 485 195 457 q 213 529 195 511 q 257 547 231 547 l 319 547 q 363 566 345 547 q 382 610 382 584 l 382 672 q 400 716 382 698 q 444 734 418 734 q 490 716 472 734 q 509 672 509 699 l 509 610 q 527 566 509 584 q 571 547 545 547 m 227 126 l 664 126 q 708 108 690 126 q 726 64 726 90 q 708 18 726 36 q 664 0 690 0 l 227 0 q 182 18 200 0 q 164 64 164 36 q 182 108 164 90 q 227 126 201 126 z "},"":{"ha":888,"x_min":323,"x_max":564,"o":"m 545 1257 l 432 1143 q 387 1125 414 1125 q 342 1143 361 1125 q 323 1187 323 1162 q 343 1232 323 1213 l 456 1346 q 500 1364 473 1364 q 545 1345 526 1364 q 564 1301 564 1327 q 545 1257 564 1274 z "},"":{"ha":888,"x_min":136,"x_max":754,"o":"m 628 62 l 628 825 q 607 846 628 846 l 551 846 q 530 825 530 846 l 530 62 q 512 18 530 37 q 468 0 494 0 q 423 18 442 0 q 404 62 404 37 l 404 329 q 385 373 404 355 q 340 392 366 392 l 315 392 q 271 411 290 392 l 154 528 q 136 572 136 545 l 136 793 q 154 838 136 820 l 271 953 q 315 972 288 972 l 692 972 q 736 954 718 972 q 754 909 754 935 l 754 62 q 736 18 754 37 q 692 0 718 0 q 647 18 666 0 q 628 62 628 37 z "},"":{"ha":888,"x_min":347,"x_max":542,"o":"m 479 389 l 410 389 q 366 407 384 389 q 347 452 347 426 l 347 521 q 366 565 347 547 q 410 583 384 583 l 479 583 q 524 565 505 583 q 542 521 542 547 l 542 452 q 524 407 542 426 q 479 389 505 389 z "},"":{"ha":888,"x_min":322,"x_max":599,"o":"m 399 -60 l 399 56 q 412 87 399 75 q 444 100 425 100 q 476 87 464 100 q 489 56 489 75 l 489 -22 q 504 -58 489 -43 l 587 -140 q 599 -168 599 -157 l 599 -253 q 587 -281 599 -269 l 514 -353 q 486 -366 503 -366 l 401 -366 q 374 -353 385 -366 l 336 -315 q 322 -283 322 -301 q 335 -251 322 -264 q 368 -239 349 -239 q 400 -252 387 -239 l 408 -260 q 444 -275 424 -275 q 481 -260 465 -275 l 493 -248 q 509 -211 509 -232 q 493 -175 509 -191 l 414 -96 q 399 -60 399 -81 z "},"":{"ha":888,"x_min":138,"x_max":753,"o":"m 526 741 l 734 532 q 753 486 753 513 q 734 440 753 460 l 528 235 q 482 216 509 216 q 438 234 454 216 q 421 281 421 252 q 437 325 421 309 l 554 440 q 576 486 576 460 q 555 530 576 511 l 435 650 q 416 693 416 668 q 437 739 416 720 q 485 757 458 757 q 526 741 510 757 m 248 741 l 456 532 q 473 486 473 514 q 456 440 473 460 l 249 235 q 203 216 231 216 q 158 234 175 216 q 142 281 142 252 q 158 325 142 309 l 275 440 q 297 486 297 459 q 277 530 297 512 l 155 650 q 138 693 138 667 q 158 739 138 720 q 205 757 178 757 q 248 741 231 757 z "},"":{"ha":888,"x_min":136,"x_max":754,"o":"m 136 179 l 136 269 q 154 314 136 296 l 368 528 q 382 562 382 541 l 382 632 q 400 676 382 658 q 444 694 418 694 q 490 676 472 694 q 509 632 509 659 l 509 515 q 490 471 509 489 l 277 257 q 262 222 262 243 q 273 195 262 205 l 328 140 q 363 126 342 126 l 528 126 q 562 140 548 126 l 614 192 q 628 227 628 206 l 628 243 q 647 287 628 269 q 692 306 666 306 q 736 287 718 306 q 754 243 754 269 l 754 179 q 736 135 754 153 l 619 20 q 575 0 602 0 l 315 0 q 271 20 288 0 l 154 135 q 136 179 136 155 m 418 972 l 473 972 q 518 954 499 972 q 536 909 536 935 l 536 854 q 518 810 536 829 q 473 791 499 791 l 418 791 q 374 810 392 791 q 355 854 355 829 l 355 909 q 374 954 355 935 q 418 972 392 972 z "},"":{"ha":888,"x_min":136,"x_max":754,"o":"m 457 1143 l 343 1257 q 325 1301 325 1275 q 343 1345 325 1327 q 387 1364 361 1364 q 433 1346 416 1364 l 546 1232 q 566 1187 566 1213 q 547 1143 566 1162 q 501 1125 528 1125 q 457 1143 475 1125 m 754 764 l 754 62 q 736 18 754 37 q 692 0 718 0 q 647 18 666 0 q 628 62 628 37 l 628 329 q 610 373 628 355 q 566 392 591 392 l 325 392 q 281 373 299 392 q 262 329 262 355 l 262 62 q 243 18 262 37 q 199 0 224 0 q 155 18 173 0 q 136 62 136 37 l 136 764 q 154 808 136 791 l 300 953 q 345 972 317 972 l 546 972 q 590 954 572 972 l 734 808 q 754 764 754 791 m 628 581 l 628 717 q 614 751 628 737 l 533 832 q 498 846 519 846 l 392 846 q 357 832 370 846 l 277 751 q 262 717 262 737 l 262 581 q 281 536 262 555 q 325 518 299 518 l 566 518 q 610 536 591 518 q 628 581 628 555 z "},"":{"ha":888,"x_min":136,"x_max":754,"o":"m 546 1257 l 433 1143 q 389 1125 415 1125 q 344 1143 363 1125 q 325 1187 325 1162 q 345 1232 325 1213 l 457 1346 q 501 1364 475 1364 q 547 1345 528 1364 q 566 1301 566 1327 q 546 1257 566 1274 m 754 764 l 754 62 q 736 18 754 37 q 692 0 718 0 q 647 18 666 0 q 628 62 628 37 l 628 329 q 610 373 628 355 q 566 392 591 392 l 325 392 q 281 373 299 392 q 262 329 262 355 l 262 62 q 243 18 262 37 q 199 0 224 0 q 155 18 173 0 q 136 62 136 37 l 136 764 q 154 808 136 791 l 300 953 q 345 972 317 972 l 546 972 q 590 954 572 972 l 734 808 q 754 764 754 791 m 628 581 l 628 717 q 614 751 628 737 l 533 832 q 498 846 519 846 l 392 846 q 357 832 370 846 l 277 751 q 262 717 262 737 l 262 581 q 281 536 262 555 q 325 518 299 518 l 566 518 q 610 536 591 518 q 628 581 628 555 z "},"":{"ha":888,"x_min":136,"x_max":754,"o":"m 406 1190 l 354 1140 q 315 1125 341 1125 q 276 1140 292 1125 q 260 1179 260 1156 q 277 1219 260 1202 l 406 1348 q 444 1364 420 1364 q 484 1348 467 1364 l 612 1219 q 628 1179 628 1204 q 613 1140 628 1156 q 574 1125 597 1125 q 533 1140 548 1125 l 484 1190 q 444 1207 467 1207 q 406 1190 420 1207 m 754 764 l 754 62 q 736 18 754 37 q 692 0 718 0 q 647 18 666 0 q 628 62 628 37 l 628 329 q 610 373 628 355 q 566 392 591 392 l 325 392 q 281 373 299 392 q 262 329 262 355 l 262 62 q 243 18 262 37 q 199 0 224 0 q 155 18 173 0 q 136 62 136 37 l 136 764 q 154 808 136 791 l 300 953 q 345 972 317 972 l 546 972 q 590 954 572 972 l 734 808 q 754 764 754 791 m 628 581 l 628 717 q 614 751 628 737 l 533 832 q 498 846 519 846 l 392 846 q 357 832 370 846 l 277 751 q 262 717 262 737 l 262 581 q 281 536 262 555 q 325 518 299 518 l 566 518 q 610 536 591 518 q 628 581 628 555 z "},"":{"ha":888,"x_min":136,"x_max":754,"o":"m 349 1278 l 328 1255 l 328 1211 q 312 1174 328 1190 q 275 1158 297 1158 q 239 1174 254 1158 q 224 1211 224 1190 l 224 1280 q 237 1312 224 1299 l 293 1368 q 325 1382 307 1382 l 395 1382 q 428 1368 414 1382 l 484 1312 q 496 1280 496 1298 l 496 1250 l 518 1229 l 541 1229 l 561 1250 l 561 1296 q 576 1332 561 1317 q 614 1348 592 1348 q 650 1332 635 1348 q 665 1296 665 1317 l 665 1226 q 653 1194 665 1206 l 596 1139 q 564 1125 587 1125 l 494 1125 q 461 1139 475 1125 l 406 1194 q 393 1226 393 1206 l 393 1255 l 371 1278 l 349 1278 m 754 764 l 754 62 q 736 18 754 37 q 692 0 718 0 q 647 18 666 0 q 628 62 628 37 l 628 329 q 610 373 628 355 q 566 392 591 392 l 325 392 q 281 373 299 392 q 262 329 262 355 l 262 62 q 243 18 262 37 q 199 0 224 0 q 155 18 173 0 q 136 62 136 37 l 136 764 q 154 808 136 791 l 300 953 q 345 972 317 972 l 546 972 q 590 954 572 972 l 734 808 q 754 764 754 791 m 628 581 l 628 717 q 614 751 628 737 l 533 832 q 498 846 519 846 l 392 846 q 357 832 370 846 l 277 751 q 262 717 262 737 l 262 581 q 281 536 262 555 q 325 518 299 518 l 566 518 q 610 536 591 518 q 628 581 628 555 z "},"":{"ha":888,"x_min":136,"x_max":754,"o":"m 581 1139 l 553 1139 q 509 1157 527 1139 q 490 1202 490 1176 l 490 1229 q 509 1273 490 1255 q 553 1292 527 1292 l 581 1292 q 625 1273 606 1292 q 643 1229 643 1255 l 643 1202 q 625 1157 643 1176 q 581 1139 606 1139 m 338 1139 l 310 1139 q 266 1157 284 1139 q 248 1202 248 1176 l 248 1229 q 266 1273 248 1255 q 310 1292 284 1292 l 338 1292 q 382 1273 363 1292 q 400 1229 400 1255 l 400 1202 q 382 1157 400 1176 q 338 1139 363 1139 m 754 764 l 754 62 q 736 18 754 37 q 692 0 718 0 q 647 18 666 0 q 628 62 628 37 l 628 329 q 610 373 628 355 q 566 392 591 392 l 325 392 q 281 373 299 392 q 262 329 262 355 l 262 62 q 243 18 262 37 q 199 0 224 0 q 155 18 173 0 q 136 62 136 37 l 136 764 q 154 808 136 791 l 300 953 q 345 972 317 972 l 546 972 q 590 954 572 972 l 734 808 q 754 764 754 791 m 628 581 l 628 717 q 614 751 628 737 l 533 832 q 498 846 519 846 l 392 846 q 357 832 370 846 l 277 751 q 262 717 262 737 l 262 581 q 281 536 262 555 q 325 518 299 518 l 566 518 q 610 536 591 518 q 628 581 628 555 z "},"":{"ha":888,"x_min":136,"x_max":754,"o":"m 290 1181 l 290 1265 q 301 1293 290 1282 l 374 1367 q 403 1378 390 1378 l 486 1378 q 515 1367 504 1378 l 587 1293 q 599 1265 599 1282 l 599 1181 q 587 1153 599 1164 l 515 1080 q 486 1069 505 1069 l 403 1069 q 374 1080 389 1069 l 301 1153 q 290 1181 290 1168 m 410 1274 l 395 1258 q 380 1223 380 1244 q 395 1189 380 1203 l 410 1174 q 444 1160 424 1160 q 479 1174 465 1160 l 494 1189 q 509 1223 509 1203 q 494 1258 509 1244 l 479 1274 q 444 1287 466 1287 q 410 1274 423 1287 m 754 764 l 754 62 q 736 18 754 37 q 692 0 718 0 q 647 18 666 0 q 628 62 628 37 l 628 329 q 610 373 628 355 q 566 392 591 392 l 325 392 q 281 373 299 392 q 262 329 262 355 l 262 62 q 243 18 262 37 q 199 0 224 0 q 155 18 173 0 q 136 62 136 37 l 136 764 q 154 808 136 791 l 300 953 q 345 972 317 972 l 546 972 q 590 954 572 972 l 734 808 q 754 764 754 791 m 628 581 l 628 717 q 614 751 628 737 l 533 832 q 498 846 519 846 l 392 846 q 357 832 370 846 l 277 751 q 262 717 262 737 l 262 581 q 281 536 262 555 q 325 518 299 518 l 566 518 q 610 536 591 518 q 628 581 628 555 z "},"":{"ha":888,"x_min":109,"x_max":782,"o":"m 382 539 l 382 827 q 361 846 382 846 q 329 832 342 846 l 250 753 q 235 717 235 737 l 235 581 q 253 536 235 555 q 297 518 271 518 l 361 518 q 382 539 382 518 m 382 62 l 382 371 q 361 392 382 392 l 297 392 q 253 373 271 392 q 235 329 235 355 l 235 62 q 216 18 235 37 q 171 0 197 0 q 127 18 145 0 q 109 62 109 37 l 109 764 q 126 808 109 791 l 272 953 q 317 972 290 972 l 720 972 q 764 954 745 972 q 782 909 782 935 q 764 865 782 884 q 720 846 745 846 l 571 846 q 527 827 545 846 q 509 783 509 809 l 509 612 q 527 568 509 587 q 571 549 545 549 l 692 549 q 736 530 718 549 q 754 486 754 512 q 736 441 754 460 q 692 422 718 422 l 571 422 q 527 404 545 422 q 509 359 509 385 l 509 189 q 527 145 509 163 q 571 126 545 126 l 720 126 q 764 107 745 126 q 782 62 782 88 q 764 18 782 37 q 720 0 745 0 l 444 0 q 400 18 418 0 q 382 62 382 37 z "},"":{"ha":888,"x_min":136,"x_max":754,"o":"m 262 717 l 262 256 q 277 221 262 235 l 357 140 q 392 126 371 126 l 498 126 q 533 140 519 126 l 614 221 q 628 256 628 235 l 628 297 q 647 342 628 323 q 692 361 666 361 q 736 342 718 361 q 754 297 754 323 l 754 208 q 734 164 754 182 l 590 18 q 546 0 572 0 l 345 0 q 298 20 318 0 l 154 164 q 136 208 136 182 l 136 764 q 154 808 136 791 l 298 953 q 345 972 318 972 l 546 972 q 590 954 572 972 l 734 808 q 754 764 754 791 l 754 675 q 736 630 754 649 q 692 611 718 611 q 647 630 666 611 q 628 675 628 649 l 628 717 q 614 751 628 737 l 533 832 q 498 846 519 846 l 392 846 q 357 832 370 846 l 277 751 q 262 717 262 737 m 400 -60 l 400 56 q 413 87 400 75 q 446 100 426 100 q 478 87 465 100 q 490 56 490 75 l 490 -22 q 505 -58 490 -43 l 589 -140 q 600 -168 600 -157 l 600 -253 q 589 -281 600 -269 l 515 -353 q 488 -366 505 -366 l 403 -366 q 375 -353 386 -366 l 338 -315 q 323 -283 323 -301 q 337 -251 323 -264 q 370 -239 350 -239 q 401 -252 389 -239 l 410 -260 q 446 -275 425 -275 q 482 -260 467 -275 l 494 -248 q 510 -211 510 -232 q 494 -175 510 -191 l 415 -96 q 400 -60 400 -81 z "},"":{"ha":888,"x_min":136,"x_max":754,"o":"m 457 1143 l 343 1257 q 325 1301 325 1275 q 343 1345 325 1327 q 387 1364 361 1364 q 433 1346 416 1364 l 546 1232 q 566 1187 566 1213 q 547 1143 566 1162 q 501 1125 528 1125 q 457 1143 475 1125 m 136 62 l 136 909 q 155 954 136 935 q 199 972 173 972 l 692 972 q 736 954 718 972 q 754 909 754 935 q 736 865 754 884 q 692 846 718 846 l 325 846 q 281 827 299 846 q 262 783 262 809 l 262 612 q 281 568 262 587 q 325 549 299 549 l 597 549 q 642 530 623 549 q 661 486 661 512 q 642 441 661 460 q 597 422 623 422 l 325 422 q 281 404 299 422 q 262 358 262 385 l 262 189 q 281 145 262 163 q 325 126 299 126 l 692 126 q 736 107 718 126 q 754 62 754 88 q 736 18 754 37 q 692 0 718 0 l 199 0 q 155 18 173 0 q 136 62 136 37 z "},"":{"ha":888,"x_min":136,"x_max":754,"o":"m 546 1257 l 433 1143 q 389 1125 415 1125 q 344 1143 363 1125 q 325 1187 325 1162 q 345 1232 325 1213 l 457 1346 q 501 1364 475 1364 q 547 1345 528 1364 q 566 1301 566 1327 q 546 1257 566 1274 m 136 62 l 136 909 q 155 954 136 935 q 199 972 173 972 l 692 972 q 736 954 718 972 q 754 909 754 935 q 736 865 754 884 q 692 846 718 846 l 325 846 q 281 827 299 846 q 262 783 262 809 l 262 612 q 281 568 262 587 q 325 549 299 549 l 597 549 q 642 530 623 549 q 661 486 661 512 q 642 441 661 460 q 597 422 623 422 l 325 422 q 281 404 299 422 q 262 358 262 385 l 262 189 q 281 145 262 163 q 325 126 299 126 l 692 126 q 736 107 718 126 q 754 62 754 88 q 736 18 754 37 q 692 0 718 0 l 199 0 q 155 18 173 0 q 136 62 136 37 z "},"":{"ha":888,"x_min":136,"x_max":754,"o":"m 406 1190 l 354 1140 q 315 1125 341 1125 q 276 1140 292 1125 q 260 1179 260 1156 q 277 1219 260 1202 l 406 1348 q 444 1364 420 1364 q 484 1348 467 1364 l 612 1219 q 628 1179 628 1204 q 613 1140 628 1156 q 574 1125 597 1125 q 533 1140 548 1125 l 484 1190 q 444 1207 467 1207 q 406 1190 420 1207 m 136 62 l 136 909 q 155 954 136 935 q 199 972 173 972 l 692 972 q 736 954 718 972 q 754 909 754 935 q 736 865 754 884 q 692 846 718 846 l 325 846 q 281 827 299 846 q 262 783 262 809 l 262 612 q 281 568 262 587 q 325 549 299 549 l 597 549 q 642 530 623 549 q 661 486 661 512 q 642 441 661 460 q 597 422 623 422 l 325 422 q 281 404 299 422 q 262 358 262 385 l 262 189 q 281 145 262 163 q 325 126 299 126 l 692 126 q 736 107 718 126 q 754 62 754 88 q 736 18 754 37 q 692 0 718 0 l 199 0 q 155 18 173 0 q 136 62 136 37 z "},"":{"ha":888,"x_min":136,"x_max":754,"o":"m 581 1139 l 553 1139 q 509 1157 527 1139 q 490 1202 490 1176 l 490 1229 q 509 1273 490 1255 q 553 1292 527 1292 l 581 1292 q 625 1273 606 1292 q 643 1229 643 1255 l 643 1202 q 625 1157 643 1176 q 581 1139 606 1139 m 338 1139 l 310 1139 q 266 1157 284 1139 q 248 1202 248 1176 l 248 1229 q 266 1273 248 1255 q 310 1292 284 1292 l 338 1292 q 382 1273 363 1292 q 400 1229 400 1255 l 400 1202 q 382 1157 400 1176 q 338 1139 363 1139 m 136 62 l 136 909 q 155 954 136 935 q 199 972 173 972 l 692 972 q 736 954 718 972 q 754 909 754 935 q 736 865 754 884 q 692 846 718 846 l 325 846 q 281 827 299 846 q 262 783 262 809 l 262 612 q 281 568 262 587 q 325 549 299 549 l 597 549 q 642 530 623 549 q 661 486 661 512 q 642 441 661 460 q 597 422 623 422 l 325 422 q 281 404 299 422 q 262 358 262 385 l 262 189 q 281 145 262 163 q 325 126 299 126 l 692 126 q 736 107 718 126 q 754 62 754 88 q 736 18 754 37 q 692 0 718 0 l 199 0 q 155 18 173 0 q 136 62 136 37 z "},"":{"ha":888,"x_min":199,"x_max":692,"o":"m 457 1143 l 343 1257 q 325 1301 325 1275 q 343 1345 325 1327 q 387 1364 361 1364 q 433 1346 416 1364 l 546 1232 q 566 1187 566 1213 q 547 1143 566 1162 q 501 1125 528 1125 q 457 1143 475 1125 m 629 0 l 261 0 q 217 18 235 0 q 199 62 199 37 q 217 107 199 88 q 261 126 235 126 l 319 126 q 363 145 345 126 q 382 189 382 163 l 382 783 q 363 827 382 809 q 319 846 345 846 l 261 846 q 217 865 235 846 q 199 909 199 884 q 217 954 199 935 q 261 972 235 972 l 629 972 q 673 954 655 972 q 692 909 692 935 q 673 865 692 884 q 629 846 655 846 l 571 846 q 527 827 545 846 q 509 783 509 809 l 509 189 q 527 145 509 163 q 571 126 545 126 l 629 126 q 673 107 655 126 q 692 62 692 88 q 673 18 692 37 q 629 0 655 0 z "},"":{"ha":888,"x_min":199,"x_max":692,"o":"m 546 1257 l 433 1143 q 389 1125 415 1125 q 344 1143 363 1125 q 325 1187 325 1162 q 345 1232 325 1213 l 457 1346 q 501 1364 475 1364 q 547 1345 528 1364 q 566 1301 566 1327 q 546 1257 566 1274 m 629 0 l 261 0 q 217 18 235 0 q 199 62 199 37 q 217 107 199 88 q 261 126 235 126 l 319 126 q 363 145 345 126 q 382 189 382 163 l 382 783 q 363 827 382 809 q 319 846 345 846 l 261 846 q 217 865 235 846 q 199 909 199 884 q 217 954 199 935 q 261 972 235 972 l 629 972 q 673 954 655 972 q 692 909 692 935 q 673 865 692 884 q 629 846 655 846 l 571 846 q 527 827 545 846 q 509 783 509 809 l 509 189 q 527 145 509 163 q 571 126 545 126 l 629 126 q 673 107 655 126 q 692 62 692 88 q 673 18 692 37 q 629 0 655 0 z "},"":{"ha":888,"x_min":199,"x_max":692,"o":"m 406 1190 l 354 1140 q 315 1125 341 1125 q 276 1140 292 1125 q 260 1179 260 1156 q 277 1219 260 1202 l 406 1348 q 444 1364 420 1364 q 484 1348 467 1364 l 612 1219 q 628 1179 628 1204 q 613 1140 628 1156 q 574 1125 597 1125 q 533 1140 548 1125 l 484 1190 q 444 1207 467 1207 q 406 1190 420 1207 m 629 0 l 261 0 q 217 18 235 0 q 199 62 199 37 q 217 107 199 88 q 261 126 235 126 l 319 126 q 363 145 345 126 q 382 189 382 163 l 382 783 q 363 827 382 809 q 319 846 345 846 l 261 846 q 217 865 235 846 q 199 909 199 884 q 217 954 199 935 q 261 972 235 972 l 629 972 q 673 954 655 972 q 692 909 692 935 q 673 865 692 884 q 629 846 655 846 l 571 846 q 527 827 545 846 q 509 783 509 809 l 509 189 q 527 145 509 163 q 571 126 545 126 l 629 126 q 673 107 655 126 q 692 62 692 88 q 673 18 692 37 q 629 0 655 0 z "},"":{"ha":888,"x_min":199,"x_max":692,"o":"m 581 1139 l 553 1139 q 509 1157 527 1139 q 490 1202 490 1176 l 490 1229 q 509 1273 490 1255 q 553 1292 527 1292 l 581 1292 q 625 1273 606 1292 q 643 1229 643 1255 l 643 1202 q 625 1157 643 1176 q 581 1139 606 1139 m 338 1139 l 310 1139 q 266 1157 284 1139 q 248 1202 248 1176 l 248 1229 q 266 1273 248 1255 q 310 1292 284 1292 l 338 1292 q 382 1273 363 1292 q 400 1229 400 1255 l 400 1202 q 382 1157 400 1176 q 338 1139 363 1139 m 629 0 l 261 0 q 217 18 235 0 q 199 62 199 37 q 217 107 199 88 q 261 126 235 126 l 319 126 q 363 145 345 126 q 382 189 382 163 l 382 783 q 363 827 382 809 q 319 846 345 846 l 261 846 q 217 865 235 846 q 199 909 199 884 q 217 954 199 935 q 261 972 235 972 l 629 972 q 673 954 655 972 q 692 909 692 935 q 673 865 692 884 q 629 846 655 846 l 571 846 q 527 827 545 846 q 509 783 509 809 l 509 189 q 527 145 509 163 q 571 126 545 126 l 629 126 q 673 107 655 126 q 692 62 692 88 q 673 18 692 37 q 629 0 655 0 z "},"":{"ha":888,"x_min":39,"x_max":754,"o":"m 136 571 l 136 909 q 155 954 136 935 q 199 972 173 972 l 546 972 q 590 954 572 972 l 734 808 q 754 764 754 791 l 754 208 q 734 164 754 182 l 590 18 q 546 0 572 0 l 199 0 q 155 18 173 0 q 136 62 136 37 l 136 403 q 115 424 136 424 l 102 424 q 57 442 75 424 q 39 488 39 460 q 57 532 39 513 q 102 550 76 550 l 115 550 q 136 571 136 550 m 262 403 l 262 189 q 281 145 262 163 q 325 126 299 126 l 498 126 q 533 140 519 126 l 614 221 q 628 256 628 235 l 628 717 q 614 751 628 737 l 533 832 q 498 846 519 846 l 325 846 q 281 827 299 846 q 262 783 262 809 l 262 571 q 283 550 262 550 l 476 550 q 520 532 502 550 q 539 488 539 513 q 521 442 539 460 q 476 424 503 424 l 283 424 q 262 403 262 424 z "},"":{"ha":888,"x_min":136,"x_max":754,"o":"m 349 1278 l 328 1255 l 328 1211 q 312 1174 328 1190 q 275 1158 297 1158 q 239 1174 254 1158 q 224 1211 224 1190 l 224 1280 q 237 1312 224 1299 l 293 1368 q 325 1382 307 1382 l 395 1382 q 428 1368 414 1382 l 484 1312 q 496 1280 496 1298 l 496 1250 l 518 1229 l 541 1229 l 561 1250 l 561 1296 q 576 1332 561 1317 q 614 1348 592 1348 q 650 1332 635 1348 q 665 1296 665 1317 l 665 1226 q 653 1194 665 1206 l 596 1139 q 564 1125 587 1125 l 494 1125 q 461 1139 475 1125 l 406 1194 q 393 1226 393 1206 l 393 1255 l 371 1278 l 349 1278 m 254 940 l 618 315 q 625 309 623 309 q 628 318 628 309 l 628 909 q 647 954 628 935 q 692 972 666 972 q 736 954 718 972 q 754 909 754 935 l 754 62 q 736 18 754 37 q 692 0 718 0 q 636 32 654 0 l 272 659 q 265 665 270 665 q 262 656 262 665 l 262 62 q 243 18 262 37 q 199 0 224 0 q 155 18 173 0 q 136 62 136 37 l 136 909 q 155 954 136 935 q 199 972 173 972 q 254 940 235 972 z "},"":{"ha":888,"x_min":136,"x_max":754,"o":"m 457 1143 l 343 1257 q 325 1301 325 1275 q 343 1345 325 1327 q 387 1364 361 1364 q 433 1346 416 1364 l 546 1232 q 566 1187 566 1213 q 547 1143 566 1162 q 501 1125 528 1125 q 457 1143 475 1125 m 619 953 l 736 838 q 754 793 754 819 l 754 179 q 736 135 754 153 l 619 20 q 574 0 602 0 l 315 0 q 271 20 288 0 l 154 135 q 136 179 136 153 l 136 793 q 154 838 136 820 l 271 953 q 315 972 288 972 l 574 972 q 619 953 602 972 m 562 140 l 614 192 q 628 227 628 206 l 628 746 q 614 781 628 766 l 562 832 q 528 846 549 846 l 363 846 q 328 832 341 846 l 277 781 q 262 746 262 766 l 262 227 q 277 192 262 206 l 328 140 q 363 126 342 126 l 528 126 q 562 140 548 126 z "},"":{"ha":888,"x_min":136,"x_max":754,"o":"m 546 1257 l 433 1143 q 389 1125 415 1125 q 344 1143 363 1125 q 325 1187 325 1162 q 345 1232 325 1213 l 457 1346 q 501 1364 475 1364 q 547 1345 528 1364 q 566 1301 566 1327 q 546 1257 566 1274 m 619 953 l 736 838 q 754 793 754 819 l 754 179 q 736 135 754 153 l 619 20 q 574 0 602 0 l 315 0 q 271 20 288 0 l 154 135 q 136 179 136 153 l 136 793 q 154 838 136 820 l 271 953 q 315 972 288 972 l 574 972 q 619 953 602 972 m 562 140 l 614 192 q 628 227 628 206 l 628 746 q 614 781 628 766 l 562 832 q 528 846 549 846 l 363 846 q 328 832 341 846 l 277 781 q 262 746 262 766 l 262 227 q 277 192 262 206 l 328 140 q 363 126 342 126 l 528 126 q 562 140 548 126 z "},"":{"ha":888,"x_min":136,"x_max":754,"o":"m 406 1190 l 354 1140 q 315 1125 341 1125 q 276 1140 292 1125 q 260 1179 260 1156 q 277 1219 260 1202 l 406 1348 q 444 1364 420 1364 q 484 1348 467 1364 l 612 1219 q 628 1179 628 1204 q 613 1140 628 1156 q 574 1125 597 1125 q 533 1140 548 1125 l 484 1190 q 444 1207 467 1207 q 406 1190 420 1207 m 619 953 l 736 838 q 754 793 754 819 l 754 179 q 736 135 754 153 l 619 20 q 574 0 602 0 l 315 0 q 271 20 288 0 l 154 135 q 136 179 136 153 l 136 793 q 154 838 136 820 l 271 953 q 315 972 288 972 l 574 972 q 619 953 602 972 m 562 140 l 614 192 q 628 227 628 206 l 628 746 q 614 781 628 766 l 562 832 q 528 846 549 846 l 363 846 q 328 832 341 846 l 277 781 q 262 746 262 766 l 262 227 q 277 192 262 206 l 328 140 q 363 126 342 126 l 528 126 q 562 140 548 126 z "},"":{"ha":888,"x_min":136,"x_max":754,"o":"m 349 1278 l 328 1255 l 328 1211 q 312 1174 328 1190 q 275 1158 297 1158 q 239 1174 254 1158 q 224 1211 224 1190 l 224 1280 q 237 1312 224 1299 l 293 1368 q 325 1382 307 1382 l 395 1382 q 428 1368 414 1382 l 484 1312 q 496 1280 496 1298 l 496 1250 l 518 1229 l 541 1229 l 561 1250 l 561 1296 q 576 1332 561 1317 q 614 1348 592 1348 q 650 1332 635 1348 q 665 1296 665 1317 l 665 1226 q 653 1194 665 1206 l 596 1139 q 564 1125 587 1125 l 494 1125 q 461 1139 475 1125 l 406 1194 q 393 1226 393 1206 l 393 1255 l 371 1278 l 349 1278 m 619 953 l 736 838 q 754 793 754 819 l 754 179 q 736 135 754 153 l 619 20 q 574 0 602 0 l 315 0 q 271 20 288 0 l 154 135 q 136 179 136 153 l 136 793 q 154 838 136 820 l 271 953 q 315 972 288 972 l 574 972 q 619 953 602 972 m 562 140 l 614 192 q 628 227 628 206 l 628 746 q 614 781 628 766 l 562 832 q 528 846 549 846 l 363 846 q 328 832 341 846 l 277 781 q 262 746 262 766 l 262 227 q 277 192 262 206 l 328 140 q 363 126 342 126 l 528 126 q 562 140 548 126 z "},"":{"ha":888,"x_min":136,"x_max":754,"o":"m 581 1139 l 553 1139 q 509 1157 527 1139 q 490 1202 490 1176 l 490 1229 q 509 1273 490 1255 q 553 1292 527 1292 l 581 1292 q 625 1273 606 1292 q 643 1229 643 1255 l 643 1202 q 625 1157 643 1176 q 581 1139 606 1139 m 338 1139 l 310 1139 q 266 1157 284 1139 q 248 1202 248 1176 l 248 1229 q 266 1273 248 1255 q 310 1292 284 1292 l 338 1292 q 382 1273 363 1292 q 400 1229 400 1255 l 400 1202 q 382 1157 400 1176 q 338 1139 363 1139 m 619 953 l 736 838 q 754 793 754 819 l 754 179 q 736 135 754 153 l 619 20 q 574 0 602 0 l 315 0 q 271 20 288 0 l 154 135 q 136 179 136 153 l 136 793 q 154 838 136 820 l 271 953 q 315 972 288 972 l 574 972 q 619 953 602 972 m 562 140 l 614 192 q 628 227 628 206 l 628 746 q 614 781 628 766 l 562 832 q 528 846 549 846 l 363 846 q 328 832 341 846 l 277 781 q 262 746 262 766 l 262 227 q 277 192 262 206 l 328 140 q 363 126 342 126 l 528 126 q 562 140 548 126 z "},"":{"ha":888,"x_min":195,"x_max":696,"o":"m 579 441 l 676 345 q 696 300 696 325 q 677 256 696 275 q 632 236 657 236 q 586 256 606 236 l 489 353 q 446 372 469 372 q 401 353 421 372 l 302 254 q 258 235 283 235 q 214 255 233 235 q 195 300 195 275 q 212 343 195 326 l 311 441 q 330 486 330 460 q 311 530 330 511 l 212 629 q 195 672 195 647 q 214 718 195 698 q 258 737 233 737 q 302 718 283 737 l 401 619 q 446 602 419 602 q 489 619 471 602 l 587 718 q 632 737 606 737 q 676 718 656 738 q 696 673 696 699 q 676 629 696 649 l 579 530 q 561 486 561 512 q 579 441 561 460 z "},"":{"ha":888,"x_min":41,"x_max":847,"o":"m 562 142 l 612 191 q 628 227 628 206 l 628 558 q 623 570 628 570 q 612 564 618 570 l 277 229 q 267 207 267 219 q 271 196 267 200 l 326 142 q 363 126 342 126 l 526 126 q 562 142 547 126 m 326 831 l 277 782 q 261 746 261 766 l 261 414 q 267 403 261 403 q 277 408 271 403 l 612 743 q 623 765 623 753 q 618 777 623 772 l 562 831 q 526 846 547 846 l 363 846 q 326 831 341 846 m 734 867 l 739 871 q 785 889 758 889 q 829 871 810 889 q 847 827 847 852 q 829 782 847 798 l 770 721 q 754 685 754 705 l 754 180 q 734 135 754 155 l 618 20 q 574 0 600 0 l 315 0 q 271 20 288 0 l 183 106 q 168 113 176 113 q 154 106 161 113 l 150 102 q 104 83 132 83 q 60 102 79 83 q 41 146 41 120 q 60 192 41 174 l 119 252 q 135 288 135 267 l 135 793 q 154 838 135 819 l 271 953 q 315 972 288 972 l 574 972 q 618 953 600 972 l 705 867 q 721 860 712 860 q 734 867 728 860 z "},"":{"ha":888,"x_min":136,"x_max":754,"o":"m 457 1143 l 343 1257 q 325 1301 325 1275 q 343 1345 325 1327 q 387 1364 361 1364 q 433 1346 416 1364 l 546 1232 q 566 1187 566 1213 q 547 1143 566 1162 q 501 1125 528 1125 q 457 1143 475 1125 m 262 909 l 262 227 q 277 192 262 206 l 328 140 q 363 126 342 126 l 528 126 q 562 140 548 126 l 614 192 q 628 227 628 206 l 628 909 q 647 954 628 935 q 692 972 666 972 q 736 954 718 972 q 754 909 754 935 l 754 179 q 736 135 754 153 l 619 20 q 574 0 602 0 l 315 0 q 271 20 288 0 l 154 135 q 136 179 136 153 l 136 909 q 155 954 136 935 q 199 972 173 972 q 243 954 224 972 q 262 909 262 935 z "},"":{"ha":888,"x_min":136,"x_max":754,"o":"m 546 1257 l 433 1143 q 389 1125 415 1125 q 344 1143 363 1125 q 325 1187 325 1162 q 345 1232 325 1213 l 457 1346 q 501 1364 475 1364 q 547 1345 528 1364 q 566 1301 566 1327 q 546 1257 566 1274 m 262 909 l 262 227 q 277 192 262 206 l 328 140 q 363 126 342 126 l 528 126 q 562 140 548 126 l 614 192 q 628 227 628 206 l 628 909 q 647 954 628 935 q 692 972 666 972 q 736 954 718 972 q 754 909 754 935 l 754 179 q 736 135 754 153 l 619 20 q 574 0 602 0 l 315 0 q 271 20 288 0 l 154 135 q 136 179 136 153 l 136 909 q 155 954 136 935 q 199 972 173 972 q 243 954 224 972 q 262 909 262 935 z "},"":{"ha":888,"x_min":136,"x_max":754,"o":"m 406 1190 l 354 1140 q 315 1125 341 1125 q 276 1140 292 1125 q 260 1179 260 1156 q 277 1219 260 1202 l 406 1348 q 444 1364 420 1364 q 484 1348 467 1364 l 612 1219 q 628 1179 628 1204 q 613 1140 628 1156 q 574 1125 597 1125 q 533 1140 548 1125 l 484 1190 q 444 1207 467 1207 q 406 1190 420 1207 m 262 909 l 262 227 q 277 192 262 206 l 328 140 q 363 126 342 126 l 528 126 q 562 140 548 126 l 614 192 q 628 227 628 206 l 628 909 q 647 954 628 935 q 692 972 666 972 q 736 954 718 972 q 754 909 754 935 l 754 179 q 736 135 754 153 l 619 20 q 574 0 602 0 l 315 0 q 271 20 288 0 l 154 135 q 136 179 136 153 l 136 909 q 155 954 136 935 q 199 972 173 972 q 243 954 224 972 q 262 909 262 935 z "},"":{"ha":888,"x_min":136,"x_max":754,"o":"m 581 1139 l 553 1139 q 509 1157 527 1139 q 490 1202 490 1176 l 490 1229 q 509 1273 490 1255 q 553 1292 527 1292 l 581 1292 q 625 1273 606 1292 q 643 1229 643 1255 l 643 1202 q 625 1157 643 1176 q 581 1139 606 1139 m 338 1139 l 310 1139 q 266 1157 284 1139 q 248 1202 248 1176 l 248 1229 q 266 1273 248 1255 q 310 1292 284 1292 l 338 1292 q 382 1273 363 1292 q 400 1229 400 1255 l 400 1202 q 382 1157 400 1176 q 338 1139 363 1139 m 262 909 l 262 227 q 277 192 262 206 l 328 140 q 363 126 342 126 l 528 126 q 562 140 548 126 l 614 192 q 628 227 628 206 l 628 909 q 647 954 628 935 q 692 972 666 972 q 736 954 718 972 q 754 909 754 935 l 754 179 q 736 135 754 153 l 619 20 q 574 0 602 0 l 315 0 q 271 20 288 0 l 154 135 q 136 179 136 153 l 136 909 q 155 954 136 935 q 199 972 173 972 q 243 954 224 972 q 262 909 262 935 z "},"":{"ha":888,"x_min":136,"x_max":754,"o":"m 546 1257 l 433 1143 q 389 1125 415 1125 q 344 1143 363 1125 q 325 1187 325 1162 q 345 1232 325 1213 l 457 1346 q 501 1364 475 1364 q 547 1345 528 1364 q 566 1301 566 1327 q 546 1257 566 1274 m 368 416 l 155 629 q 136 675 136 648 l 136 909 q 155 954 136 935 q 199 972 173 972 q 243 954 224 972 q 262 909 262 935 l 262 722 q 277 688 262 702 l 400 562 q 444 545 418 545 q 490 562 473 545 l 614 688 q 628 722 628 702 l 628 909 q 647 954 628 935 q 692 972 666 972 q 736 954 718 972 q 754 909 754 935 l 754 675 q 734 629 754 649 l 522 416 q 509 382 509 403 l 509 62 q 490 18 509 36 q 444 0 472 0 q 400 18 418 0 q 382 62 382 37 l 382 382 q 368 416 382 403 z "},"":{"ha":888,"x_min":136,"x_max":754,"o":"m 628 395 l 628 578 q 614 612 628 598 l 533 693 q 498 707 519 707 l 325 707 q 281 688 299 707 q 262 644 262 670 l 262 328 q 281 283 262 302 q 325 265 299 265 l 498 265 q 533 279 519 265 l 614 359 q 628 395 628 374 m 136 62 l 136 909 q 155 954 136 935 q 199 972 173 972 q 244 954 227 972 q 262 909 262 936 l 262 896 q 281 852 262 870 q 325 833 299 833 l 546 833 q 590 815 572 833 l 734 669 q 754 625 754 652 l 754 347 q 734 302 754 320 l 590 157 q 546 139 572 139 l 325 139 q 281 121 299 139 q 262 77 262 102 l 262 62 q 244 18 262 36 q 199 0 227 0 q 155 18 173 0 q 136 62 136 37 z "},"":{"ha":888,"x_min":136,"x_max":754,"o":"m 262 746 l 262 -40 q 243 -84 262 -66 q 199 -103 224 -103 q 155 -84 173 -103 q 136 -40 136 -66 l 136 793 q 154 838 136 820 l 271 953 q 315 972 288 972 l 534 972 q 579 953 562 972 l 696 838 q 714 793 714 819 l 714 643 q 696 599 714 617 l 668 571 q 650 526 650 553 q 668 482 650 500 l 736 414 q 754 370 754 395 l 754 180 q 736 135 754 153 l 619 20 q 575 0 602 0 l 397 0 q 353 18 372 0 q 335 62 335 37 q 353 107 335 88 q 397 126 372 126 l 528 126 q 564 142 548 126 l 612 191 q 628 227 628 206 l 628 322 q 612 358 628 342 l 490 482 q 471 526 471 502 q 490 571 471 551 l 572 654 q 587 690 587 669 l 587 746 q 572 782 587 767 l 524 831 q 488 846 509 846 l 363 846 q 326 831 341 846 l 278 782 q 262 746 262 766 z "},"":{"ha":888,"x_min":136,"x_max":754,"o":"m 754 764 l 754 62 q 736 18 754 37 q 692 0 718 0 q 647 18 666 0 q 628 62 628 37 l 628 329 q 610 373 628 355 q 566 392 591 392 l 325 392 q 281 373 299 392 q 262 329 262 355 l 262 62 q 243 18 262 37 q 199 0 224 0 q 155 18 173 0 q 136 62 136 37 l 136 764 q 154 808 136 791 l 300 953 q 345 972 317 972 l 546 972 q 590 954 572 972 l 734 808 q 754 764 754 791 m 628 581 l 628 717 q 614 751 628 737 l 533 832 q 498 846 519 846 l 392 846 q 357 832 370 846 l 277 751 q 262 717 262 737 l 262 581 q 281 536 262 555 q 325 518 299 518 l 566 518 q 610 536 591 518 q 628 581 628 555 m 457 1143 l 343 1257 q 325 1301 325 1275 q 343 1345 325 1327 q 387 1364 361 1364 q 433 1346 416 1364 l 546 1232 q 566 1187 566 1213 q 547 1143 566 1162 q 501 1125 528 1125 q 457 1143 475 1125 z "},"":{"ha":888,"x_min":136,"x_max":754,"o":"m 754 764 l 754 62 q 736 18 754 37 q 692 0 718 0 q 647 18 666 0 q 628 62 628 37 l 628 329 q 610 373 628 355 q 566 392 591 392 l 325 392 q 281 373 299 392 q 262 329 262 355 l 262 62 q 243 18 262 37 q 199 0 224 0 q 155 18 173 0 q 136 62 136 37 l 136 764 q 154 808 136 791 l 300 953 q 345 972 317 972 l 546 972 q 590 954 572 972 l 734 808 q 754 764 754 791 m 628 581 l 628 717 q 614 751 628 737 l 533 832 q 498 846 519 846 l 392 846 q 357 832 370 846 l 277 751 q 262 717 262 737 l 262 581 q 281 536 262 555 q 325 518 299 518 l 566 518 q 610 536 591 518 q 628 581 628 555 m 546 1257 l 433 1143 q 389 1125 415 1125 q 344 1143 363 1125 q 325 1187 325 1162 q 345 1232 325 1213 l 457 1346 q 501 1364 475 1364 q 547 1345 528 1364 q 566 1301 566 1327 q 546 1257 566 1274 z "},"":{"ha":888,"x_min":136,"x_max":754,"o":"m 754 764 l 754 62 q 736 18 754 37 q 692 0 718 0 q 647 18 666 0 q 628 62 628 37 l 628 329 q 610 373 628 355 q 566 392 591 392 l 325 392 q 281 373 299 392 q 262 329 262 355 l 262 62 q 243 18 262 37 q 199 0 224 0 q 155 18 173 0 q 136 62 136 37 l 136 764 q 154 808 136 791 l 300 953 q 345 972 317 972 l 546 972 q 590 954 572 972 l 734 808 q 754 764 754 791 m 628 581 l 628 717 q 614 751 628 737 l 533 832 q 498 846 519 846 l 392 846 q 357 832 370 846 l 277 751 q 262 717 262 737 l 262 581 q 281 536 262 555 q 325 518 299 518 l 566 518 q 610 536 591 518 q 628 581 628 555 m 406 1190 l 354 1140 q 315 1125 341 1125 q 276 1140 292 1125 q 260 1179 260 1156 q 277 1219 260 1202 l 406 1348 q 444 1364 420 1364 q 484 1348 467 1364 l 612 1219 q 628 1179 628 1204 q 613 1140 628 1156 q 574 1125 597 1125 q 533 1140 548 1125 l 484 1190 q 444 1207 467 1207 q 406 1190 420 1207 z "},"":{"ha":888,"x_min":136,"x_max":754,"o":"m 754 764 l 754 62 q 736 18 754 37 q 692 0 718 0 q 647 18 666 0 q 628 62 628 37 l 628 329 q 610 373 628 355 q 566 392 591 392 l 325 392 q 281 373 299 392 q 262 329 262 355 l 262 62 q 243 18 262 37 q 199 0 224 0 q 155 18 173 0 q 136 62 136 37 l 136 764 q 154 808 136 791 l 300 953 q 345 972 317 972 l 546 972 q 590 954 572 972 l 734 808 q 754 764 754 791 m 628 581 l 628 717 q 614 751 628 737 l 533 832 q 498 846 519 846 l 392 846 q 357 832 370 846 l 277 751 q 262 717 262 737 l 262 581 q 281 536 262 555 q 325 518 299 518 l 566 518 q 610 536 591 518 q 628 581 628 555 m 349 1278 l 328 1255 l 328 1211 q 312 1174 328 1190 q 275 1158 297 1158 q 239 1174 254 1158 q 224 1211 224 1190 l 224 1280 q 237 1312 224 1299 l 293 1368 q 325 1382 307 1382 l 395 1382 q 428 1368 414 1382 l 484 1312 q 496 1280 496 1298 l 496 1250 l 518 1229 l 541 1229 l 561 1250 l 561 1296 q 576 1332 561 1317 q 614 1348 592 1348 q 650 1332 635 1348 q 665 1296 665 1317 l 665 1226 q 653 1194 665 1206 l 596 1139 q 564 1125 587 1125 l 494 1125 q 461 1139 475 1125 l 406 1194 q 393 1226 393 1206 l 393 1255 l 371 1278 l 349 1278 z "},"":{"ha":888,"x_min":136,"x_max":754,"o":"m 754 764 l 754 62 q 736 18 754 37 q 692 0 718 0 q 647 18 666 0 q 628 62 628 37 l 628 329 q 610 373 628 355 q 566 392 591 392 l 325 392 q 281 373 299 392 q 262 329 262 355 l 262 62 q 243 18 262 37 q 199 0 224 0 q 155 18 173 0 q 136 62 136 37 l 136 764 q 154 808 136 791 l 300 953 q 345 972 317 972 l 546 972 q 590 954 572 972 l 734 808 q 754 764 754 791 m 628 581 l 628 717 q 614 751 628 737 l 533 832 q 498 846 519 846 l 392 846 q 357 832 370 846 l 277 751 q 262 717 262 737 l 262 581 q 281 536 262 555 q 325 518 299 518 l 566 518 q 610 536 591 518 q 628 581 628 555 m 581 1139 l 553 1139 q 509 1157 527 1139 q 490 1202 490 1176 l 490 1229 q 509 1273 490 1255 q 553 1292 527 1292 l 581 1292 q 625 1273 606 1292 q 643 1229 643 1255 l 643 1202 q 625 1157 643 1176 q 581 1139 606 1139 m 338 1139 l 310 1139 q 266 1157 284 1139 q 248 1202 248 1176 l 248 1229 q 266 1273 248 1255 q 310 1292 284 1292 l 338 1292 q 382 1273 363 1292 q 400 1229 400 1255 l 400 1202 q 382 1157 400 1176 q 338 1139 363 1139 z "},"":{"ha":888,"x_min":136,"x_max":754,"o":"m 754 764 l 754 62 q 736 18 754 37 q 692 0 718 0 q 647 18 666 0 q 628 62 628 37 l 628 329 q 610 373 628 355 q 566 392 591 392 l 325 392 q 281 373 299 392 q 262 329 262 355 l 262 62 q 243 18 262 37 q 199 0 224 0 q 155 18 173 0 q 136 62 136 37 l 136 764 q 154 808 136 791 l 300 953 q 345 972 317 972 l 546 972 q 590 954 572 972 l 734 808 q 754 764 754 791 m 628 581 l 628 717 q 614 751 628 737 l 533 832 q 498 846 519 846 l 392 846 q 357 832 370 846 l 277 751 q 262 717 262 737 l 262 581 q 281 536 262 555 q 325 518 299 518 l 566 518 q 610 536 591 518 q 628 581 628 555 m 290 1181 l 290 1265 q 301 1293 290 1282 l 374 1367 q 403 1378 390 1378 l 486 1378 q 515 1367 504 1378 l 587 1293 q 599 1265 599 1282 l 599 1181 q 587 1153 599 1164 l 515 1080 q 486 1069 505 1069 l 403 1069 q 374 1080 389 1069 l 301 1153 q 290 1181 290 1168 m 410 1274 l 395 1258 q 380 1223 380 1244 q 395 1189 380 1203 l 410 1174 q 444 1160 424 1160 q 479 1174 465 1160 l 494 1189 q 509 1223 509 1203 q 494 1258 509 1244 l 479 1274 q 444 1287 466 1287 q 410 1274 423 1287 z "},"":{"ha":888,"x_min":109,"x_max":782,"o":"m 382 539 l 382 827 q 361 846 382 846 q 329 832 342 846 l 250 753 q 235 717 235 737 l 235 581 q 253 536 235 555 q 297 518 271 518 l 361 518 q 382 539 382 518 m 382 62 l 382 371 q 361 392 382 392 l 297 392 q 253 373 271 392 q 235 329 235 355 l 235 62 q 216 18 235 37 q 171 0 197 0 q 127 18 145 0 q 109 62 109 37 l 109 764 q 126 808 109 791 l 272 953 q 317 972 290 972 l 720 972 q 764 954 745 972 q 782 909 782 935 q 764 865 782 884 q 720 846 745 846 l 571 846 q 527 827 545 846 q 509 783 509 809 l 509 612 q 527 568 509 587 q 571 549 545 549 l 692 549 q 736 530 718 549 q 754 486 754 512 q 736 441 754 460 q 692 422 718 422 l 571 422 q 527 404 545 422 q 509 359 509 385 l 509 189 q 527 145 509 163 q 571 126 545 126 l 720 126 q 764 107 745 126 q 782 62 782 88 q 764 18 782 37 q 720 0 745 0 l 444 0 q 400 18 418 0 q 382 62 382 37 z "},"":{"ha":888,"x_min":136,"x_max":754,"o":"m 262 717 l 262 256 q 277 221 262 235 l 357 140 q 392 126 371 126 l 498 126 q 533 140 519 126 l 614 221 q 628 256 628 235 l 628 297 q 647 342 628 323 q 692 361 666 361 q 736 342 718 361 q 754 297 754 323 l 754 208 q 734 164 754 182 l 590 18 q 546 0 572 0 l 345 0 q 298 20 318 0 l 154 164 q 136 208 136 182 l 136 764 q 154 808 136 791 l 298 953 q 345 972 318 972 l 546 972 q 590 954 572 972 l 734 808 q 754 764 754 791 l 754 675 q 736 630 754 649 q 692 611 718 611 q 647 630 666 611 q 628 675 628 649 l 628 717 q 614 751 628 737 l 533 832 q 498 846 519 846 l 392 846 q 357 832 370 846 l 277 751 q 262 717 262 737 m 400 -60 l 400 56 q 413 87 400 75 q 446 100 426 100 q 478 87 465 100 q 490 56 490 75 l 490 -22 q 505 -58 490 -43 l 589 -140 q 600 -168 600 -157 l 600 -253 q 589 -281 600 -269 l 515 -353 q 488 -366 505 -366 l 403 -366 q 375 -353 386 -366 l 338 -315 q 323 -283 323 -301 q 337 -251 323 -264 q 370 -239 350 -239 q 401 -252 389 -239 l 410 -260 q 446 -275 425 -275 q 482 -260 467 -275 l 494 -248 q 510 -211 510 -232 q 494 -175 510 -191 l 415 -96 q 400 -60 400 -81 z "},"":{"ha":888,"x_min":136,"x_max":754,"o":"m 136 62 l 136 909 q 155 954 136 935 q 199 972 173 972 l 692 972 q 736 954 718 972 q 754 909 754 935 q 736 865 754 884 q 692 846 718 846 l 325 846 q 281 827 299 846 q 262 783 262 809 l 262 612 q 281 568 262 587 q 325 549 299 549 l 597 549 q 642 530 623 549 q 661 486 661 512 q 642 441 661 460 q 597 422 623 422 l 325 422 q 281 404 299 422 q 262 358 262 385 l 262 189 q 281 145 262 163 q 325 126 299 126 l 692 126 q 736 107 718 126 q 754 62 754 88 q 736 18 754 37 q 692 0 718 0 l 199 0 q 155 18 173 0 q 136 62 136 37 m 457 1143 l 343 1257 q 325 1301 325 1275 q 343 1345 325 1327 q 387 1364 361 1364 q 433 1346 416 1364 l 546 1232 q 566 1187 566 1213 q 547 1143 566 1162 q 501 1125 528 1125 q 457 1143 475 1125 z "},"":{"ha":888,"x_min":136,"x_max":754,"o":"m 136 62 l 136 909 q 155 954 136 935 q 199 972 173 972 l 692 972 q 736 954 718 972 q 754 909 754 935 q 736 865 754 884 q 692 846 718 846 l 325 846 q 281 827 299 846 q 262 783 262 809 l 262 612 q 281 568 262 587 q 325 549 299 549 l 597 549 q 642 530 623 549 q 661 486 661 512 q 642 441 661 460 q 597 422 623 422 l 325 422 q 281 404 299 422 q 262 358 262 385 l 262 189 q 281 145 262 163 q 325 126 299 126 l 692 126 q 736 107 718 126 q 754 62 754 88 q 736 18 754 37 q 692 0 718 0 l 199 0 q 155 18 173 0 q 136 62 136 37 m 546 1257 l 433 1143 q 389 1125 415 1125 q 344 1143 363 1125 q 325 1187 325 1162 q 345 1232 325 1213 l 457 1346 q 501 1364 475 1364 q 547 1345 528 1364 q 566 1301 566 1327 q 546 1257 566 1274 z "},"":{"ha":888,"x_min":136,"x_max":754,"o":"m 136 62 l 136 909 q 155 954 136 935 q 199 972 173 972 l 692 972 q 736 954 718 972 q 754 909 754 935 q 736 865 754 884 q 692 846 718 846 l 325 846 q 281 827 299 846 q 262 783 262 809 l 262 612 q 281 568 262 587 q 325 549 299 549 l 597 549 q 642 530 623 549 q 661 486 661 512 q 642 441 661 460 q 597 422 623 422 l 325 422 q 281 404 299 422 q 262 358 262 385 l 262 189 q 281 145 262 163 q 325 126 299 126 l 692 126 q 736 107 718 126 q 754 62 754 88 q 736 18 754 37 q 692 0 718 0 l 199 0 q 155 18 173 0 q 136 62 136 37 m 406 1190 l 354 1140 q 315 1125 341 1125 q 276 1140 292 1125 q 260 1179 260 1156 q 277 1219 260 1202 l 406 1348 q 444 1364 420 1364 q 484 1348 467 1364 l 612 1219 q 628 1179 628 1204 q 613 1140 628 1156 q 574 1125 597 1125 q 533 1140 548 1125 l 484 1190 q 444 1207 467 1207 q 406 1190 420 1207 z "},"":{"ha":888,"x_min":136,"x_max":754,"o":"m 136 62 l 136 909 q 155 954 136 935 q 199 972 173 972 l 692 972 q 736 954 718 972 q 754 909 754 935 q 736 865 754 884 q 692 846 718 846 l 325 846 q 281 827 299 846 q 262 783 262 809 l 262 612 q 281 568 262 587 q 325 549 299 549 l 597 549 q 642 530 623 549 q 661 486 661 512 q 642 441 661 460 q 597 422 623 422 l 325 422 q 281 404 299 422 q 262 358 262 385 l 262 189 q 281 145 262 163 q 325 126 299 126 l 692 126 q 736 107 718 126 q 754 62 754 88 q 736 18 754 37 q 692 0 718 0 l 199 0 q 155 18 173 0 q 136 62 136 37 m 581 1139 l 553 1139 q 509 1157 527 1139 q 490 1202 490 1176 l 490 1229 q 509 1273 490 1255 q 553 1292 527 1292 l 581 1292 q 625 1273 606 1292 q 643 1229 643 1255 l 643 1202 q 625 1157 643 1176 q 581 1139 606 1139 m 338 1139 l 310 1139 q 266 1157 284 1139 q 248 1202 248 1176 l 248 1229 q 266 1273 248 1255 q 310 1292 284 1292 l 338 1292 q 382 1273 363 1292 q 400 1229 400 1255 l 400 1202 q 382 1157 400 1176 q 338 1139 363 1139 z "},"":{"ha":888,"x_min":199,"x_max":692,"o":"m 629 0 l 261 0 q 217 18 235 0 q 199 62 199 37 q 217 107 199 88 q 261 126 235 126 l 319 126 q 363 145 345 126 q 382 189 382 163 l 382 783 q 363 827 382 809 q 319 846 345 846 l 261 846 q 217 865 235 846 q 199 909 199 884 q 217 954 199 935 q 261 972 235 972 l 629 972 q 673 954 655 972 q 692 909 692 935 q 673 865 692 884 q 629 846 655 846 l 571 846 q 527 827 545 846 q 509 783 509 809 l 509 189 q 527 145 509 163 q 571 126 545 126 l 629 126 q 673 107 655 126 q 692 62 692 88 q 673 18 692 37 q 629 0 655 0 m 457 1143 l 343 1257 q 325 1301 325 1275 q 343 1345 325 1327 q 387 1364 361 1364 q 433 1346 416 1364 l 546 1232 q 566 1187 566 1213 q 547 1143 566 1162 q 501 1125 528 1125 q 457 1143 475 1125 z "},"":{"ha":888,"x_min":199,"x_max":692,"o":"m 629 0 l 261 0 q 217 18 235 0 q 199 62 199 37 q 217 107 199 88 q 261 126 235 126 l 319 126 q 363 145 345 126 q 382 189 382 163 l 382 783 q 363 827 382 809 q 319 846 345 846 l 261 846 q 217 865 235 846 q 199 909 199 884 q 217 954 199 935 q 261 972 235 972 l 629 972 q 673 954 655 972 q 692 909 692 935 q 673 865 692 884 q 629 846 655 846 l 571 846 q 527 827 545 846 q 509 783 509 809 l 509 189 q 527 145 509 163 q 571 126 545 126 l 629 126 q 673 107 655 126 q 692 62 692 88 q 673 18 692 37 q 629 0 655 0 m 546 1257 l 433 1143 q 389 1125 415 1125 q 344 1143 363 1125 q 325 1187 325 1162 q 345 1232 325 1213 l 457 1346 q 501 1364 475 1364 q 547 1345 528 1364 q 566 1301 566 1327 q 546 1257 566 1274 z "},"":{"ha":888,"x_min":199,"x_max":692,"o":"m 629 0 l 261 0 q 217 18 235 0 q 199 62 199 37 q 217 107 199 88 q 261 126 235 126 l 319 126 q 363 145 345 126 q 382 189 382 163 l 382 783 q 363 827 382 809 q 319 846 345 846 l 261 846 q 217 865 235 846 q 199 909 199 884 q 217 954 199 935 q 261 972 235 972 l 629 972 q 673 954 655 972 q 692 909 692 935 q 673 865 692 884 q 629 846 655 846 l 571 846 q 527 827 545 846 q 509 783 509 809 l 509 189 q 527 145 509 163 q 571 126 545 126 l 629 126 q 673 107 655 126 q 692 62 692 88 q 673 18 692 37 q 629 0 655 0 m 354 1140 l 406 1190 q 444 1207 420 1207 q 484 1190 467 1207 l 533 1140 q 574 1125 548 1125 q 613 1140 597 1125 q 628 1179 628 1156 q 612 1219 628 1204 l 484 1348 q 444 1364 467 1364 q 406 1348 420 1364 l 277 1219 q 260 1179 260 1202 q 276 1140 260 1156 q 315 1125 292 1125 q 354 1140 341 1125 z "},"":{"ha":888,"x_min":199,"x_max":692,"o":"m 629 0 l 261 0 q 217 18 235 0 q 199 62 199 37 q 217 107 199 88 q 261 126 235 126 l 319 126 q 363 145 345 126 q 382 189 382 163 l 382 783 q 363 827 382 809 q 319 846 345 846 l 261 846 q 217 865 235 846 q 199 909 199 884 q 217 954 199 935 q 261 972 235 972 l 629 972 q 673 954 655 972 q 692 909 692 935 q 673 865 692 884 q 629 846 655 846 l 571 846 q 527 827 545 846 q 509 783 509 809 l 509 189 q 527 145 509 163 q 571 126 545 126 l 629 126 q 673 107 655 126 q 692 62 692 88 q 673 18 692 37 q 629 0 655 0 m 581 1139 l 553 1139 q 509 1157 527 1139 q 490 1202 490 1176 l 490 1229 q 509 1273 490 1255 q 553 1292 527 1292 l 581 1292 q 625 1273 606 1292 q 643 1229 643 1255 l 643 1202 q 625 1157 643 1176 q 581 1139 606 1139 m 338 1139 l 310 1139 q 266 1157 284 1139 q 248 1202 248 1176 l 248 1229 q 266 1273 248 1255 q 310 1292 284 1292 l 338 1292 q 382 1273 363 1292 q 400 1229 400 1255 l 400 1202 q 382 1157 400 1176 q 338 1139 363 1139 z "},"":{"ha":888,"x_min":39,"x_max":754,"o":"m 136 571 l 136 909 q 155 954 136 935 q 199 972 173 972 l 546 972 q 590 954 572 972 l 734 808 q 754 764 754 791 l 754 208 q 734 164 754 182 l 590 18 q 546 0 572 0 l 199 0 q 155 18 173 0 q 136 62 136 37 l 136 403 q 115 424 136 424 l 102 424 q 57 442 75 424 q 39 488 39 460 q 57 532 39 513 q 102 550 76 550 l 115 550 q 136 571 136 550 m 262 403 l 262 189 q 281 145 262 163 q 325 126 299 126 l 498 126 q 533 140 519 126 l 614 221 q 628 256 628 235 l 628 717 q 614 751 628 737 l 533 832 q 498 846 519 846 l 325 846 q 281 827 299 846 q 262 783 262 809 l 262 571 q 283 550 262 550 l 476 550 q 520 532 502 550 q 539 488 539 513 q 521 442 539 460 q 476 424 503 424 l 283 424 q 262 403 262 424 z "},"":{"ha":888,"x_min":136,"x_max":754,"o":"m 254 940 l 618 315 q 625 309 623 309 q 628 318 628 309 l 628 909 q 647 954 628 935 q 692 972 666 972 q 736 954 718 972 q 754 909 754 935 l 754 62 q 736 18 754 37 q 692 0 718 0 q 636 32 654 0 l 272 659 q 265 665 270 665 q 262 656 262 665 l 262 62 q 243 18 262 37 q 199 0 224 0 q 155 18 173 0 q 136 62 136 37 l 136 909 q 155 954 136 935 q 199 972 173 972 q 254 940 235 972 m 349 1278 l 328 1255 l 328 1211 q 312 1174 328 1190 q 275 1158 297 1158 q 239 1174 254 1158 q 224 1211 224 1190 l 224 1280 q 237 1312 224 1299 l 293 1368 q 325 1382 307 1382 l 395 1382 q 428 1368 414 1382 l 484 1312 q 496 1280 496 1298 l 496 1250 l 518 1229 l 541 1229 l 561 1250 l 561 1296 q 576 1332 561 1317 q 614 1348 592 1348 q 650 1332 635 1348 q 665 1296 665 1317 l 665 1226 q 653 1194 665 1206 l 596 1139 q 564 1125 587 1125 l 494 1125 q 461 1139 475 1125 l 406 1194 q 393 1226 393 1206 l 393 1255 l 371 1278 l 349 1278 z "},"":{"ha":888,"x_min":136,"x_max":754,"o":"m 619 953 l 736 838 q 754 793 754 819 l 754 179 q 736 135 754 153 l 619 20 q 574 0 602 0 l 315 0 q 271 20 288 0 l 154 135 q 136 179 136 153 l 136 793 q 154 838 136 820 l 271 953 q 315 972 288 972 l 574 972 q 619 953 602 972 m 562 140 l 614 192 q 628 227 628 206 l 628 746 q 614 781 628 766 l 562 832 q 528 846 549 846 l 363 846 q 328 832 341 846 l 277 781 q 262 746 262 766 l 262 227 q 277 192 262 206 l 328 140 q 363 126 342 126 l 528 126 q 562 140 548 126 m 457 1143 l 343 1257 q 325 1301 325 1275 q 343 1345 325 1327 q 387 1364 361 1364 q 433 1346 416 1364 l 546 1232 q 566 1187 566 1213 q 547 1143 566 1162 q 501 1125 528 1125 q 457 1143 475 1125 z "},"":{"ha":888,"x_min":136,"x_max":754,"o":"m 619 953 l 736 838 q 754 793 754 819 l 754 179 q 736 135 754 153 l 619 20 q 574 0 602 0 l 315 0 q 271 20 288 0 l 154 135 q 136 179 136 153 l 136 793 q 154 838 136 820 l 271 953 q 315 972 288 972 l 574 972 q 619 953 602 972 m 562 140 l 614 192 q 628 227 628 206 l 628 746 q 614 781 628 766 l 562 832 q 528 846 549 846 l 363 846 q 328 832 341 846 l 277 781 q 262 746 262 766 l 262 227 q 277 192 262 206 l 328 140 q 363 126 342 126 l 528 126 q 562 140 548 126 m 546 1257 l 433 1143 q 389 1125 415 1125 q 344 1143 363 1125 q 325 1187 325 1162 q 345 1232 325 1213 l 457 1346 q 501 1364 475 1364 q 547 1345 528 1364 q 566 1301 566 1327 q 546 1257 566 1274 z "},"":{"ha":888,"x_min":136,"x_max":754,"o":"m 619 953 l 736 838 q 754 793 754 819 l 754 179 q 736 135 754 153 l 619 20 q 574 0 602 0 l 315 0 q 271 20 288 0 l 154 135 q 136 179 136 153 l 136 793 q 154 838 136 820 l 271 953 q 315 972 288 972 l 574 972 q 619 953 602 972 m 562 140 l 614 192 q 628 227 628 206 l 628 746 q 614 781 628 766 l 562 832 q 528 846 549 846 l 363 846 q 328 832 341 846 l 277 781 q 262 746 262 766 l 262 227 q 277 192 262 206 l 328 140 q 363 126 342 126 l 528 126 q 562 140 548 126 m 406 1190 l 354 1140 q 315 1125 341 1125 q 276 1140 292 1125 q 260 1179 260 1156 q 277 1219 260 1202 l 406 1348 q 444 1364 420 1364 q 484 1348 467 1364 l 612 1219 q 628 1179 628 1204 q 613 1140 628 1156 q 574 1125 597 1125 q 533 1140 548 1125 l 484 1190 q 444 1207 467 1207 q 406 1190 420 1207 z "},"":{"ha":888,"x_min":136,"x_max":754,"o":"m 619 953 l 736 838 q 754 793 754 819 l 754 179 q 736 135 754 153 l 619 20 q 574 0 602 0 l 315 0 q 271 20 288 0 l 154 135 q 136 179 136 153 l 136 793 q 154 838 136 820 l 271 953 q 315 972 288 972 l 574 972 q 619 953 602 972 m 562 140 l 614 192 q 628 227 628 206 l 628 746 q 614 781 628 766 l 562 832 q 528 846 549 846 l 363 846 q 328 832 341 846 l 277 781 q 262 746 262 766 l 262 227 q 277 192 262 206 l 328 140 q 363 126 342 126 l 528 126 q 562 140 548 126 m 349 1278 l 328 1255 l 328 1211 q 312 1174 328 1190 q 275 1158 297 1158 q 239 1174 254 1158 q 224 1211 224 1190 l 224 1280 q 237 1312 224 1299 l 293 1368 q 325 1382 307 1382 l 395 1382 q 428 1368 414 1382 l 484 1312 q 496 1280 496 1298 l 496 1250 l 518 1229 l 541 1229 l 561 1250 l 561 1296 q 576 1332 561 1317 q 614 1348 592 1348 q 650 1332 635 1348 q 665 1296 665 1317 l 665 1226 q 653 1194 665 1206 l 596 1139 q 564 1125 587 1125 l 494 1125 q 461 1139 475 1125 l 406 1194 q 393 1226 393 1206 l 393 1255 l 371 1278 l 349 1278 z "},"":{"ha":888,"x_min":136,"x_max":754,"o":"m 619 953 l 736 838 q 754 793 754 819 l 754 179 q 736 135 754 153 l 619 20 q 574 0 602 0 l 315 0 q 271 20 288 0 l 154 135 q 136 179 136 153 l 136 793 q 154 838 136 820 l 271 953 q 315 972 288 972 l 574 972 q 619 953 602 972 m 562 140 l 614 192 q 628 227 628 206 l 628 746 q 614 781 628 766 l 562 832 q 528 846 549 846 l 363 846 q 328 832 341 846 l 277 781 q 262 746 262 766 l 262 227 q 277 192 262 206 l 328 140 q 363 126 342 126 l 528 126 q 562 140 548 126 m 581 1139 l 553 1139 q 509 1157 527 1139 q 490 1202 490 1176 l 490 1229 q 509 1273 490 1255 q 553 1292 527 1292 l 581 1292 q 625 1273 606 1292 q 643 1229 643 1255 l 643 1202 q 625 1157 643 1176 q 581 1139 606 1139 m 338 1139 l 310 1139 q 266 1157 284 1139 q 248 1202 248 1176 l 248 1229 q 266 1273 248 1255 q 310 1292 284 1292 l 338 1292 q 382 1273 363 1292 q 400 1229 400 1255 l 400 1202 q 382 1157 400 1176 q 338 1139 363 1139 z "},"":{"ha":888,"x_min":164,"x_max":726,"o":"m 472 160 l 416 160 q 372 178 391 160 q 354 222 354 197 l 354 278 q 372 322 354 304 q 416 340 391 340 l 472 340 q 516 322 498 340 q 534 278 534 304 l 534 222 q 516 178 534 197 q 472 160 498 160 m 472 632 l 416 632 q 372 650 391 632 q 354 694 354 669 l 354 750 q 372 794 354 776 q 416 812 391 812 l 472 812 q 516 794 498 812 q 534 750 534 776 l 534 694 q 516 650 534 669 q 472 632 498 632 m 227 550 l 664 550 q 708 532 690 550 q 726 488 726 513 q 708 442 726 460 q 664 424 690 424 l 227 424 q 182 442 200 424 q 164 488 164 460 q 182 532 164 513 q 227 550 201 550 z "},"":{"ha":888,"x_min":41,"x_max":847,"o":"m 562 142 l 612 191 q 628 227 628 206 l 628 558 q 623 570 628 570 q 612 564 618 570 l 277 229 q 267 207 267 219 q 271 196 267 200 l 326 142 q 363 126 342 126 l 526 126 q 562 142 547 126 m 326 831 l 277 782 q 261 746 261 766 l 261 414 q 267 403 261 403 q 277 408 271 403 l 612 743 q 623 765 623 753 q 618 777 623 772 l 562 831 q 526 846 547 846 l 363 846 q 326 831 341 846 m 734 867 l 739 871 q 785 889 758 889 q 829 871 810 889 q 847 827 847 852 q 829 782 847 798 l 770 721 q 754 685 754 705 l 754 180 q 734 135 754 155 l 618 20 q 574 0 600 0 l 315 0 q 271 20 288 0 l 183 106 q 168 113 176 113 q 154 106 161 113 l 150 102 q 104 83 132 83 q 60 102 79 83 q 41 146 41 120 q 60 192 41 174 l 119 252 q 135 288 135 267 l 135 793 q 154 838 135 819 l 271 953 q 315 972 288 972 l 574 972 q 618 953 600 972 l 705 867 q 721 860 712 860 q 734 867 728 860 z "},"":{"ha":888,"x_min":136,"x_max":754,"o":"m 262 909 l 262 227 q 277 192 262 206 l 328 140 q 363 126 342 126 l 528 126 q 562 140 548 126 l 614 192 q 628 227 628 206 l 628 909 q 647 954 628 935 q 692 972 666 972 q 736 954 718 972 q 754 909 754 935 l 754 179 q 736 135 754 153 l 619 20 q 574 0 602 0 l 315 0 q 271 20 288 0 l 154 135 q 136 179 136 153 l 136 909 q 155 954 136 935 q 199 972 173 972 q 243 954 224 972 q 262 909 262 935 m 457 1143 l 343 1257 q 325 1301 325 1275 q 343 1345 325 1327 q 387 1364 361 1364 q 433 1346 416 1364 l 546 1232 q 566 1187 566 1213 q 547 1143 566 1162 q 501 1125 528 1125 q 457 1143 475 1125 z "},"":{"ha":888,"x_min":136,"x_max":754,"o":"m 262 909 l 262 227 q 277 192 262 206 l 328 140 q 363 126 342 126 l 528 126 q 562 140 548 126 l 614 192 q 628 227 628 206 l 628 909 q 647 954 628 935 q 692 972 666 972 q 736 954 718 972 q 754 909 754 935 l 754 179 q 736 135 754 153 l 619 20 q 574 0 602 0 l 315 0 q 271 20 288 0 l 154 135 q 136 179 136 153 l 136 909 q 155 954 136 935 q 199 972 173 972 q 243 954 224 972 q 262 909 262 935 m 546 1257 l 433 1143 q 389 1125 415 1125 q 344 1143 363 1125 q 325 1187 325 1162 q 345 1232 325 1213 l 457 1346 q 501 1364 475 1364 q 547 1345 528 1364 q 566 1301 566 1327 q 546 1257 566 1274 z "},"":{"ha":888,"x_min":136,"x_max":754,"o":"m 262 909 l 262 227 q 277 192 262 206 l 328 140 q 363 126 342 126 l 528 126 q 562 140 548 126 l 614 192 q 628 227 628 206 l 628 909 q 647 954 628 935 q 692 972 666 972 q 736 954 718 972 q 754 909 754 935 l 754 179 q 736 135 754 153 l 619 20 q 574 0 602 0 l 315 0 q 271 20 288 0 l 154 135 q 136 179 136 153 l 136 909 q 155 954 136 935 q 199 972 173 972 q 243 954 224 972 q 262 909 262 935 m 406 1190 l 354 1140 q 315 1125 341 1125 q 276 1140 292 1125 q 260 1179 260 1156 q 277 1219 260 1202 l 406 1348 q 444 1364 420 1364 q 484 1348 467 1364 l 612 1219 q 628 1179 628 1204 q 613 1140 628 1156 q 574 1125 597 1125 q 533 1140 548 1125 l 484 1190 q 444 1207 467 1207 q 406 1190 420 1207 z "},"":{"ha":888,"x_min":136,"x_max":754,"o":"m 262 909 l 262 227 q 277 192 262 206 l 328 140 q 363 126 342 126 l 528 126 q 562 140 548 126 l 614 192 q 628 227 628 206 l 628 909 q 647 954 628 935 q 692 972 666 972 q 736 954 718 972 q 754 909 754 935 l 754 179 q 736 135 754 153 l 619 20 q 574 0 602 0 l 315 0 q 271 20 288 0 l 154 135 q 136 179 136 153 l 136 909 q 155 954 136 935 q 199 972 173 972 q 243 954 224 972 q 262 909 262 935 m 581 1139 l 553 1139 q 509 1157 527 1139 q 490 1202 490 1176 l 490 1229 q 509 1273 490 1255 q 553 1292 527 1292 l 581 1292 q 625 1273 606 1292 q 643 1229 643 1255 l 643 1202 q 625 1157 643 1176 q 581 1139 606 1139 m 338 1139 l 310 1139 q 266 1157 284 1139 q 248 1202 248 1176 l 248 1229 q 266 1273 248 1255 q 310 1292 284 1292 l 338 1292 q 382 1273 363 1292 q 400 1229 400 1255 l 400 1202 q 382 1157 400 1176 q 338 1139 363 1139 z "},"":{"ha":888,"x_min":136,"x_max":754,"o":"m 368 416 l 155 629 q 136 675 136 648 l 136 909 q 155 954 136 935 q 199 972 173 972 q 243 954 224 972 q 262 909 262 935 l 262 722 q 277 688 262 702 l 400 562 q 444 545 418 545 q 490 562 473 545 l 614 688 q 628 722 628 702 l 628 909 q 647 954 628 935 q 692 972 666 972 q 736 954 718 972 q 754 909 754 935 l 754 675 q 734 629 754 649 l 522 416 q 509 382 509 403 l 509 62 q 490 18 509 36 q 444 0 472 0 q 400 18 418 0 q 382 62 382 37 l 382 382 q 368 416 382 403 m 546 1257 l 433 1143 q 389 1125 415 1125 q 344 1143 363 1125 q 325 1187 325 1162 q 345 1232 325 1213 l 457 1346 q 501 1364 475 1364 q 547 1345 528 1364 q 566 1301 566 1327 q 546 1257 566 1274 z "},"":{"ha":888,"x_min":136,"x_max":754,"o":"m 628 395 l 628 578 q 614 612 628 598 l 533 693 q 498 707 519 707 l 325 707 q 281 688 299 707 q 262 644 262 670 l 262 328 q 281 283 262 302 q 325 265 299 265 l 498 265 q 533 279 519 265 l 614 359 q 628 395 628 374 m 136 -40 l 136 1013 q 155 1057 136 1038 q 199 1075 173 1075 q 244 1057 227 1075 q 262 1013 262 1039 l 262 896 q 281 852 262 870 q 325 833 299 833 l 546 833 q 590 815 572 833 l 734 669 q 754 625 754 652 l 754 347 q 734 302 754 320 l 590 157 q 546 139 572 139 l 325 139 q 281 121 299 139 q 262 77 262 102 l 262 -40 q 244 -85 262 -66 q 199 -103 227 -103 q 155 -84 173 -103 q 136 -40 136 -66 z "},"":{"ha":888,"x_min":136,"x_max":754,"o":"m 368 416 l 155 629 q 136 675 136 648 l 136 909 q 155 954 136 935 q 199 972 173 972 q 243 954 224 972 q 262 909 262 935 l 262 722 q 277 688 262 702 l 400 562 q 444 545 418 545 q 490 562 473 545 l 614 688 q 628 722 628 702 l 628 909 q 647 954 628 935 q 692 972 666 972 q 736 954 718 972 q 754 909 754 935 l 754 675 q 734 629 754 649 l 522 416 q 509 382 509 403 l 509 62 q 490 18 509 36 q 444 0 472 0 q 400 18 418 0 q 382 62 382 37 l 382 382 q 368 416 382 403 m 581 1139 l 553 1139 q 509 1157 527 1139 q 490 1202 490 1176 l 490 1229 q 509 1273 490 1255 q 553 1292 527 1292 l 581 1292 q 625 1273 606 1292 q 643 1229 643 1255 l 643 1202 q 625 1157 643 1176 q 581 1139 606 1139 m 338 1139 l 310 1139 q 266 1157 284 1139 q 248 1202 248 1176 l 248 1229 q 266 1273 248 1255 q 310 1292 284 1292 l 338 1292 q 382 1273 363 1292 q 400 1229 400 1255 l 400 1202 q 382 1157 400 1176 q 338 1139 363 1139 z "},"":{"ha":888,"x_min":136,"x_max":754,"o":"m 576 1139 l 314 1139 q 270 1157 288 1139 q 252 1202 252 1176 q 270 1246 252 1227 q 314 1265 288 1265 l 576 1265 q 621 1246 602 1265 q 639 1202 639 1227 q 621 1157 639 1176 q 576 1139 602 1139 m 754 764 l 754 62 q 736 18 754 37 q 692 0 718 0 q 647 18 666 0 q 628 62 628 37 l 628 329 q 610 373 628 355 q 566 392 591 392 l 325 392 q 281 373 299 392 q 262 329 262 355 l 262 62 q 243 18 262 37 q 199 0 224 0 q 155 18 173 0 q 136 62 136 37 l 136 764 q 154 808 136 791 l 300 953 q 345 972 317 972 l 546 972 q 590 954 572 972 l 734 808 q 754 764 754 791 m 628 581 l 628 717 q 614 751 628 737 l 533 832 q 498 846 519 846 l 392 846 q 357 832 370 846 l 277 751 q 262 717 262 737 l 262 581 q 281 536 262 555 q 325 518 299 518 l 566 518 q 610 536 591 518 q 628 581 628 555 z "},"":{"ha":888,"x_min":136,"x_max":754,"o":"m 754 764 l 754 62 q 736 18 754 37 q 692 0 718 0 q 647 18 666 0 q 628 62 628 37 l 628 329 q 610 373 628 355 q 566 392 591 392 l 325 392 q 281 373 299 392 q 262 329 262 355 l 262 62 q 243 18 262 37 q 199 0 224 0 q 155 18 173 0 q 136 62 136 37 l 136 764 q 154 808 136 791 l 300 953 q 345 972 317 972 l 546 972 q 590 954 572 972 l 734 808 q 754 764 754 791 m 628 581 l 628 717 q 614 751 628 737 l 533 832 q 498 846 519 846 l 392 846 q 357 832 370 846 l 277 751 q 262 717 262 737 l 262 581 q 281 536 262 555 q 325 518 299 518 l 566 518 q 610 536 591 518 q 628 581 628 555 m 576 1139 l 314 1139 q 270 1157 288 1139 q 252 1202 252 1176 q 270 1246 252 1227 q 314 1265 288 1265 l 576 1265 q 621 1246 602 1265 q 639 1202 639 1227 q 621 1157 639 1176 q 576 1139 602 1139 z "},"":{"ha":888,"x_min":136,"x_max":754,"o":"m 370 1312 l 370 1299 q 383 1264 370 1278 l 406 1242 q 440 1227 420 1227 l 447 1227 q 482 1242 468 1227 l 504 1264 q 518 1299 518 1278 l 518 1312 q 533 1349 518 1333 q 570 1364 548 1364 q 606 1349 591 1364 q 621 1312 621 1333 l 621 1254 q 608 1222 621 1234 l 525 1137 q 492 1125 513 1125 l 396 1125 q 363 1137 375 1125 l 279 1222 q 267 1254 267 1235 l 267 1312 q 281 1349 267 1333 q 318 1364 296 1364 q 355 1349 340 1364 q 370 1312 370 1333 m 754 764 l 754 62 q 736 18 754 37 q 692 0 718 0 q 647 18 666 0 q 628 62 628 37 l 628 329 q 610 373 628 355 q 566 392 591 392 l 325 392 q 281 373 299 392 q 262 329 262 355 l 262 62 q 243 18 262 37 q 199 0 224 0 q 155 18 173 0 q 136 62 136 37 l 136 764 q 154 808 136 791 l 300 953 q 345 972 317 972 l 546 972 q 590 954 572 972 l 734 808 q 754 764 754 791 m 628 581 l 628 717 q 614 751 628 737 l 533 832 q 498 846 519 846 l 392 846 q 357 832 370 846 l 277 751 q 262 717 262 737 l 262 581 q 281 536 262 555 q 325 518 299 518 l 566 518 q 610 536 591 518 q 628 581 628 555 z "},"":{"ha":888,"x_min":136,"x_max":754,"o":"m 754 764 l 754 62 q 736 18 754 37 q 692 0 718 0 q 647 18 666 0 q 628 62 628 37 l 628 329 q 610 373 628 355 q 566 392 591 392 l 325 392 q 281 373 299 392 q 262 329 262 355 l 262 62 q 243 18 262 37 q 199 0 224 0 q 155 18 173 0 q 136 62 136 37 l 136 764 q 154 808 136 791 l 300 953 q 345 972 317 972 l 546 972 q 590 954 572 972 l 734 808 q 754 764 754 791 m 628 581 l 628 717 q 614 751 628 737 l 533 832 q 498 846 519 846 l 392 846 q 357 832 370 846 l 277 751 q 262 717 262 737 l 262 581 q 281 536 262 555 q 325 518 299 518 l 566 518 q 610 536 591 518 q 628 581 628 555 m 370 1312 l 370 1299 q 383 1264 370 1278 l 406 1242 q 440 1227 420 1227 l 447 1227 q 482 1242 468 1227 l 504 1264 q 518 1299 518 1278 l 518 1312 q 533 1349 518 1333 q 570 1364 548 1364 q 606 1349 591 1364 q 621 1312 621 1333 l 621 1254 q 608 1222 621 1234 l 525 1137 q 492 1125 513 1125 l 396 1125 q 363 1137 375 1125 l 279 1222 q 267 1254 267 1235 l 267 1312 q 281 1349 267 1333 q 318 1364 296 1364 q 355 1349 340 1364 q 370 1312 370 1333 z "},"":{"ha":888,"x_min":136,"x_max":831,"o":"m 754 764 l 754 62 q 736 18 754 37 q 692 0 718 0 q 647 18 666 0 q 628 62 628 37 l 628 329 q 610 373 628 355 q 566 392 591 392 l 325 392 q 281 373 299 392 q 262 329 262 355 l 262 62 q 243 18 262 37 q 199 0 224 0 q 155 18 173 0 q 136 62 136 37 l 136 764 q 154 808 136 791 l 300 953 q 345 972 317 972 l 546 972 q 590 954 572 972 l 734 808 q 754 764 754 791 m 628 581 l 628 717 q 614 751 628 737 l 533 832 q 498 846 519 846 l 392 846 q 357 832 370 846 l 277 751 q 262 717 262 737 l 262 581 q 281 536 262 555 q 325 518 299 518 l 566 518 q 610 536 591 518 q 628 581 628 555 m 754 56 l 754 -60 q 739 -96 754 -81 l 660 -175 q 644 -211 644 -191 q 660 -248 644 -232 l 672 -260 q 708 -275 688 -275 q 745 -260 729 -275 l 753 -252 q 785 -239 766 -239 q 818 -251 804 -239 q 831 -283 831 -264 q 817 -315 831 -301 l 779 -353 q 751 -366 768 -366 l 667 -366 q 639 -353 650 -366 l 566 -281 q 554 -253 554 -269 l 554 -168 q 566 -140 554 -157 l 648 -58 q 664 -22 664 -43 l 664 56 q 676 87 664 75 q 708 100 688 100 q 741 87 728 100 q 754 56 754 75 z "},"":{"ha":888,"x_min":136,"x_max":831,"o":"m 754 764 l 754 62 q 736 18 754 37 q 692 0 718 0 q 647 18 666 0 q 628 62 628 37 l 628 329 q 610 373 628 355 q 566 392 591 392 l 325 392 q 281 373 299 392 q 262 329 262 355 l 262 62 q 243 18 262 37 q 199 0 224 0 q 155 18 173 0 q 136 62 136 37 l 136 764 q 154 808 136 791 l 300 953 q 345 972 317 972 l 546 972 q 590 954 572 972 l 734 808 q 754 764 754 791 m 628 581 l 628 717 q 614 751 628 737 l 533 832 q 498 846 519 846 l 392 846 q 357 832 370 846 l 277 751 q 262 717 262 737 l 262 581 q 281 536 262 555 q 325 518 299 518 l 566 518 q 610 536 591 518 q 628 581 628 555 m 754 56 l 754 -60 q 739 -96 754 -81 l 660 -175 q 644 -211 644 -191 q 660 -248 644 -232 l 672 -260 q 708 -275 688 -275 q 745 -260 729 -275 l 753 -252 q 785 -239 766 -239 q 818 -251 804 -239 q 831 -283 831 -264 q 817 -315 831 -301 l 779 -353 q 751 -366 768 -366 l 667 -366 q 639 -353 650 -366 l 566 -281 q 554 -253 554 -269 l 554 -168 q 566 -140 554 -157 l 648 -58 q 664 -22 664 -43 l 664 56 q 676 87 664 75 q 708 100 688 100 q 741 87 728 100 q 754 56 754 75 z "},"":{"ha":888,"x_min":136,"x_max":754,"o":"m 546 1257 l 433 1143 q 389 1125 415 1125 q 344 1143 363 1125 q 325 1187 325 1162 q 345 1232 325 1213 l 457 1346 q 501 1364 475 1364 q 547 1345 528 1364 q 566 1301 566 1327 q 546 1257 566 1274 m 262 717 l 262 256 q 277 221 262 235 l 357 140 q 392 126 371 126 l 498 126 q 533 140 519 126 l 614 221 q 628 256 628 235 l 628 297 q 647 342 628 323 q 692 361 666 361 q 736 342 718 361 q 754 297 754 323 l 754 208 q 734 164 754 182 l 590 18 q 546 0 572 0 l 345 0 q 298 20 318 0 l 154 164 q 136 208 136 182 l 136 764 q 154 808 136 791 l 298 953 q 345 972 318 972 l 546 972 q 590 954 572 972 l 734 808 q 754 764 754 791 l 754 675 q 736 630 754 649 q 692 611 718 611 q 647 630 666 611 q 628 675 628 649 l 628 717 q 614 751 628 737 l 533 832 q 498 846 519 846 l 392 846 q 357 832 370 846 l 277 751 q 262 717 262 737 z "},"":{"ha":888,"x_min":136,"x_max":754,"o":"m 262 717 l 262 256 q 277 221 262 235 l 357 140 q 392 126 371 126 l 498 126 q 533 140 519 126 l 614 221 q 628 256 628 235 l 628 297 q 647 342 628 323 q 692 361 666 361 q 736 342 718 361 q 754 297 754 323 l 754 208 q 734 164 754 182 l 590 18 q 546 0 572 0 l 345 0 q 298 20 318 0 l 154 164 q 136 208 136 182 l 136 764 q 154 808 136 791 l 298 953 q 345 972 318 972 l 546 972 q 590 954 572 972 l 734 808 q 754 764 754 791 l 754 675 q 736 630 754 649 q 692 611 718 611 q 647 630 666 611 q 628 675 628 649 l 628 717 q 614 751 628 737 l 533 832 q 498 846 519 846 l 392 846 q 357 832 370 846 l 277 751 q 262 717 262 737 m 546 1257 l 433 1143 q 389 1125 415 1125 q 344 1143 363 1125 q 325 1187 325 1162 q 345 1232 325 1213 l 457 1346 q 501 1364 475 1364 q 547 1345 528 1364 q 566 1301 566 1327 q 546 1257 566 1274 z "},"":{"ha":888,"x_min":136,"x_max":754,"o":"m 406 1190 l 354 1140 q 315 1125 341 1125 q 276 1140 292 1125 q 260 1179 260 1156 q 277 1219 260 1202 l 406 1348 q 444 1364 420 1364 q 484 1348 467 1364 l 612 1219 q 628 1179 628 1204 q 613 1140 628 1156 q 574 1125 597 1125 q 533 1140 548 1125 l 484 1190 q 444 1207 467 1207 q 406 1190 420 1207 m 262 717 l 262 256 q 277 221 262 235 l 357 140 q 392 126 371 126 l 498 126 q 533 140 519 126 l 614 221 q 628 256 628 235 l 628 297 q 647 342 628 323 q 692 361 666 361 q 736 342 718 361 q 754 297 754 323 l 754 208 q 734 164 754 182 l 590 18 q 546 0 572 0 l 345 0 q 298 20 318 0 l 154 164 q 136 208 136 182 l 136 764 q 154 808 136 791 l 298 953 q 345 972 318 972 l 546 972 q 590 954 572 972 l 734 808 q 754 764 754 791 l 754 675 q 736 630 754 649 q 692 611 718 611 q 647 630 666 611 q 628 675 628 649 l 628 717 q 614 751 628 737 l 533 832 q 498 846 519 846 l 392 846 q 357 832 370 846 l 277 751 q 262 717 262 737 z "},"":{"ha":888,"x_min":136,"x_max":754,"o":"m 262 717 l 262 256 q 277 221 262 235 l 357 140 q 392 126 371 126 l 498 126 q 533 140 519 126 l 614 221 q 628 256 628 235 l 628 297 q 647 342 628 323 q 692 361 666 361 q 736 342 718 361 q 754 297 754 323 l 754 208 q 734 164 754 182 l 590 18 q 546 0 572 0 l 345 0 q 298 20 318 0 l 154 164 q 136 208 136 182 l 136 764 q 154 808 136 791 l 298 953 q 345 972 318 972 l 546 972 q 590 954 572 972 l 734 808 q 754 764 754 791 l 754 675 q 736 630 754 649 q 692 611 718 611 q 647 630 666 611 q 628 675 628 649 l 628 717 q 614 751 628 737 l 533 832 q 498 846 519 846 l 392 846 q 357 832 370 846 l 277 751 q 262 717 262 737 m 406 1190 l 354 1140 q 315 1125 341 1125 q 276 1140 292 1125 q 260 1179 260 1156 q 277 1219 260 1202 l 406 1348 q 444 1364 420 1364 q 484 1348 467 1364 l 612 1219 q 628 1179 628 1204 q 613 1140 628 1156 q 574 1125 597 1125 q 533 1140 548 1125 l 484 1190 q 444 1207 467 1207 q 406 1190 420 1207 z "},"":{"ha":888,"x_min":136,"x_max":754,"o":"m 465 1146 l 424 1146 q 379 1164 398 1146 q 361 1208 361 1183 l 361 1250 q 379 1294 361 1276 q 424 1312 398 1312 l 465 1312 q 509 1294 491 1312 q 528 1250 528 1276 l 528 1208 q 509 1164 528 1183 q 465 1146 491 1146 m 262 717 l 262 256 q 277 221 262 235 l 357 140 q 392 126 371 126 l 498 126 q 533 140 519 126 l 614 221 q 628 256 628 235 l 628 297 q 647 342 628 323 q 692 361 666 361 q 736 342 718 361 q 754 297 754 323 l 754 208 q 734 164 754 182 l 590 18 q 546 0 572 0 l 345 0 q 298 20 318 0 l 154 164 q 136 208 136 182 l 136 764 q 154 808 136 791 l 298 953 q 345 972 318 972 l 546 972 q 590 954 572 972 l 734 808 q 754 764 754 791 l 754 675 q 736 630 754 649 q 692 611 718 611 q 647 630 666 611 q 628 675 628 649 l 628 717 q 614 751 628 737 l 533 832 q 498 846 519 846 l 392 846 q 357 832 370 846 l 277 751 q 262 717 262 737 z "},"":{"ha":888,"x_min":136,"x_max":754,"o":"m 262 717 l 262 256 q 277 221 262 235 l 357 140 q 392 126 371 126 l 498 126 q 533 140 519 126 l 614 221 q 628 256 628 235 l 628 297 q 647 342 628 323 q 692 361 666 361 q 736 342 718 361 q 754 297 754 323 l 754 208 q 734 164 754 182 l 590 18 q 546 0 572 0 l 345 0 q 298 20 318 0 l 154 164 q 136 208 136 182 l 136 764 q 154 808 136 791 l 298 953 q 345 972 318 972 l 546 972 q 590 954 572 972 l 734 808 q 754 764 754 791 l 754 675 q 736 630 754 649 q 692 611 718 611 q 647 630 666 611 q 628 675 628 649 l 628 717 q 614 751 628 737 l 533 832 q 498 846 519 846 l 392 846 q 357 832 370 846 l 277 751 q 262 717 262 737 m 465 1146 l 424 1146 q 379 1164 398 1146 q 361 1208 361 1183 l 361 1250 q 379 1294 361 1276 q 424 1312 398 1312 l 465 1312 q 509 1294 491 1312 q 528 1250 528 1276 l 528 1208 q 509 1164 528 1183 q 465 1146 491 1146 z "},"":{"ha":888,"x_min":136,"x_max":754,"o":"m 354 1348 l 404 1297 q 444 1280 421 1280 q 484 1297 467 1280 l 533 1348 q 572 1364 549 1364 q 612 1348 596 1364 q 628 1308 628 1332 q 612 1270 628 1290 l 484 1140 q 444 1125 469 1125 q 404 1140 419 1125 l 277 1270 q 260 1308 260 1286 q 277 1347 260 1330 q 315 1364 294 1364 q 354 1348 338 1364 m 262 717 l 262 256 q 277 221 262 235 l 357 140 q 392 126 371 126 l 498 126 q 533 140 519 126 l 614 221 q 628 256 628 235 l 628 297 q 647 342 628 323 q 692 361 666 361 q 736 342 718 361 q 754 297 754 323 l 754 208 q 734 164 754 182 l 590 18 q 546 0 572 0 l 345 0 q 298 20 318 0 l 154 164 q 136 208 136 182 l 136 764 q 154 808 136 791 l 298 953 q 345 972 318 972 l 546 972 q 590 954 572 972 l 734 808 q 754 764 754 791 l 754 675 q 736 630 754 649 q 692 611 718 611 q 647 630 666 611 q 628 675 628 649 l 628 717 q 614 751 628 737 l 533 832 q 498 846 519 846 l 392 846 q 357 832 370 846 l 277 751 q 262 717 262 737 z "},"":{"ha":888,"x_min":136,"x_max":754,"o":"m 262 717 l 262 256 q 277 221 262 235 l 357 140 q 392 126 371 126 l 498 126 q 533 140 519 126 l 614 221 q 628 256 628 235 l 628 297 q 647 342 628 323 q 692 361 666 361 q 736 342 718 361 q 754 297 754 323 l 754 208 q 734 164 754 182 l 590 18 q 546 0 572 0 l 345 0 q 298 20 318 0 l 154 164 q 136 208 136 182 l 136 764 q 154 808 136 791 l 298 953 q 345 972 318 972 l 546 972 q 590 954 572 972 l 734 808 q 754 764 754 791 l 754 675 q 736 630 754 649 q 692 611 718 611 q 647 630 666 611 q 628 675 628 649 l 628 717 q 614 751 628 737 l 533 832 q 498 846 519 846 l 392 846 q 357 832 370 846 l 277 751 q 262 717 262 737 m 354 1348 l 404 1297 q 444 1280 421 1280 q 484 1297 467 1280 l 533 1348 q 572 1364 549 1364 q 612 1348 596 1364 q 628 1308 628 1332 q 612 1270 628 1290 l 484 1140 q 444 1125 469 1125 q 404 1140 419 1125 l 277 1270 q 260 1308 260 1286 q 277 1347 260 1330 q 315 1364 294 1364 q 354 1348 338 1364 z "},"":{"ha":888,"x_min":136,"x_max":754,"o":"m 354 1348 l 404 1297 q 444 1280 421 1280 q 484 1297 467 1280 l 533 1348 q 572 1364 549 1364 q 612 1348 596 1364 q 628 1308 628 1332 q 612 1270 628 1290 l 484 1140 q 444 1125 469 1125 q 404 1140 419 1125 l 277 1270 q 260 1308 260 1286 q 277 1347 260 1330 q 315 1364 294 1364 q 354 1348 338 1364 m 590 954 l 734 808 q 754 764 754 791 l 754 208 q 734 164 754 182 l 590 18 q 546 0 572 0 l 199 0 q 155 18 173 0 q 136 62 136 37 l 136 909 q 155 954 136 935 q 199 972 173 972 l 546 972 q 590 954 572 972 m 533 140 l 614 221 q 628 256 628 235 l 628 717 q 614 751 628 737 l 533 832 q 498 846 519 846 l 325 846 q 281 827 299 846 q 262 783 262 809 l 262 189 q 281 145 262 163 q 325 126 299 126 l 498 126 q 533 140 519 126 z "},"":{"ha":888,"x_min":136,"x_max":754,"o":"m 354 1348 l 404 1297 q 444 1280 421 1280 q 484 1297 467 1280 l 533 1348 q 572 1364 549 1364 q 612 1348 596 1364 q 628 1308 628 1332 q 612 1270 628 1290 l 484 1140 q 444 1125 469 1125 q 404 1140 419 1125 l 277 1270 q 260 1308 260 1286 q 277 1347 260 1330 q 315 1364 294 1364 q 354 1348 338 1364 m 590 954 l 734 808 q 754 764 754 791 l 754 208 q 734 164 754 182 l 590 18 q 546 0 572 0 l 199 0 q 155 18 173 0 q 136 62 136 37 l 136 909 q 155 954 136 935 q 199 972 173 972 l 546 972 q 590 954 572 972 m 533 140 l 614 221 q 628 256 628 235 l 628 717 q 614 751 628 737 l 533 832 q 498 846 519 846 l 325 846 q 281 827 299 846 q 262 783 262 809 l 262 189 q 281 145 262 163 q 325 126 299 126 l 498 126 q 533 140 519 126 z "},"":{"ha":888,"x_min":39,"x_max":754,"o":"m 136 571 l 136 909 q 155 954 136 935 q 199 972 173 972 l 546 972 q 590 954 572 972 l 734 808 q 754 764 754 791 l 754 208 q 734 164 754 182 l 590 18 q 546 0 572 0 l 199 0 q 155 18 173 0 q 136 62 136 37 l 136 403 q 115 424 136 424 l 102 424 q 57 442 75 424 q 39 488 39 460 q 57 532 39 513 q 102 550 76 550 l 115 550 q 136 571 136 550 m 262 403 l 262 189 q 281 145 262 163 q 325 126 299 126 l 498 126 q 533 140 519 126 l 614 221 q 628 256 628 235 l 628 717 q 614 751 628 737 l 533 832 q 498 846 519 846 l 325 846 q 281 827 299 846 q 262 783 262 809 l 262 571 q 283 550 262 550 l 476 550 q 520 532 502 550 q 539 488 539 513 q 521 442 539 460 q 476 424 503 424 l 283 424 q 262 403 262 424 z "},"":{"ha":888,"x_min":39,"x_max":754,"o":"m 136 571 l 136 909 q 155 954 136 935 q 199 972 173 972 l 546 972 q 590 954 572 972 l 734 808 q 754 764 754 791 l 754 208 q 734 164 754 182 l 590 18 q 546 0 572 0 l 199 0 q 155 18 173 0 q 136 62 136 37 l 136 403 q 115 424 136 424 l 102 424 q 57 442 75 424 q 39 488 39 460 q 57 532 39 513 q 102 550 76 550 l 115 550 q 136 571 136 550 m 262 403 l 262 189 q 281 145 262 163 q 325 126 299 126 l 498 126 q 533 140 519 126 l 614 221 q 628 256 628 235 l 628 717 q 614 751 628 737 l 533 832 q 498 846 519 846 l 325 846 q 281 827 299 846 q 262 783 262 809 l 262 571 q 283 550 262 550 l 476 550 q 520 532 502 550 q 539 488 539 513 q 521 442 539 460 q 476 424 503 424 l 283 424 q 262 403 262 424 z "},"":{"ha":888,"x_min":136,"x_max":754,"o":"m 576 1139 l 314 1139 q 270 1157 288 1139 q 252 1202 252 1176 q 270 1246 252 1227 q 314 1265 288 1265 l 576 1265 q 621 1246 602 1265 q 639 1202 639 1227 q 621 1157 639 1176 q 576 1139 602 1139 m 136 62 l 136 909 q 155 954 136 935 q 199 972 173 972 l 692 972 q 736 954 718 972 q 754 909 754 935 q 736 865 754 884 q 692 846 718 846 l 325 846 q 281 827 299 846 q 262 783 262 809 l 262 612 q 281 568 262 587 q 325 549 299 549 l 597 549 q 642 530 623 549 q 661 486 661 512 q 642 441 661 460 q 597 422 623 422 l 325 422 q 281 404 299 422 q 262 358 262 385 l 262 189 q 281 145 262 163 q 325 126 299 126 l 692 126 q 736 107 718 126 q 754 62 754 88 q 736 18 754 37 q 692 0 718 0 l 199 0 q 155 18 173 0 q 136 62 136 37 z "},"":{"ha":888,"x_min":136,"x_max":754,"o":"m 136 62 l 136 909 q 155 954 136 935 q 199 972 173 972 l 692 972 q 736 954 718 972 q 754 909 754 935 q 736 865 754 884 q 692 846 718 846 l 325 846 q 281 827 299 846 q 262 783 262 809 l 262 612 q 281 568 262 587 q 325 549 299 549 l 597 549 q 642 530 623 549 q 661 486 661 512 q 642 441 661 460 q 597 422 623 422 l 325 422 q 281 404 299 422 q 262 358 262 385 l 262 189 q 281 145 262 163 q 325 126 299 126 l 692 126 q 736 107 718 126 q 754 62 754 88 q 736 18 754 37 q 692 0 718 0 l 199 0 q 155 18 173 0 q 136 62 136 37 m 576 1139 l 314 1139 q 270 1157 288 1139 q 252 1202 252 1176 q 270 1246 252 1227 q 314 1265 288 1265 l 576 1265 q 621 1246 602 1265 q 639 1202 639 1227 q 621 1157 639 1176 q 576 1139 602 1139 z "},"":{"ha":888,"x_min":136,"x_max":754,"o":"m 370 1312 l 370 1299 q 383 1264 370 1278 l 406 1242 q 440 1227 420 1227 l 447 1227 q 482 1242 468 1227 l 504 1264 q 518 1299 518 1278 l 518 1312 q 533 1349 518 1333 q 570 1364 548 1364 q 606 1349 591 1364 q 621 1312 621 1333 l 621 1254 q 608 1222 621 1234 l 525 1137 q 492 1125 513 1125 l 396 1125 q 363 1137 375 1125 l 279 1222 q 267 1254 267 1235 l 267 1312 q 281 1349 267 1333 q 318 1364 296 1364 q 355 1349 340 1364 q 370 1312 370 1333 m 136 62 l 136 909 q 155 954 136 935 q 199 972 173 972 l 692 972 q 736 954 718 972 q 754 909 754 935 q 736 865 754 884 q 692 846 718 846 l 325 846 q 281 827 299 846 q 262 783 262 809 l 262 612 q 281 568 262 587 q 325 549 299 549 l 597 549 q 642 530 623 549 q 661 486 661 512 q 642 441 661 460 q 597 422 623 422 l 325 422 q 281 404 299 422 q 262 358 262 385 l 262 189 q 281 145 262 163 q 325 126 299 126 l 692 126 q 736 107 718 126 q 754 62 754 88 q 736 18 754 37 q 692 0 718 0 l 199 0 q 155 18 173 0 q 136 62 136 37 z "},"":{"ha":888,"x_min":136,"x_max":754,"o":"m 136 62 l 136 909 q 155 954 136 935 q 199 972 173 972 l 692 972 q 736 954 718 972 q 754 909 754 935 q 736 865 754 884 q 692 846 718 846 l 325 846 q 281 827 299 846 q 262 783 262 809 l 262 612 q 281 568 262 587 q 325 549 299 549 l 597 549 q 642 530 623 549 q 661 486 661 512 q 642 441 661 460 q 597 422 623 422 l 325 422 q 281 404 299 422 q 262 358 262 385 l 262 189 q 281 145 262 163 q 325 126 299 126 l 692 126 q 736 107 718 126 q 754 62 754 88 q 736 18 754 37 q 692 0 718 0 l 199 0 q 155 18 173 0 q 136 62 136 37 m 370 1312 l 370 1299 q 383 1264 370 1278 l 406 1242 q 440 1227 420 1227 l 447 1227 q 482 1242 468 1227 l 504 1264 q 518 1299 518 1278 l 518 1312 q 533 1349 518 1333 q 570 1364 548 1364 q 606 1349 591 1364 q 621 1312 621 1333 l 621 1254 q 608 1222 621 1234 l 525 1137 q 492 1125 513 1125 l 396 1125 q 363 1137 375 1125 l 279 1222 q 267 1254 267 1235 l 267 1312 q 281 1349 267 1333 q 318 1364 296 1364 q 355 1349 340 1364 q 370 1312 370 1333 z "},"":{"ha":888,"x_min":136,"x_max":754,"o":"m 465 1146 l 424 1146 q 379 1164 398 1146 q 361 1208 361 1183 l 361 1250 q 379 1294 361 1276 q 424 1312 398 1312 l 465 1312 q 509 1294 491 1312 q 528 1250 528 1276 l 528 1208 q 509 1164 528 1183 q 465 1146 491 1146 m 136 62 l 136 909 q 155 954 136 935 q 199 972 173 972 l 692 972 q 736 954 718 972 q 754 909 754 935 q 736 865 754 884 q 692 846 718 846 l 325 846 q 281 827 299 846 q 262 783 262 809 l 262 612 q 281 568 262 587 q 325 549 299 549 l 597 549 q 642 530 623 549 q 661 486 661 512 q 642 441 661 460 q 597 422 623 422 l 325 422 q 281 404 299 422 q 262 358 262 385 l 262 189 q 281 145 262 163 q 325 126 299 126 l 692 126 q 736 107 718 126 q 754 62 754 88 q 736 18 754 37 q 692 0 718 0 l 199 0 q 155 18 173 0 q 136 62 136 37 z "},"":{"ha":888,"x_min":136,"x_max":754,"o":"m 136 62 l 136 909 q 155 954 136 935 q 199 972 173 972 l 692 972 q 736 954 718 972 q 754 909 754 935 q 736 865 754 884 q 692 846 718 846 l 325 846 q 281 827 299 846 q 262 783 262 809 l 262 612 q 281 568 262 587 q 325 549 299 549 l 597 549 q 642 530 623 549 q 661 486 661 512 q 642 441 661 460 q 597 422 623 422 l 325 422 q 281 404 299 422 q 262 358 262 385 l 262 189 q 281 145 262 163 q 325 126 299 126 l 692 126 q 736 107 718 126 q 754 62 754 88 q 736 18 754 37 q 692 0 718 0 l 199 0 q 155 18 173 0 q 136 62 136 37 m 465 1146 l 424 1146 q 379 1164 398 1146 q 361 1208 361 1183 l 361 1250 q 379 1294 361 1276 q 424 1312 398 1312 l 465 1312 q 509 1294 491 1312 q 528 1250 528 1276 l 528 1208 q 509 1164 528 1183 q 465 1146 491 1146 z "},"":{"ha":888,"x_min":136,"x_max":831,"o":"m 136 62 l 136 909 q 155 954 136 935 q 199 972 173 972 l 692 972 q 736 954 718 972 q 754 909 754 935 q 736 865 754 884 q 692 846 718 846 l 325 846 q 281 827 299 846 q 262 783 262 809 l 262 612 q 281 568 262 587 q 325 549 299 549 l 597 549 q 642 530 623 549 q 661 486 661 512 q 642 441 661 460 q 597 422 623 422 l 325 422 q 281 404 299 422 q 262 358 262 385 l 262 189 q 281 145 262 163 q 325 126 299 126 l 692 126 q 736 107 718 126 q 754 62 754 88 q 736 18 754 37 q 692 0 718 0 l 199 0 q 155 18 173 0 q 136 62 136 37 m 754 56 l 754 -60 q 739 -96 754 -81 l 660 -175 q 644 -211 644 -191 q 660 -248 644 -232 l 672 -260 q 708 -275 688 -275 q 745 -260 729 -275 l 753 -252 q 785 -239 766 -239 q 818 -251 804 -239 q 831 -283 831 -264 q 817 -315 831 -301 l 779 -353 q 751 -366 768 -366 l 667 -366 q 639 -353 650 -366 l 566 -281 q 554 -253 554 -269 l 554 -168 q 566 -140 554 -157 l 648 -58 q 664 -22 664 -43 l 664 56 q 676 87 664 75 q 708 100 688 100 q 741 87 728 100 q 754 56 754 75 z "},"":{"ha":888,"x_min":136,"x_max":831,"o":"m 136 62 l 136 909 q 155 954 136 935 q 199 972 173 972 l 692 972 q 736 954 718 972 q 754 909 754 935 q 736 865 754 884 q 692 846 718 846 l 325 846 q 281 827 299 846 q 262 783 262 809 l 262 612 q 281 568 262 587 q 325 549 299 549 l 597 549 q 642 530 623 549 q 661 486 661 512 q 642 441 661 460 q 597 422 623 422 l 325 422 q 281 404 299 422 q 262 358 262 385 l 262 189 q 281 145 262 163 q 325 126 299 126 l 692 126 q 736 107 718 126 q 754 62 754 88 q 736 18 754 37 q 692 0 718 0 l 199 0 q 155 18 173 0 q 136 62 136 37 m 754 56 l 754 -60 q 739 -96 754 -81 l 660 -175 q 644 -211 644 -191 q 660 -248 644 -232 l 672 -260 q 708 -275 688 -275 q 745 -260 729 -275 l 753 -252 q 785 -239 766 -239 q 818 -251 804 -239 q 831 -283 831 -264 q 817 -315 831 -301 l 779 -353 q 751 -366 768 -366 l 667 -366 q 639 -353 650 -366 l 566 -281 q 554 -253 554 -269 l 554 -168 q 566 -140 554 -157 l 648 -58 q 664 -22 664 -43 l 664 56 q 676 87 664 75 q 708 100 688 100 q 741 87 728 100 q 754 56 754 75 z "},"":{"ha":888,"x_min":136,"x_max":754,"o":"m 354 1348 l 404 1297 q 444 1280 421 1280 q 484 1297 467 1280 l 533 1348 q 572 1364 549 1364 q 612 1348 596 1364 q 628 1308 628 1332 q 612 1270 628 1290 l 484 1140 q 444 1125 469 1125 q 404 1140 419 1125 l 277 1270 q 260 1308 260 1286 q 277 1347 260 1330 q 315 1364 294 1364 q 354 1348 338 1364 m 136 62 l 136 909 q 155 954 136 935 q 199 972 173 972 l 692 972 q 736 954 718 972 q 754 909 754 935 q 736 865 754 884 q 692 846 718 846 l 325 846 q 281 827 299 846 q 262 783 262 809 l 262 612 q 281 568 262 587 q 325 549 299 549 l 597 549 q 642 530 623 549 q 661 486 661 512 q 642 441 661 460 q 597 422 623 422 l 325 422 q 281 404 299 422 q 262 358 262 385 l 262 189 q 281 145 262 163 q 325 126 299 126 l 692 126 q 736 107 718 126 q 754 62 754 88 q 736 18 754 37 q 692 0 718 0 l 199 0 q 155 18 173 0 q 136 62 136 37 z "},"":{"ha":888,"x_min":136,"x_max":754,"o":"m 136 62 l 136 909 q 155 954 136 935 q 199 972 173 972 l 692 972 q 736 954 718 972 q 754 909 754 935 q 736 865 754 884 q 692 846 718 846 l 325 846 q 281 827 299 846 q 262 783 262 809 l 262 612 q 281 568 262 587 q 325 549 299 549 l 597 549 q 642 530 623 549 q 661 486 661 512 q 642 441 661 460 q 597 422 623 422 l 325 422 q 281 404 299 422 q 262 358 262 385 l 262 189 q 281 145 262 163 q 325 126 299 126 l 692 126 q 736 107 718 126 q 754 62 754 88 q 736 18 754 37 q 692 0 718 0 l 199 0 q 155 18 173 0 q 136 62 136 37 m 354 1348 l 404 1297 q 444 1280 421 1280 q 484 1297 467 1280 l 533 1348 q 572 1364 549 1364 q 612 1348 596 1364 q 628 1308 628 1332 q 612 1270 628 1290 l 484 1140 q 444 1125 469 1125 q 404 1140 419 1125 l 277 1270 q 260 1308 260 1286 q 277 1347 260 1330 q 315 1364 294 1364 q 354 1348 338 1364 z "},"":{"ha":888,"x_min":136,"x_max":754,"o":"m 406 1190 l 354 1140 q 315 1125 341 1125 q 276 1140 292 1125 q 260 1179 260 1156 q 277 1219 260 1202 l 406 1348 q 444 1364 420 1364 q 484 1348 467 1364 l 612 1219 q 628 1179 628 1204 q 613 1140 628 1156 q 574 1125 597 1125 q 533 1140 548 1125 l 484 1190 q 444 1207 467 1207 q 406 1190 420 1207 m 628 729 l 628 746 q 614 781 628 766 l 562 832 q 528 846 549 846 l 363 846 q 328 832 341 846 l 277 781 q 262 746 262 766 l 262 227 q 277 192 262 206 l 328 140 q 363 126 342 126 l 528 126 q 562 140 548 126 l 614 192 q 628 227 628 206 l 628 359 q 610 404 628 385 q 566 422 591 422 l 482 422 q 437 441 456 422 q 418 486 418 460 q 437 530 418 512 q 482 549 456 549 l 692 549 q 736 530 718 549 q 754 486 754 512 l 754 180 q 736 135 754 153 l 619 20 q 574 0 602 0 l 315 0 q 271 20 288 0 l 154 135 q 136 180 136 153 l 136 793 q 154 838 136 820 l 271 953 q 315 972 288 972 l 574 972 q 619 953 602 972 l 736 838 q 754 793 754 819 l 754 729 q 736 685 754 703 q 692 667 718 667 q 647 685 666 667 q 628 729 628 703 z "},"":{"ha":888,"x_min":136,"x_max":754,"o":"m 628 729 l 628 746 q 614 781 628 766 l 562 832 q 528 846 549 846 l 363 846 q 328 832 341 846 l 277 781 q 262 746 262 766 l 262 227 q 277 192 262 206 l 328 140 q 363 126 342 126 l 528 126 q 562 140 548 126 l 614 192 q 628 227 628 206 l 628 359 q 610 404 628 385 q 566 422 591 422 l 482 422 q 437 441 456 422 q 418 486 418 460 q 437 530 418 512 q 482 549 456 549 l 692 549 q 736 530 718 549 q 754 486 754 512 l 754 180 q 736 135 754 153 l 619 20 q 574 0 602 0 l 315 0 q 271 20 288 0 l 154 135 q 136 180 136 153 l 136 793 q 154 838 136 820 l 271 953 q 315 972 288 972 l 574 972 q 619 953 602 972 l 736 838 q 754 793 754 819 l 754 729 q 736 685 754 703 q 692 667 718 667 q 647 685 666 667 q 628 729 628 703 m 406 1190 l 354 1140 q 315 1125 341 1125 q 276 1140 292 1125 q 260 1179 260 1156 q 277 1219 260 1202 l 406 1348 q 444 1364 420 1364 q 484 1348 467 1364 l 612 1219 q 628 1179 628 1204 q 613 1140 628 1156 q 574 1125 597 1125 q 533 1140 548 1125 l 484 1190 q 444 1207 467 1207 q 406 1190 420 1207 z "},"":{"ha":888,"x_min":136,"x_max":754,"o":"m 370 1312 l 370 1299 q 383 1264 370 1278 l 406 1242 q 440 1227 420 1227 l 447 1227 q 482 1242 468 1227 l 504 1264 q 518 1299 518 1278 l 518 1312 q 533 1349 518 1333 q 570 1364 548 1364 q 606 1349 591 1364 q 621 1312 621 1333 l 621 1254 q 608 1222 621 1234 l 525 1137 q 492 1125 513 1125 l 396 1125 q 363 1137 375 1125 l 279 1222 q 267 1254 267 1235 l 267 1312 q 281 1349 267 1333 q 318 1364 296 1364 q 355 1349 340 1364 q 370 1312 370 1333 m 628 729 l 628 746 q 614 781 628 766 l 562 832 q 528 846 549 846 l 363 846 q 328 832 341 846 l 277 781 q 262 746 262 766 l 262 227 q 277 192 262 206 l 328 140 q 363 126 342 126 l 528 126 q 562 140 548 126 l 614 192 q 628 227 628 206 l 628 359 q 610 404 628 385 q 566 422 591 422 l 482 422 q 437 441 456 422 q 418 486 418 460 q 437 530 418 512 q 482 549 456 549 l 692 549 q 736 530 718 549 q 754 486 754 512 l 754 180 q 736 135 754 153 l 619 20 q 574 0 602 0 l 315 0 q 271 20 288 0 l 154 135 q 136 180 136 153 l 136 793 q 154 838 136 820 l 271 953 q 315 972 288 972 l 574 972 q 619 953 602 972 l 736 838 q 754 793 754 819 l 754 729 q 736 685 754 703 q 692 667 718 667 q 647 685 666 667 q 628 729 628 703 z "},"":{"ha":888,"x_min":136,"x_max":754,"o":"m 628 729 l 628 746 q 614 781 628 766 l 562 832 q 528 846 549 846 l 363 846 q 328 832 341 846 l 277 781 q 262 746 262 766 l 262 227 q 277 192 262 206 l 328 140 q 363 126 342 126 l 528 126 q 562 140 548 126 l 614 192 q 628 227 628 206 l 628 359 q 610 404 628 385 q 566 422 591 422 l 482 422 q 437 441 456 422 q 418 486 418 460 q 437 530 418 512 q 482 549 456 549 l 692 549 q 736 530 718 549 q 754 486 754 512 l 754 180 q 736 135 754 153 l 619 20 q 574 0 602 0 l 315 0 q 271 20 288 0 l 154 135 q 136 180 136 153 l 136 793 q 154 838 136 820 l 271 953 q 315 972 288 972 l 574 972 q 619 953 602 972 l 736 838 q 754 793 754 819 l 754 729 q 736 685 754 703 q 692 667 718 667 q 647 685 666 667 q 628 729 628 703 m 370 1312 l 370 1299 q 383 1264 370 1278 l 406 1242 q 440 1227 420 1227 l 447 1227 q 482 1242 468 1227 l 504 1264 q 518 1299 518 1278 l 518 1312 q 533 1349 518 1333 q 570 1364 548 1364 q 606 1349 591 1364 q 621 1312 621 1333 l 621 1254 q 608 1222 621 1234 l 525 1137 q 492 1125 513 1125 l 396 1125 q 363 1137 375 1125 l 279 1222 q 267 1254 267 1235 l 267 1312 q 281 1349 267 1333 q 318 1364 296 1364 q 355 1349 340 1364 q 370 1312 370 1333 z "},"":{"ha":888,"x_min":136,"x_max":754,"o":"m 465 1146 l 424 1146 q 379 1164 398 1146 q 361 1208 361 1183 l 361 1250 q 379 1294 361 1276 q 424 1312 398 1312 l 465 1312 q 509 1294 491 1312 q 528 1250 528 1276 l 528 1208 q 509 1164 528 1183 q 465 1146 491 1146 m 628 729 l 628 746 q 614 781 628 766 l 562 832 q 528 846 549 846 l 363 846 q 328 832 341 846 l 277 781 q 262 746 262 766 l 262 227 q 277 192 262 206 l 328 140 q 363 126 342 126 l 528 126 q 562 140 548 126 l 614 192 q 628 227 628 206 l 628 359 q 610 404 628 385 q 566 422 591 422 l 482 422 q 437 441 456 422 q 418 486 418 460 q 437 530 418 512 q 482 549 456 549 l 692 549 q 736 530 718 549 q 754 486 754 512 l 754 180 q 736 135 754 153 l 619 20 q 574 0 602 0 l 315 0 q 271 20 288 0 l 154 135 q 136 180 136 153 l 136 793 q 154 838 136 820 l 271 953 q 315 972 288 972 l 574 972 q 619 953 602 972 l 736 838 q 754 793 754 819 l 754 729 q 736 685 754 703 q 692 667 718 667 q 647 685 666 667 q 628 729 628 703 z "},"":{"ha":888,"x_min":136,"x_max":754,"o":"m 628 729 l 628 746 q 614 781 628 766 l 562 832 q 528 846 549 846 l 363 846 q 328 832 341 846 l 277 781 q 262 746 262 766 l 262 227 q 277 192 262 206 l 328 140 q 363 126 342 126 l 528 126 q 562 140 548 126 l 614 192 q 628 227 628 206 l 628 359 q 610 404 628 385 q 566 422 591 422 l 482 422 q 437 441 456 422 q 418 486 418 460 q 437 530 418 512 q 482 549 456 549 l 692 549 q 736 530 718 549 q 754 486 754 512 l 754 180 q 736 135 754 153 l 619 20 q 574 0 602 0 l 315 0 q 271 20 288 0 l 154 135 q 136 180 136 153 l 136 793 q 154 838 136 820 l 271 953 q 315 972 288 972 l 574 972 q 619 953 602 972 l 736 838 q 754 793 754 819 l 754 729 q 736 685 754 703 q 692 667 718 667 q 647 685 666 667 q 628 729 628 703 m 465 1146 l 424 1146 q 379 1164 398 1146 q 361 1208 361 1183 l 361 1250 q 379 1294 361 1276 q 424 1312 398 1312 l 465 1312 q 509 1294 491 1312 q 528 1250 528 1276 l 528 1208 q 509 1164 528 1183 q 465 1146 491 1146 z "},"":{"ha":888,"x_min":136,"x_max":754,"o":"m 628 729 l 628 746 q 614 781 628 766 l 562 832 q 528 846 549 846 l 363 846 q 328 832 341 846 l 277 781 q 262 746 262 766 l 262 227 q 277 192 262 206 l 328 140 q 363 126 342 126 l 528 126 q 562 140 548 126 l 614 192 q 628 227 628 206 l 628 359 q 610 404 628 385 q 566 422 591 422 l 482 422 q 437 441 456 422 q 418 486 418 460 q 437 530 418 512 q 482 549 456 549 l 692 549 q 736 530 718 549 q 754 486 754 512 l 754 180 q 736 135 754 153 l 619 20 q 574 0 602 0 l 315 0 q 271 20 288 0 l 154 135 q 136 180 136 153 l 136 793 q 154 838 136 820 l 271 953 q 315 972 288 972 l 574 972 q 619 953 602 972 l 736 838 q 754 793 754 819 l 754 729 q 736 685 754 703 q 692 667 718 667 q 647 685 666 667 q 628 729 628 703 m 545 -233 l 432 -347 q 387 -366 414 -366 q 343 -347 359 -366 q 323 -302 323 -328 q 343 -258 323 -278 l 456 -144 q 500 -126 474 -126 q 545 -144 528 -126 q 564 -189 564 -163 q 545 -233 564 -216 z "},"":{"ha":888,"x_min":136,"x_max":754,"o":"m 628 729 l 628 746 q 614 781 628 766 l 562 832 q 528 846 549 846 l 363 846 q 328 832 341 846 l 277 781 q 262 746 262 766 l 262 227 q 277 192 262 206 l 328 140 q 363 126 342 126 l 528 126 q 562 140 548 126 l 614 192 q 628 227 628 206 l 628 359 q 610 404 628 385 q 566 422 591 422 l 482 422 q 437 441 456 422 q 418 486 418 460 q 437 530 418 512 q 482 549 456 549 l 692 549 q 736 530 718 549 q 754 486 754 512 l 754 180 q 736 135 754 153 l 619 20 q 574 0 602 0 l 315 0 q 271 20 288 0 l 154 135 q 136 180 136 153 l 136 793 q 154 838 136 820 l 271 953 q 315 972 288 972 l 574 972 q 619 953 602 972 l 736 838 q 754 793 754 819 l 754 729 q 736 685 754 703 q 692 667 718 667 q 647 685 666 667 q 628 729 628 703 m 545 -233 l 432 -347 q 387 -366 414 -366 q 343 -347 359 -366 q 323 -302 323 -328 q 343 -258 323 -278 l 456 -144 q 500 -126 474 -126 q 545 -144 528 -126 q 564 -189 564 -163 q 545 -233 564 -216 z "},"":{"ha":888,"x_min":136,"x_max":754,"o":"m 406 1190 l 354 1140 q 315 1125 341 1125 q 276 1140 292 1125 q 260 1179 260 1156 q 277 1219 260 1202 l 406 1348 q 444 1364 420 1364 q 484 1348 467 1364 l 612 1219 q 628 1179 628 1204 q 613 1140 628 1156 q 574 1125 597 1125 q 533 1140 548 1125 l 484 1190 q 444 1207 467 1207 q 406 1190 420 1207 m 754 909 l 754 62 q 736 18 754 37 q 692 0 718 0 q 646 18 664 0 q 628 62 628 36 l 628 359 q 610 405 628 386 q 566 424 591 424 l 325 424 q 281 405 299 424 q 262 359 262 386 l 262 62 q 243 18 262 37 q 199 0 224 0 q 155 18 173 0 q 136 62 136 37 l 136 909 q 155 954 136 935 q 199 972 173 972 q 243 954 224 972 q 262 909 262 935 l 262 612 q 281 568 262 587 q 325 549 299 549 l 566 549 q 610 568 591 549 q 628 612 628 587 l 628 909 q 646 954 628 936 q 692 972 664 972 q 736 954 718 972 q 754 909 754 935 z "},"":{"ha":888,"x_min":136,"x_max":754,"o":"m 754 909 l 754 62 q 736 18 754 37 q 692 0 718 0 q 646 18 664 0 q 628 62 628 36 l 628 359 q 610 405 628 386 q 566 424 591 424 l 325 424 q 281 405 299 424 q 262 359 262 386 l 262 62 q 243 18 262 37 q 199 0 224 0 q 155 18 173 0 q 136 62 136 37 l 136 909 q 155 954 136 935 q 199 972 173 972 q 243 954 224 972 q 262 909 262 935 l 262 612 q 281 568 262 587 q 325 549 299 549 l 566 549 q 610 568 591 549 q 628 612 628 587 l 628 909 q 646 954 628 936 q 692 972 664 972 q 736 954 718 972 q 754 909 754 935 m 354 1140 l 406 1190 q 444 1207 420 1207 q 484 1190 467 1207 l 533 1140 q 574 1125 548 1125 q 613 1140 597 1125 q 628 1179 628 1156 q 612 1219 628 1204 l 484 1348 q 444 1364 467 1364 q 406 1348 420 1364 l 277 1219 q 260 1179 260 1202 q 276 1140 260 1156 q 315 1125 292 1125 q 354 1140 341 1125 z "},"":{"ha":888,"x_min":39,"x_max":850,"o":"m 628 842 l 628 909 q 646 954 628 936 q 692 972 664 972 q 736 954 718 972 q 754 909 754 935 l 754 842 q 775 821 754 821 l 787 821 q 831 802 813 821 q 850 758 850 784 q 832 712 850 730 q 787 694 814 694 l 775 694 q 754 673 754 694 l 754 61 q 736 17 754 35 q 692 -1 718 -1 q 646 17 664 -1 q 628 61 628 35 l 628 358 q 610 404 628 385 q 566 422 591 422 l 325 422 q 281 404 299 422 q 262 358 262 385 l 262 61 q 243 17 262 35 q 199 -1 224 -1 q 155 17 173 -1 q 136 61 136 35 l 136 673 q 115 694 136 694 l 102 694 q 57 712 75 694 q 39 758 39 730 q 57 802 39 784 q 102 821 76 821 l 115 821 q 136 842 136 821 l 136 909 q 155 954 136 935 q 199 972 173 972 q 243 954 224 972 q 262 909 262 935 l 262 842 q 283 821 262 821 l 607 821 q 628 842 628 821 m 262 673 l 262 612 q 281 568 262 587 q 325 549 299 549 l 566 549 q 610 568 591 549 q 628 612 628 587 l 628 673 q 607 694 628 694 l 283 694 q 262 673 262 694 z "},"":{"ha":888,"x_min":39,"x_max":850,"o":"m 628 842 l 628 909 q 646 954 628 936 q 692 972 664 972 q 736 954 718 972 q 754 909 754 935 l 754 842 q 775 821 754 821 l 787 821 q 831 802 813 821 q 850 758 850 784 q 832 712 850 730 q 787 694 814 694 l 775 694 q 754 673 754 694 l 754 61 q 736 17 754 35 q 692 -1 718 -1 q 646 17 664 -1 q 628 61 628 35 l 628 358 q 610 404 628 385 q 566 422 591 422 l 325 422 q 281 404 299 422 q 262 358 262 385 l 262 61 q 243 17 262 35 q 199 -1 224 -1 q 155 17 173 -1 q 136 61 136 35 l 136 673 q 115 694 136 694 l 102 694 q 57 712 75 694 q 39 758 39 730 q 57 802 39 784 q 102 821 76 821 l 115 821 q 136 842 136 821 l 136 909 q 155 954 136 935 q 199 972 173 972 q 243 954 224 972 q 262 909 262 935 l 262 842 q 283 821 262 821 l 607 821 q 628 842 628 821 m 262 673 l 262 612 q 281 568 262 587 q 325 549 299 549 l 566 549 q 610 568 591 549 q 628 612 628 587 l 628 673 q 607 694 628 694 l 283 694 q 262 673 262 694 z "},"":{"ha":888,"x_min":199,"x_max":692,"o":"m 349 1278 l 328 1255 l 328 1211 q 312 1174 328 1190 q 275 1158 297 1158 q 239 1174 254 1158 q 224 1211 224 1190 l 224 1280 q 237 1312 224 1299 l 293 1368 q 325 1382 307 1382 l 395 1382 q 428 1368 414 1382 l 484 1312 q 496 1280 496 1298 l 496 1250 l 518 1229 l 541 1229 l 561 1250 l 561 1296 q 576 1332 561 1317 q 614 1348 592 1348 q 650 1332 635 1348 q 665 1296 665 1317 l 665 1226 q 653 1194 665 1206 l 596 1139 q 564 1125 587 1125 l 494 1125 q 461 1139 475 1125 l 406 1194 q 393 1226 393 1206 l 393 1255 l 371 1278 l 349 1278 m 629 0 l 261 0 q 217 18 235 0 q 199 62 199 37 q 217 107 199 88 q 261 126 235 126 l 319 126 q 363 145 345 126 q 382 189 382 163 l 382 783 q 363 827 382 809 q 319 846 345 846 l 261 846 q 217 865 235 846 q 199 909 199 884 q 217 954 199 935 q 261 972 235 972 l 629 972 q 673 954 655 972 q 692 909 692 935 q 673 865 692 884 q 629 846 655 846 l 571 846 q 527 827 545 846 q 509 783 509 809 l 509 189 q 527 145 509 163 q 571 126 545 126 l 629 126 q 673 107 655 126 q 692 62 692 88 q 673 18 692 37 q 629 0 655 0 z "},"":{"ha":888,"x_min":199,"x_max":692,"o":"m 629 0 l 261 0 q 217 18 235 0 q 199 62 199 37 q 217 107 199 88 q 261 126 235 126 l 319 126 q 363 145 345 126 q 382 189 382 163 l 382 783 q 363 827 382 809 q 319 846 345 846 l 261 846 q 217 865 235 846 q 199 909 199 884 q 217 954 199 935 q 261 972 235 972 l 629 972 q 673 954 655 972 q 692 909 692 935 q 673 865 692 884 q 629 846 655 846 l 571 846 q 527 827 545 846 q 509 783 509 809 l 509 189 q 527 145 509 163 q 571 126 545 126 l 629 126 q 673 107 655 126 q 692 62 692 88 q 673 18 692 37 q 629 0 655 0 m 349 1278 l 328 1255 l 328 1211 q 312 1174 328 1190 q 275 1158 297 1158 q 239 1174 254 1158 q 224 1211 224 1190 l 224 1280 q 237 1312 224 1299 l 293 1368 q 325 1382 307 1382 l 395 1382 q 428 1368 414 1382 l 484 1312 q 496 1280 496 1298 l 496 1250 l 518 1229 l 541 1229 l 561 1250 l 561 1296 q 576 1332 561 1317 q 614 1348 592 1348 q 650 1332 635 1348 q 665 1296 665 1317 l 665 1226 q 653 1194 665 1206 l 596 1139 q 564 1125 587 1125 l 494 1125 q 461 1139 475 1125 l 406 1194 q 393 1226 393 1206 l 393 1255 l 371 1278 l 349 1278 z "},"":{"ha":888,"x_min":199,"x_max":692,"o":"m 576 1139 l 314 1139 q 270 1157 288 1139 q 252 1202 252 1176 q 270 1246 252 1227 q 314 1265 288 1265 l 576 1265 q 621 1246 602 1265 q 639 1202 639 1227 q 621 1157 639 1176 q 576 1139 602 1139 m 629 0 l 261 0 q 217 18 235 0 q 199 62 199 37 q 217 107 199 88 q 261 126 235 126 l 319 126 q 363 145 345 126 q 382 189 382 163 l 382 783 q 363 827 382 809 q 319 846 345 846 l 261 846 q 217 865 235 846 q 199 909 199 884 q 217 954 199 935 q 261 972 235 972 l 629 972 q 673 954 655 972 q 692 909 692 935 q 673 865 692 884 q 629 846 655 846 l 571 846 q 527 827 545 846 q 509 783 509 809 l 509 189 q 527 145 509 163 q 571 126 545 126 l 629 126 q 673 107 655 126 q 692 62 692 88 q 673 18 692 37 q 629 0 655 0 z "},"":{"ha":888,"x_min":199,"x_max":692,"o":"m 629 0 l 261 0 q 217 18 235 0 q 199 62 199 37 q 217 107 199 88 q 261 126 235 126 l 319 126 q 363 145 345 126 q 382 189 382 163 l 382 783 q 363 827 382 809 q 319 846 345 846 l 261 846 q 217 865 235 846 q 199 909 199 884 q 217 954 199 935 q 261 972 235 972 l 629 972 q 673 954 655 972 q 692 909 692 935 q 673 865 692 884 q 629 846 655 846 l 571 846 q 527 827 545 846 q 509 783 509 809 l 509 189 q 527 145 509 163 q 571 126 545 126 l 629 126 q 673 107 655 126 q 692 62 692 88 q 673 18 692 37 q 629 0 655 0 m 576 1139 l 314 1139 q 270 1157 288 1139 q 252 1202 252 1176 q 270 1246 252 1227 q 314 1265 288 1265 l 576 1265 q 621 1246 602 1265 q 639 1202 639 1227 q 621 1157 639 1176 q 576 1139 602 1139 z "},"":{"ha":888,"x_min":199,"x_max":692,"o":"m 370 1312 l 370 1299 q 383 1264 370 1278 l 406 1242 q 440 1227 420 1227 l 447 1227 q 482 1242 468 1227 l 504 1264 q 518 1299 518 1278 l 518 1312 q 533 1349 518 1333 q 570 1364 548 1364 q 606 1349 591 1364 q 621 1312 621 1333 l 621 1254 q 608 1222 621 1234 l 525 1137 q 492 1125 513 1125 l 396 1125 q 363 1137 375 1125 l 279 1222 q 267 1254 267 1235 l 267 1312 q 281 1349 267 1333 q 318 1364 296 1364 q 355 1349 340 1364 q 370 1312 370 1333 m 629 0 l 261 0 q 217 18 235 0 q 199 62 199 37 q 217 107 199 88 q 261 126 235 126 l 319 126 q 363 145 345 126 q 382 189 382 163 l 382 783 q 363 827 382 809 q 319 846 345 846 l 261 846 q 217 865 235 846 q 199 909 199 884 q 217 954 199 935 q 261 972 235 972 l 629 972 q 673 954 655 972 q 692 909 692 935 q 673 865 692 884 q 629 846 655 846 l 571 846 q 527 827 545 846 q 509 783 509 809 l 509 189 q 527 145 509 163 q 571 126 545 126 l 629 126 q 673 107 655 126 q 692 62 692 88 q 673 18 692 37 q 629 0 655 0 z "},"":{"ha":888,"x_min":199,"x_max":692,"o":"m 629 0 l 261 0 q 217 18 235 0 q 199 62 199 37 q 217 107 199 88 q 261 126 235 126 l 319 126 q 363 145 345 126 q 382 189 382 163 l 382 783 q 363 827 382 809 q 319 846 345 846 l 261 846 q 217 865 235 846 q 199 909 199 884 q 217 954 199 935 q 261 972 235 972 l 629 972 q 673 954 655 972 q 692 909 692 935 q 673 865 692 884 q 629 846 655 846 l 571 846 q 527 827 545 846 q 509 783 509 809 l 509 189 q 527 145 509 163 q 571 126 545 126 l 629 126 q 673 107 655 126 q 692 62 692 88 q 673 18 692 37 q 629 0 655 0 m 370 1299 l 370 1312 q 355 1349 370 1333 q 318 1364 340 1364 q 281 1349 296 1364 q 267 1312 267 1333 l 267 1254 q 279 1222 267 1235 l 363 1137 q 396 1125 375 1125 l 492 1125 q 525 1137 513 1125 l 608 1222 q 621 1254 621 1234 l 621 1312 q 606 1349 621 1333 q 570 1364 591 1364 q 533 1349 548 1364 q 518 1312 518 1333 l 518 1299 q 504 1264 518 1278 l 482 1242 q 447 1227 468 1227 l 440 1227 q 406 1242 420 1227 l 383 1264 q 370 1299 370 1278 z "},"":{"ha":888,"x_min":199,"x_max":692,"o":"m 629 0 l 261 0 q 217 18 235 0 q 199 62 199 37 q 217 107 199 88 q 261 126 235 126 l 319 126 q 363 145 345 126 q 382 189 382 163 l 382 783 q 363 827 382 809 q 319 846 345 846 l 261 846 q 217 865 235 846 q 199 909 199 884 q 217 954 199 935 q 261 972 235 972 l 629 972 q 673 954 655 972 q 692 909 692 935 q 673 865 692 884 q 629 846 655 846 l 571 846 q 527 827 545 846 q 509 783 509 809 l 509 189 q 527 145 509 163 q 571 126 545 126 l 629 126 q 673 107 655 126 q 692 62 692 88 q 673 18 692 37 q 629 0 655 0 m 490 54 l 490 -61 q 475 -97 490 -81 l 396 -176 q 380 -212 380 -192 q 396 -249 380 -233 l 408 -261 q 444 -277 424 -277 q 481 -261 465 -277 l 489 -253 q 521 -240 502 -240 q 554 -253 541 -240 q 567 -285 567 -265 q 553 -317 567 -302 l 515 -354 q 488 -367 505 -367 l 403 -367 q 375 -354 386 -367 l 301 -282 q 290 -254 290 -271 l 290 -170 q 301 -142 290 -157 l 385 -60 q 400 -24 400 -44 l 400 54 q 412 86 400 74 q 444 98 425 98 q 477 86 465 98 q 490 54 490 74 z "},"":{"ha":888,"x_min":199,"x_max":692,"o":"m 629 0 l 261 0 q 217 18 235 0 q 199 62 199 37 q 217 107 199 88 q 261 126 235 126 l 319 126 q 363 145 345 126 q 382 189 382 163 l 382 783 q 363 827 382 809 q 319 846 345 846 l 261 846 q 217 865 235 846 q 199 909 199 884 q 217 954 199 935 q 261 972 235 972 l 629 972 q 673 954 655 972 q 692 909 692 935 q 673 865 692 884 q 629 846 655 846 l 571 846 q 527 827 545 846 q 509 783 509 809 l 509 189 q 527 145 509 163 q 571 126 545 126 l 629 126 q 673 107 655 126 q 692 62 692 88 q 673 18 692 37 q 629 0 655 0 m 490 54 l 490 -61 q 475 -97 490 -81 l 396 -176 q 380 -212 380 -192 q 396 -249 380 -233 l 408 -261 q 444 -277 424 -277 q 481 -261 465 -277 l 489 -253 q 521 -240 502 -240 q 554 -253 541 -240 q 567 -285 567 -265 q 553 -317 567 -302 l 515 -354 q 488 -367 505 -367 l 403 -367 q 375 -354 386 -367 l 301 -282 q 290 -254 290 -271 l 290 -170 q 301 -142 290 -157 l 385 -60 q 400 -24 400 -44 l 400 54 q 412 86 400 74 q 444 98 425 98 q 477 86 465 98 q 490 54 490 74 z "},"":{"ha":888,"x_min":199,"x_max":692,"o":"m 465 1146 l 424 1146 q 379 1164 398 1146 q 361 1208 361 1183 l 361 1250 q 379 1294 361 1276 q 424 1312 398 1312 l 465 1312 q 509 1294 491 1312 q 528 1250 528 1276 l 528 1208 q 509 1164 528 1183 q 465 1146 491 1146 m 629 0 l 261 0 q 217 18 235 0 q 199 62 199 37 q 217 107 199 88 q 261 126 235 126 l 319 126 q 363 145 345 126 q 382 189 382 163 l 382 783 q 363 827 382 809 q 319 846 345 846 l 261 846 q 217 865 235 846 q 199 909 199 884 q 217 954 199 935 q 261 972 235 972 l 629 972 q 673 954 655 972 q 692 909 692 935 q 673 865 692 884 q 629 846 655 846 l 571 846 q 527 827 545 846 q 509 783 509 809 l 509 189 q 527 145 509 163 q 571 126 545 126 l 629 126 q 673 107 655 126 q 692 62 692 88 q 673 18 692 37 q 629 0 655 0 z "},"":{"ha":888,"x_min":199,"x_max":692,"o":"m 629 0 l 261 0 q 217 18 235 0 q 199 62 199 37 q 217 107 199 88 q 261 126 235 126 l 319 126 q 363 145 345 126 q 382 189 382 163 l 382 783 q 363 827 382 809 q 319 846 345 846 l 261 846 q 217 865 235 846 q 199 909 199 884 q 217 954 199 935 q 261 972 235 972 l 629 972 q 673 954 655 972 q 692 909 692 935 q 673 865 692 884 q 629 846 655 846 l 571 846 q 527 827 545 846 q 509 783 509 809 l 509 189 q 527 145 509 163 q 571 126 545 126 l 629 126 q 673 107 655 126 q 692 62 692 88 q 673 18 692 37 q 629 0 655 0 z "},"":{"ha":888,"x_min":136,"x_max":754,"o":"m 517 1190 l 465 1140 q 427 1125 452 1125 q 387 1140 403 1125 q 371 1179 371 1156 q 387 1219 371 1203 l 517 1348 q 555 1364 531 1364 q 595 1348 578 1364 l 724 1219 q 739 1179 739 1204 q 724 1140 739 1156 q 685 1125 709 1125 q 644 1140 659 1125 l 595 1190 q 555 1207 578 1207 q 517 1190 532 1207 m 628 227 l 628 783 q 610 827 628 809 q 566 846 591 846 l 444 846 q 400 865 418 846 q 382 909 382 884 q 400 954 382 935 q 444 972 418 972 l 692 972 q 736 954 718 972 q 754 909 754 935 l 754 180 q 736 135 754 153 l 619 20 q 575 0 602 0 l 315 0 q 271 20 288 0 l 154 135 q 136 180 136 153 l 136 297 q 155 342 136 323 q 199 361 173 361 q 243 342 224 361 q 262 297 262 323 l 262 227 q 277 192 262 206 l 328 140 q 363 126 342 126 l 528 126 q 562 140 548 126 l 614 192 q 628 227 628 206 z "},"":{"ha":888,"x_min":136,"x_max":754,"o":"m 628 227 l 628 783 q 610 827 628 809 q 566 846 591 846 l 444 846 q 400 865 418 846 q 382 909 382 884 q 400 954 382 935 q 444 972 418 972 l 692 972 q 736 954 718 972 q 754 909 754 935 l 754 180 q 736 135 754 153 l 619 20 q 575 0 602 0 l 315 0 q 271 20 288 0 l 154 135 q 136 180 136 153 l 136 297 q 155 342 136 323 q 199 361 173 361 q 243 342 224 361 q 262 297 262 323 l 262 227 q 277 192 262 206 l 328 140 q 363 126 342 126 l 528 126 q 562 140 548 126 l 614 192 q 628 227 628 206 m 517 1190 l 465 1140 q 427 1125 452 1125 q 387 1140 403 1125 q 371 1179 371 1156 q 387 1219 371 1203 l 517 1348 q 555 1364 531 1364 q 595 1348 578 1364 l 724 1219 q 739 1179 739 1204 q 724 1140 739 1156 q 685 1125 709 1125 q 644 1140 659 1125 l 595 1190 q 555 1207 578 1207 q 517 1190 532 1207 z "},"":{"ha":888,"x_min":136,"x_max":754,"o":"m 390 424 l 325 424 q 281 405 299 424 q 262 359 262 386 l 262 62 q 243 18 262 37 q 199 0 224 0 q 155 18 173 0 q 136 62 136 37 l 136 909 q 155 954 136 935 q 199 972 173 972 q 243 954 224 972 q 262 909 262 935 l 262 612 q 281 568 262 587 q 325 549 299 549 l 390 549 q 425 562 412 549 l 614 751 q 628 786 628 766 l 628 909 q 647 954 628 935 q 692 972 666 972 q 736 954 718 972 q 754 909 754 935 l 754 739 q 736 694 754 713 l 571 530 q 553 486 553 510 q 571 441 553 462 l 736 278 q 754 233 754 260 l 754 62 q 736 18 754 37 q 692 0 718 0 q 647 18 666 0 q 628 62 628 37 l 628 186 q 614 221 628 207 l 425 410 q 390 424 411 424 m 545 -233 l 432 -347 q 387 -366 414 -366 q 343 -347 359 -366 q 323 -302 323 -328 q 343 -258 323 -278 l 456 -144 q 500 -126 474 -126 q 545 -144 528 -126 q 564 -189 564 -163 q 545 -233 564 -216 z "},"":{"ha":888,"x_min":136,"x_max":754,"o":"m 390 424 l 325 424 q 281 405 299 424 q 262 359 262 386 l 262 62 q 243 18 262 37 q 199 0 224 0 q 155 18 173 0 q 136 62 136 37 l 136 909 q 155 954 136 935 q 199 972 173 972 q 243 954 224 972 q 262 909 262 935 l 262 612 q 281 568 262 587 q 325 549 299 549 l 390 549 q 425 562 412 549 l 614 751 q 628 786 628 766 l 628 909 q 647 954 628 935 q 692 972 666 972 q 736 954 718 972 q 754 909 754 935 l 754 739 q 736 694 754 713 l 571 530 q 553 486 553 510 q 571 441 553 462 l 736 278 q 754 233 754 260 l 754 62 q 736 18 754 37 q 692 0 718 0 q 647 18 666 0 q 628 62 628 37 l 628 186 q 614 221 628 207 l 425 410 q 390 424 411 424 m 432 -347 l 545 -233 q 564 -189 564 -216 q 545 -144 564 -163 q 500 -126 528 -126 q 456 -144 474 -126 l 343 -258 q 323 -302 323 -278 q 343 -347 323 -328 q 387 -366 359 -366 q 432 -347 414 -366 z "},"":{"ha":888,"x_min":136,"x_max":754,"o":"m 390 424 l 325 424 q 281 405 299 424 q 262 359 262 386 l 262 62 q 243 18 262 37 q 199 0 224 0 q 155 18 173 0 q 136 62 136 37 l 136 909 q 155 954 136 935 q 199 972 173 972 q 243 954 224 972 q 262 909 262 935 l 262 612 q 281 568 262 587 q 325 549 299 549 l 390 549 q 425 562 412 549 l 614 751 q 628 786 628 766 l 628 909 q 647 954 628 935 q 692 972 666 972 q 736 954 718 972 q 754 909 754 935 l 754 739 q 736 694 754 713 l 571 530 q 553 486 553 510 q 571 441 553 462 l 736 278 q 754 233 754 260 l 754 62 q 736 18 754 37 q 692 0 718 0 q 647 18 666 0 q 628 62 628 37 l 628 186 q 614 221 628 207 l 425 410 q 390 424 411 424 z "},"":{"ha":888,"x_min":136,"x_max":754,"o":"m 546 1257 l 433 1143 q 389 1125 415 1125 q 344 1143 363 1125 q 325 1187 325 1162 q 345 1232 325 1213 l 457 1346 q 501 1364 475 1364 q 547 1345 528 1364 q 566 1301 566 1327 q 546 1257 566 1274 m 262 909 l 262 189 q 281 145 262 163 q 325 126 299 126 l 692 126 q 736 107 718 126 q 754 62 754 88 q 736 18 754 37 q 692 0 718 0 l 199 0 q 155 18 173 0 q 136 62 136 37 l 136 909 q 155 954 136 935 q 199 972 173 972 q 243 954 224 972 q 262 909 262 935 z "},"":{"ha":888,"x_min":136,"x_max":754,"o":"m 262 909 l 262 189 q 281 145 262 163 q 325 126 299 126 l 692 126 q 736 107 718 126 q 754 62 754 88 q 736 18 754 37 q 692 0 718 0 l 199 0 q 155 18 173 0 q 136 62 136 37 l 136 909 q 155 954 136 935 q 199 972 173 972 q 243 954 224 972 q 262 909 262 935 m 546 1257 l 433 1143 q 389 1125 415 1125 q 344 1143 363 1125 q 325 1187 325 1162 q 345 1232 325 1213 l 457 1346 q 501 1364 475 1364 q 547 1345 528 1364 q 566 1301 566 1327 q 546 1257 566 1274 z "},"":{"ha":888,"x_min":136,"x_max":754,"o":"m 262 909 l 262 189 q 281 145 262 163 q 325 126 299 126 l 692 126 q 736 107 718 126 q 754 62 754 88 q 736 18 754 37 q 692 0 718 0 l 199 0 q 155 18 173 0 q 136 62 136 37 l 136 909 q 155 954 136 935 q 199 972 173 972 q 243 954 224 972 q 262 909 262 935 m 545 -233 l 432 -347 q 387 -366 414 -366 q 343 -347 359 -366 q 323 -302 323 -328 q 343 -258 323 -278 l 456 -144 q 500 -126 474 -126 q 545 -144 528 -126 q 564 -189 564 -163 q 545 -233 564 -216 z "},"":{"ha":888,"x_min":136,"x_max":754,"o":"m 262 909 l 262 189 q 281 145 262 163 q 325 126 299 126 l 692 126 q 736 107 718 126 q 754 62 754 88 q 736 18 754 37 q 692 0 718 0 l 199 0 q 155 18 173 0 q 136 62 136 37 l 136 909 q 155 954 136 935 q 199 972 173 972 q 243 954 224 972 q 262 909 262 935 m 545 -233 l 432 -347 q 387 -366 414 -366 q 343 -347 359 -366 q 323 -302 323 -328 q 343 -258 323 -278 l 456 -144 q 500 -126 474 -126 q 545 -144 528 -126 q 564 -189 564 -163 q 545 -233 564 -216 z "},"":{"ha":888,"x_min":136,"x_max":754,"o":"m 354 1348 l 404 1297 q 444 1280 421 1280 q 484 1297 467 1280 l 533 1348 q 572 1364 549 1364 q 612 1348 596 1364 q 628 1308 628 1332 q 612 1270 628 1290 l 484 1140 q 444 1125 469 1125 q 404 1140 419 1125 l 277 1270 q 260 1308 260 1286 q 277 1347 260 1330 q 315 1364 294 1364 q 354 1348 338 1364 m 262 909 l 262 189 q 281 145 262 163 q 325 126 299 126 l 692 126 q 736 107 718 126 q 754 62 754 88 q 736 18 754 37 q 692 0 718 0 l 199 0 q 155 18 173 0 q 136 62 136 37 l 136 909 q 155 954 136 935 q 199 972 173 972 q 243 954 224 972 q 262 909 262 935 z "},"":{"ha":888,"x_min":136,"x_max":754,"o":"m 354 1348 l 404 1297 q 444 1280 421 1280 q 484 1297 467 1280 l 533 1348 q 572 1364 549 1364 q 612 1348 596 1364 q 628 1308 628 1332 q 612 1270 628 1290 l 484 1140 q 444 1125 469 1125 q 404 1140 419 1125 l 277 1270 q 260 1308 260 1286 q 277 1347 260 1330 q 315 1364 294 1364 q 354 1348 338 1364 m 262 909 l 262 189 q 281 145 262 163 q 325 126 299 126 l 692 126 q 736 107 718 126 q 754 62 754 88 q 736 18 754 37 q 692 0 718 0 l 199 0 q 155 18 173 0 q 136 62 136 37 l 136 909 q 155 954 136 935 q 199 972 173 972 q 243 954 224 972 q 262 909 262 935 z "},"":{"ha":888,"x_min":136,"x_max":754,"o":"m 262 909 l 262 189 q 281 145 262 163 q 325 126 299 126 l 692 126 q 736 107 718 126 q 754 62 754 88 q 736 18 754 37 q 692 0 718 0 l 199 0 q 155 18 173 0 q 136 62 136 37 l 136 909 q 155 954 136 935 q 199 972 173 972 q 243 954 224 972 q 262 909 262 935 m 547 396 l 492 396 q 448 414 466 396 q 429 458 429 433 l 429 514 q 448 558 429 540 q 492 576 466 576 l 547 576 q 591 558 573 576 q 610 514 610 540 l 610 458 q 591 414 610 433 q 547 396 573 396 z "},"":{"ha":888,"x_min":136,"x_max":754,"o":"m 262 909 l 262 189 q 281 145 262 163 q 325 126 299 126 l 692 126 q 736 107 718 126 q 754 62 754 88 q 736 18 754 37 q 692 0 718 0 l 199 0 q 155 18 173 0 q 136 62 136 37 l 136 909 q 155 954 136 935 q 199 972 173 972 q 243 954 224 972 q 262 909 262 935 m 547 396 l 492 396 q 448 414 466 396 q 429 458 429 433 l 429 514 q 448 558 429 540 q 492 576 466 576 l 547 576 q 591 558 573 576 q 610 514 610 540 l 610 458 q 591 414 610 433 q 547 396 573 396 z "},"":{"ha":888,"x_min":39,"x_max":754,"o":"m 136 62 l 136 257 q 125 271 136 271 q 118 269 119 271 q 103 268 114 268 q 58 287 77 268 q 39 332 39 306 q 57 375 39 357 l 121 439 q 136 475 136 454 l 136 909 q 155 954 136 935 q 199 972 173 972 q 243 954 224 972 q 262 909 262 935 l 262 602 q 268 590 262 590 q 278 596 272 590 l 367 685 q 410 704 386 704 q 454 684 435 704 q 473 639 473 665 q 456 596 473 614 l 278 418 q 262 382 262 402 l 262 189 q 281 145 262 163 q 325 126 299 126 l 692 126 q 736 107 718 126 q 754 62 754 88 q 736 18 754 37 q 692 0 718 0 l 199 0 q 155 18 173 0 q 136 62 136 37 z "},"":{"ha":888,"x_min":39,"x_max":754,"o":"m 136 62 l 136 257 q 125 271 136 271 q 118 269 119 271 q 103 268 114 268 q 58 287 77 268 q 39 332 39 306 q 57 375 39 357 l 121 439 q 136 475 136 454 l 136 909 q 155 954 136 935 q 199 972 173 972 q 243 954 224 972 q 262 909 262 935 l 262 602 q 268 590 262 590 q 278 596 272 590 l 367 685 q 410 704 386 704 q 454 684 435 704 q 473 639 473 665 q 456 596 473 614 l 278 418 q 262 382 262 402 l 262 189 q 281 145 262 163 q 325 126 299 126 l 692 126 q 736 107 718 126 q 754 62 754 88 q 736 18 754 37 q 692 0 718 0 l 199 0 q 155 18 173 0 q 136 62 136 37 z "},"":{"ha":888,"x_min":136,"x_max":754,"o":"m 546 1257 l 433 1143 q 389 1125 415 1125 q 344 1143 363 1125 q 325 1187 325 1162 q 345 1232 325 1213 l 457 1346 q 501 1364 475 1364 q 547 1345 528 1364 q 566 1301 566 1327 q 546 1257 566 1274 m 254 940 l 618 315 q 625 309 623 309 q 628 318 628 309 l 628 909 q 647 954 628 935 q 692 972 666 972 q 736 954 718 972 q 754 909 754 935 l 754 62 q 736 18 754 37 q 692 0 718 0 q 636 32 654 0 l 272 659 q 265 665 270 665 q 262 656 262 665 l 262 62 q 243 18 262 37 q 199 0 224 0 q 155 18 173 0 q 136 62 136 37 l 136 909 q 155 954 136 935 q 199 972 173 972 q 254 940 235 972 z "},"":{"ha":888,"x_min":136,"x_max":754,"o":"m 254 940 l 618 315 q 625 309 623 309 q 628 318 628 309 l 628 909 q 647 954 628 935 q 692 972 666 972 q 736 954 718 972 q 754 909 754 935 l 754 62 q 736 18 754 37 q 692 0 718 0 q 636 32 654 0 l 272 659 q 265 665 270 665 q 262 656 262 665 l 262 62 q 243 18 262 37 q 199 0 224 0 q 155 18 173 0 q 136 62 136 37 l 136 909 q 155 954 136 935 q 199 972 173 972 q 254 940 235 972 m 546 1257 l 433 1143 q 389 1125 415 1125 q 344 1143 363 1125 q 325 1187 325 1162 q 345 1232 325 1213 l 457 1346 q 501 1364 475 1364 q 547 1345 528 1364 q 566 1301 566 1327 q 546 1257 566 1274 z "},"":{"ha":888,"x_min":136,"x_max":754,"o":"m 254 940 l 618 315 q 625 309 623 309 q 628 318 628 309 l 628 909 q 647 954 628 935 q 692 972 666 972 q 736 954 718 972 q 754 909 754 935 l 754 62 q 736 18 754 37 q 692 0 718 0 q 636 32 654 0 l 272 659 q 265 665 270 665 q 262 656 262 665 l 262 62 q 243 18 262 37 q 199 0 224 0 q 155 18 173 0 q 136 62 136 37 l 136 909 q 155 954 136 935 q 199 972 173 972 q 254 940 235 972 m 545 -233 l 432 -347 q 387 -366 414 -366 q 343 -347 359 -366 q 323 -302 323 -328 q 343 -258 323 -278 l 456 -144 q 500 -126 474 -126 q 545 -144 528 -126 q 564 -189 564 -163 q 545 -233 564 -216 z "},"":{"ha":888,"x_min":136,"x_max":754,"o":"m 254 940 l 618 315 q 625 309 623 309 q 628 318 628 309 l 628 909 q 647 954 628 935 q 692 972 666 972 q 736 954 718 972 q 754 909 754 935 l 754 62 q 736 18 754 37 q 692 0 718 0 q 636 32 654 0 l 272 659 q 265 665 270 665 q 262 656 262 665 l 262 62 q 243 18 262 37 q 199 0 224 0 q 155 18 173 0 q 136 62 136 37 l 136 909 q 155 954 136 935 q 199 972 173 972 q 254 940 235 972 m 545 -233 l 432 -347 q 387 -366 414 -366 q 343 -347 359 -366 q 323 -302 323 -328 q 343 -258 323 -278 l 456 -144 q 500 -126 474 -126 q 545 -144 528 -126 q 564 -189 564 -163 q 545 -233 564 -216 z "},"":{"ha":888,"x_min":136,"x_max":754,"o":"m 354 1348 l 404 1297 q 444 1280 421 1280 q 484 1297 467 1280 l 533 1348 q 572 1364 549 1364 q 612 1348 596 1364 q 628 1308 628 1332 q 612 1270 628 1290 l 484 1140 q 444 1125 469 1125 q 404 1140 419 1125 l 277 1270 q 260 1308 260 1286 q 277 1347 260 1330 q 315 1364 294 1364 q 354 1348 338 1364 m 254 940 l 618 315 q 625 309 623 309 q 628 318 628 309 l 628 909 q 647 954 628 935 q 692 972 666 972 q 736 954 718 972 q 754 909 754 935 l 754 62 q 736 18 754 37 q 692 0 718 0 q 636 32 654 0 l 272 659 q 265 665 270 665 q 262 656 262 665 l 262 62 q 243 18 262 37 q 199 0 224 0 q 155 18 173 0 q 136 62 136 37 l 136 909 q 155 954 136 935 q 199 972 173 972 q 254 940 235 972 z "},"":{"ha":888,"x_min":136,"x_max":754,"o":"m 254 940 l 618 315 q 625 309 623 309 q 628 318 628 309 l 628 909 q 647 954 628 935 q 692 972 666 972 q 736 954 718 972 q 754 909 754 935 l 754 62 q 736 18 754 37 q 692 0 718 0 q 636 32 654 0 l 272 659 q 265 665 270 665 q 262 656 262 665 l 262 62 q 243 18 262 37 q 199 0 224 0 q 155 18 173 0 q 136 62 136 37 l 136 909 q 155 954 136 935 q 199 972 173 972 q 254 940 235 972 m 354 1348 l 404 1297 q 444 1280 421 1280 q 484 1297 467 1280 l 533 1348 q 572 1364 549 1364 q 612 1348 596 1364 q 628 1308 628 1332 q 612 1270 628 1290 l 484 1140 q 444 1125 469 1125 q 404 1140 419 1125 l 277 1270 q 260 1308 260 1286 q 277 1347 260 1330 q 315 1364 294 1364 q 354 1348 338 1364 z "},"":{"ha":888,"x_min":136,"x_max":754,"o":"m 261 921 q 268 909 263 909 q 277 914 272 909 l 315 953 q 361 972 335 972 l 575 972 q 619 953 600 972 l 736 836 q 754 791 754 818 l 754 -129 q 736 -175 754 -157 l 619 -290 q 575 -310 602 -310 l 444 -310 q 400 -292 418 -310 q 382 -248 382 -273 q 400 -202 382 -221 q 444 -183 418 -183 l 528 -183 q 562 -170 549 -183 l 614 -118 q 628 -83 628 -104 l 628 745 q 614 779 628 765 l 562 832 q 528 846 549 846 l 407 846 q 372 832 386 846 l 277 734 q 262 700 262 720 l 262 62 q 243 18 262 37 q 199 0 224 0 q 155 18 173 0 q 136 62 136 37 l 136 908 q 155 954 136 935 q 199 972 173 972 q 240 958 222 972 q 261 921 257 943 z "},"":{"ha":888,"x_min":136,"x_max":754,"o":"m 261 921 q 268 909 263 909 q 277 914 272 909 l 315 953 q 361 972 335 972 l 575 972 q 619 953 600 972 l 736 836 q 754 791 754 818 l 754 -129 q 736 -175 754 -157 l 619 -290 q 575 -310 602 -310 l 444 -310 q 400 -292 418 -310 q 382 -248 382 -273 q 400 -202 382 -221 q 444 -183 418 -183 l 528 -183 q 562 -170 549 -183 l 614 -118 q 628 -83 628 -104 l 628 745 q 614 779 628 765 l 562 832 q 528 846 549 846 l 407 846 q 372 832 386 846 l 277 734 q 262 700 262 720 l 262 62 q 243 18 262 37 q 199 0 224 0 q 155 18 173 0 q 136 62 136 37 l 136 908 q 155 954 136 935 q 199 972 173 972 q 240 958 222 972 q 261 921 257 943 z "},"":{"ha":888,"x_min":136,"x_max":754,"o":"m 576 1139 l 314 1139 q 270 1157 288 1139 q 252 1202 252 1176 q 270 1246 252 1227 q 314 1265 288 1265 l 576 1265 q 621 1246 602 1265 q 639 1202 639 1227 q 621 1157 639 1176 q 576 1139 602 1139 m 619 953 l 736 838 q 754 793 754 819 l 754 179 q 736 135 754 153 l 619 20 q 574 0 602 0 l 315 0 q 271 20 288 0 l 154 135 q 136 179 136 153 l 136 793 q 154 838 136 820 l 271 953 q 315 972 288 972 l 574 972 q 619 953 602 972 m 562 140 l 614 192 q 628 227 628 206 l 628 746 q 614 781 628 766 l 562 832 q 528 846 549 846 l 363 846 q 328 832 341 846 l 277 781 q 262 746 262 766 l 262 227 q 277 192 262 206 l 328 140 q 363 126 342 126 l 528 126 q 562 140 548 126 z "},"":{"ha":888,"x_min":136,"x_max":754,"o":"m 619 953 l 736 838 q 754 793 754 819 l 754 179 q 736 135 754 153 l 619 20 q 574 0 602 0 l 315 0 q 271 20 288 0 l 154 135 q 136 179 136 153 l 136 793 q 154 838 136 820 l 271 953 q 315 972 288 972 l 574 972 q 619 953 602 972 m 562 140 l 614 192 q 628 227 628 206 l 628 746 q 614 781 628 766 l 562 832 q 528 846 549 846 l 363 846 q 328 832 341 846 l 277 781 q 262 746 262 766 l 262 227 q 277 192 262 206 l 328 140 q 363 126 342 126 l 528 126 q 562 140 548 126 m 576 1139 l 314 1139 q 270 1157 288 1139 q 252 1202 252 1176 q 270 1246 252 1227 q 314 1265 288 1265 l 576 1265 q 621 1246 602 1265 q 639 1202 639 1227 q 621 1157 639 1176 q 576 1139 602 1139 z "},"":{"ha":888,"x_min":136,"x_max":754,"o":"m 370 1312 l 370 1299 q 383 1264 370 1278 l 406 1242 q 440 1227 420 1227 l 447 1227 q 482 1242 468 1227 l 504 1264 q 518 1299 518 1278 l 518 1312 q 533 1349 518 1333 q 570 1364 548 1364 q 606 1349 591 1364 q 621 1312 621 1333 l 621 1254 q 608 1222 621 1234 l 525 1137 q 492 1125 513 1125 l 396 1125 q 363 1137 375 1125 l 279 1222 q 267 1254 267 1235 l 267 1312 q 281 1349 267 1333 q 318 1364 296 1364 q 355 1349 340 1364 q 370 1312 370 1333 m 619 953 l 736 838 q 754 793 754 819 l 754 179 q 736 135 754 153 l 619 20 q 574 0 602 0 l 315 0 q 271 20 288 0 l 154 135 q 136 179 136 153 l 136 793 q 154 838 136 820 l 271 953 q 315 972 288 972 l 574 972 q 619 953 602 972 m 562 140 l 614 192 q 628 227 628 206 l 628 746 q 614 781 628 766 l 562 832 q 528 846 549 846 l 363 846 q 328 832 341 846 l 277 781 q 262 746 262 766 l 262 227 q 277 192 262 206 l 328 140 q 363 126 342 126 l 528 126 q 562 140 548 126 z "},"":{"ha":888,"x_min":136,"x_max":754,"o":"m 619 953 l 736 838 q 754 793 754 819 l 754 179 q 736 135 754 153 l 619 20 q 574 0 602 0 l 315 0 q 271 20 288 0 l 154 135 q 136 179 136 153 l 136 793 q 154 838 136 820 l 271 953 q 315 972 288 972 l 574 972 q 619 953 602 972 m 562 140 l 614 192 q 628 227 628 206 l 628 746 q 614 781 628 766 l 562 832 q 528 846 549 846 l 363 846 q 328 832 341 846 l 277 781 q 262 746 262 766 l 262 227 q 277 192 262 206 l 328 140 q 363 126 342 126 l 528 126 q 562 140 548 126 m 370 1312 l 370 1299 q 383 1264 370 1278 l 406 1242 q 440 1227 420 1227 l 447 1227 q 482 1242 468 1227 l 504 1264 q 518 1299 518 1278 l 518 1312 q 533 1349 518 1333 q 570 1364 548 1364 q 606 1349 591 1364 q 621 1312 621 1333 l 621 1254 q 608 1222 621 1234 l 525 1137 q 492 1125 513 1125 l 396 1125 q 363 1137 375 1125 l 279 1222 q 267 1254 267 1235 l 267 1312 q 281 1349 267 1333 q 318 1364 296 1364 q 355 1349 340 1364 q 370 1312 370 1333 z "},"":{"ha":888,"x_min":136,"x_max":754,"o":"m 427 1257 l 313 1143 q 268 1125 294 1125 q 224 1143 242 1125 q 205 1187 205 1162 q 224 1232 205 1214 l 338 1346 q 382 1364 355 1364 q 426 1345 408 1364 q 444 1301 444 1327 q 427 1257 444 1274 m 665 1257 l 553 1143 q 509 1125 534 1125 q 463 1143 482 1125 q 444 1187 444 1162 q 464 1232 444 1213 l 576 1346 q 621 1364 594 1364 q 666 1345 647 1364 q 685 1301 685 1327 q 665 1257 685 1274 m 619 953 l 736 838 q 754 793 754 819 l 754 179 q 736 135 754 153 l 619 20 q 574 0 602 0 l 315 0 q 271 20 288 0 l 154 135 q 136 179 136 153 l 136 793 q 154 838 136 820 l 271 953 q 315 972 288 972 l 574 972 q 619 953 602 972 m 562 140 l 614 192 q 628 227 628 206 l 628 746 q 614 781 628 766 l 562 832 q 528 846 549 846 l 363 846 q 328 832 341 846 l 277 781 q 262 746 262 766 l 262 227 q 277 192 262 206 l 328 140 q 363 126 342 126 l 528 126 q 562 140 548 126 z "},"":{"ha":888,"x_min":136,"x_max":754,"o":"m 619 953 l 736 838 q 754 793 754 819 l 754 179 q 736 135 754 153 l 619 20 q 574 0 602 0 l 315 0 q 271 20 288 0 l 154 135 q 136 179 136 153 l 136 793 q 154 838 136 820 l 271 953 q 315 972 288 972 l 574 972 q 619 953 602 972 m 562 140 l 614 192 q 628 227 628 206 l 628 746 q 614 781 628 766 l 562 832 q 528 846 549 846 l 363 846 q 328 832 341 846 l 277 781 q 262 746 262 766 l 262 227 q 277 192 262 206 l 328 140 q 363 126 342 126 l 528 126 q 562 140 548 126 m 427 1257 l 313 1143 q 268 1125 294 1125 q 224 1143 242 1125 q 205 1187 205 1162 q 224 1232 205 1214 l 338 1346 q 382 1364 355 1364 q 426 1345 408 1364 q 444 1301 444 1327 q 427 1257 444 1274 m 665 1257 l 553 1143 q 509 1125 534 1125 q 463 1143 482 1125 q 444 1187 444 1162 q 464 1232 444 1213 l 576 1346 q 621 1364 594 1364 q 666 1345 647 1364 q 685 1301 685 1327 q 665 1257 685 1274 z "},"":{"ha":888,"x_min":109,"x_max":782,"o":"m 382 147 l 382 825 q 361 846 382 846 l 335 846 q 298 831 313 846 l 250 782 q 235 746 235 766 l 235 227 q 250 191 235 206 l 298 142 q 335 126 314 126 l 361 126 q 382 147 382 126 m 720 0 l 288 0 q 243 20 260 0 l 126 135 q 109 180 109 153 l 109 793 q 126 838 109 820 l 243 953 q 288 972 260 972 l 720 972 q 764 954 745 972 q 782 909 782 935 q 764 865 782 884 q 720 846 745 846 l 571 846 q 527 827 545 846 q 509 783 509 809 l 509 612 q 527 568 509 587 q 571 549 545 549 l 692 549 q 736 530 718 549 q 754 486 754 512 q 736 441 754 460 q 692 422 718 422 l 571 422 q 527 404 545 422 q 509 358 509 385 l 509 189 q 527 145 509 163 q 571 126 545 126 l 720 126 q 764 107 745 126 q 782 62 782 88 q 764 18 782 37 q 720 0 745 0 z "},"":{"ha":888,"x_min":109,"x_max":782,"o":"m 382 147 l 382 825 q 361 846 382 846 l 335 846 q 298 831 313 846 l 250 782 q 235 746 235 766 l 235 227 q 250 191 235 206 l 298 142 q 335 126 314 126 l 361 126 q 382 147 382 126 m 720 0 l 288 0 q 243 20 260 0 l 126 135 q 109 180 109 153 l 109 793 q 126 838 109 820 l 243 953 q 288 972 260 972 l 720 972 q 764 954 745 972 q 782 909 782 935 q 764 865 782 884 q 720 846 745 846 l 571 846 q 527 827 545 846 q 509 783 509 809 l 509 612 q 527 568 509 587 q 571 549 545 549 l 692 549 q 736 530 718 549 q 754 486 754 512 q 736 441 754 460 q 692 422 718 422 l 571 422 q 527 404 545 422 q 509 358 509 385 l 509 189 q 527 145 509 163 q 571 126 545 126 l 720 126 q 764 107 745 126 q 782 62 782 88 q 764 18 782 37 q 720 0 745 0 z "},"":{"ha":888,"x_min":136,"x_max":754,"o":"m 546 1257 l 433 1143 q 389 1125 415 1125 q 344 1143 363 1125 q 325 1187 325 1162 q 345 1232 325 1213 l 457 1346 q 501 1364 475 1364 q 547 1345 528 1364 q 566 1301 566 1327 q 546 1257 566 1274 m 498 392 l 325 392 q 281 373 299 392 q 262 329 262 355 l 262 62 q 243 18 262 37 q 199 0 224 0 q 155 18 173 0 q 136 62 136 37 l 136 909 q 155 954 136 935 q 199 972 173 972 l 546 972 q 591 953 572 972 l 736 808 q 754 764 754 790 l 754 600 q 734 555 754 575 l 679 500 q 661 456 661 482 q 679 410 661 429 l 736 354 q 754 310 754 336 l 754 62 q 736 18 754 37 q 692 0 718 0 q 647 18 666 0 q 628 62 628 37 l 628 262 q 614 297 628 283 l 533 378 q 498 392 519 392 m 533 532 l 614 612 q 628 647 628 627 l 628 717 q 614 751 628 737 l 533 832 q 498 846 519 846 l 325 846 q 281 827 299 846 q 262 783 262 809 l 262 581 q 281 536 262 555 q 325 518 299 518 l 498 518 q 533 532 519 518 z "},"":{"ha":888,"x_min":136,"x_max":754,"o":"m 498 392 l 325 392 q 281 373 299 392 q 262 329 262 355 l 262 62 q 243 18 262 37 q 199 0 224 0 q 155 18 173 0 q 136 62 136 37 l 136 909 q 155 954 136 935 q 199 972 173 972 l 546 972 q 591 953 572 972 l 736 808 q 754 764 754 790 l 754 600 q 734 555 754 575 l 679 500 q 661 456 661 482 q 679 410 661 429 l 736 354 q 754 310 754 336 l 754 62 q 736 18 754 37 q 692 0 718 0 q 647 18 666 0 q 628 62 628 37 l 628 262 q 614 297 628 283 l 533 378 q 498 392 519 392 m 533 532 l 614 612 q 628 647 628 627 l 628 717 q 614 751 628 737 l 533 832 q 498 846 519 846 l 325 846 q 281 827 299 846 q 262 783 262 809 l 262 581 q 281 536 262 555 q 325 518 299 518 l 498 518 q 533 532 519 518 m 546 1257 l 433 1143 q 389 1125 415 1125 q 344 1143 363 1125 q 325 1187 325 1162 q 345 1232 325 1213 l 457 1346 q 501 1364 475 1364 q 547 1345 528 1364 q 566 1301 566 1327 q 546 1257 566 1274 z "},"":{"ha":888,"x_min":136,"x_max":754,"o":"m 498 392 l 325 392 q 281 373 299 392 q 262 329 262 355 l 262 62 q 243 18 262 37 q 199 0 224 0 q 155 18 173 0 q 136 62 136 37 l 136 909 q 155 954 136 935 q 199 972 173 972 l 546 972 q 591 953 572 972 l 736 808 q 754 764 754 790 l 754 600 q 734 555 754 575 l 679 500 q 661 456 661 482 q 679 410 661 429 l 736 354 q 754 310 754 336 l 754 62 q 736 18 754 37 q 692 0 718 0 q 647 18 666 0 q 628 62 628 37 l 628 262 q 614 297 628 283 l 533 378 q 498 392 519 392 m 533 532 l 614 612 q 628 647 628 627 l 628 717 q 614 751 628 737 l 533 832 q 498 846 519 846 l 325 846 q 281 827 299 846 q 262 783 262 809 l 262 581 q 281 536 262 555 q 325 518 299 518 l 498 518 q 533 532 519 518 m 432 -347 l 545 -233 q 564 -189 564 -216 q 545 -144 564 -163 q 500 -126 528 -126 q 456 -144 474 -126 l 343 -258 q 323 -302 323 -278 q 343 -347 323 -328 q 387 -366 359 -366 q 432 -347 414 -366 z "},"":{"ha":888,"x_min":136,"x_max":754,"o":"m 498 392 l 325 392 q 281 373 299 392 q 262 329 262 355 l 262 62 q 243 18 262 37 q 199 0 224 0 q 155 18 173 0 q 136 62 136 37 l 136 909 q 155 954 136 935 q 199 972 173 972 l 546 972 q 591 953 572 972 l 736 808 q 754 764 754 790 l 754 600 q 734 555 754 575 l 679 500 q 661 456 661 482 q 679 410 661 429 l 736 354 q 754 310 754 336 l 754 62 q 736 18 754 37 q 692 0 718 0 q 647 18 666 0 q 628 62 628 37 l 628 262 q 614 297 628 283 l 533 378 q 498 392 519 392 m 533 532 l 614 612 q 628 647 628 627 l 628 717 q 614 751 628 737 l 533 832 q 498 846 519 846 l 325 846 q 281 827 299 846 q 262 783 262 809 l 262 581 q 281 536 262 555 q 325 518 299 518 l 498 518 q 533 532 519 518 m 432 -347 l 545 -233 q 564 -189 564 -216 q 545 -144 564 -163 q 500 -126 528 -126 q 456 -144 474 -126 l 343 -258 q 323 -302 323 -278 q 343 -347 323 -328 q 387 -366 359 -366 q 432 -347 414 -366 z "},"":{"ha":888,"x_min":136,"x_max":754,"o":"m 354 1348 l 404 1297 q 444 1280 421 1280 q 484 1297 467 1280 l 533 1348 q 572 1364 549 1364 q 612 1348 596 1364 q 628 1308 628 1332 q 612 1270 628 1290 l 484 1140 q 444 1125 469 1125 q 404 1140 419 1125 l 277 1270 q 260 1308 260 1286 q 277 1347 260 1330 q 315 1364 294 1364 q 354 1348 338 1364 m 498 392 l 325 392 q 281 373 299 392 q 262 329 262 355 l 262 62 q 243 18 262 37 q 199 0 224 0 q 155 18 173 0 q 136 62 136 37 l 136 909 q 155 954 136 935 q 199 972 173 972 l 546 972 q 591 953 572 972 l 736 808 q 754 764 754 790 l 754 600 q 734 555 754 575 l 679 500 q 661 456 661 482 q 679 410 661 429 l 736 354 q 754 310 754 336 l 754 62 q 736 18 754 37 q 692 0 718 0 q 647 18 666 0 q 628 62 628 37 l 628 262 q 614 297 628 283 l 533 378 q 498 392 519 392 m 533 532 l 614 612 q 628 647 628 627 l 628 717 q 614 751 628 737 l 533 832 q 498 846 519 846 l 325 846 q 281 827 299 846 q 262 783 262 809 l 262 581 q 281 536 262 555 q 325 518 299 518 l 498 518 q 533 532 519 518 z "},"":{"ha":888,"x_min":136,"x_max":754,"o":"m 498 392 l 325 392 q 281 373 299 392 q 262 329 262 355 l 262 62 q 243 18 262 37 q 199 0 224 0 q 155 18 173 0 q 136 62 136 37 l 136 909 q 155 954 136 935 q 199 972 173 972 l 546 972 q 591 953 572 972 l 736 808 q 754 764 754 790 l 754 600 q 734 555 754 575 l 679 500 q 661 456 661 482 q 679 410 661 429 l 736 354 q 754 310 754 336 l 754 62 q 736 18 754 37 q 692 0 718 0 q 647 18 666 0 q 628 62 628 37 l 628 262 q 614 297 628 283 l 533 378 q 498 392 519 392 m 533 532 l 614 612 q 628 647 628 627 l 628 717 q 614 751 628 737 l 533 832 q 498 846 519 846 l 325 846 q 281 827 299 846 q 262 783 262 809 l 262 581 q 281 536 262 555 q 325 518 299 518 l 498 518 q 533 532 519 518 m 404 1297 l 354 1348 q 315 1364 338 1364 q 277 1347 294 1364 q 260 1308 260 1330 q 277 1270 260 1286 l 404 1140 q 444 1125 419 1125 q 484 1140 469 1125 l 612 1270 q 628 1308 628 1290 q 612 1348 628 1332 q 572 1364 596 1364 q 533 1348 549 1364 l 484 1297 q 444 1280 467 1280 q 404 1297 421 1280 z "},"":{"ha":888,"x_min":136,"x_max":754,"o":"m 546 1257 l 433 1143 q 389 1125 415 1125 q 344 1143 363 1125 q 325 1187 325 1162 q 345 1232 325 1213 l 457 1346 q 501 1364 475 1364 q 547 1345 528 1364 q 566 1301 566 1327 q 546 1257 566 1274 m 628 729 l 628 746 q 614 781 628 766 l 562 832 q 528 846 549 846 l 363 846 q 328 832 341 846 l 277 781 q 262 746 262 766 l 262 650 q 277 615 262 629 l 328 562 q 363 549 341 549 l 575 549 q 619 530 601 549 l 736 412 q 754 368 754 394 l 754 179 q 736 135 754 153 l 619 20 q 575 0 602 0 l 315 0 q 271 20 288 0 l 154 135 q 136 179 136 153 l 136 243 q 155 287 136 269 q 199 304 173 304 q 244 287 225 304 q 262 243 262 269 l 262 227 q 277 192 262 206 l 328 140 q 363 126 342 126 l 528 126 q 562 140 548 126 l 614 192 q 628 227 628 206 l 628 321 q 614 355 628 341 l 562 408 q 528 422 548 422 l 315 422 q 271 440 288 422 l 154 558 q 136 603 136 576 l 136 793 q 154 838 136 820 l 271 953 q 315 972 288 972 l 575 972 q 619 953 602 972 l 736 838 q 754 793 754 819 l 754 729 q 736 685 754 703 q 692 667 718 667 q 647 685 666 667 q 628 729 628 703 z "},"":{"ha":888,"x_min":136,"x_max":754,"o":"m 628 729 l 628 746 q 614 781 628 766 l 562 832 q 528 846 549 846 l 363 846 q 328 832 341 846 l 277 781 q 262 746 262 766 l 262 650 q 277 615 262 629 l 328 562 q 363 549 341 549 l 575 549 q 619 530 601 549 l 736 412 q 754 368 754 394 l 754 179 q 736 135 754 153 l 619 20 q 575 0 602 0 l 315 0 q 271 20 288 0 l 154 135 q 136 179 136 153 l 136 243 q 155 287 136 269 q 199 304 173 304 q 244 287 225 304 q 262 243 262 269 l 262 227 q 277 192 262 206 l 328 140 q 363 126 342 126 l 528 126 q 562 140 548 126 l 614 192 q 628 227 628 206 l 628 321 q 614 355 628 341 l 562 408 q 528 422 548 422 l 315 422 q 271 440 288 422 l 154 558 q 136 603 136 576 l 136 793 q 154 838 136 820 l 271 953 q 315 972 288 972 l 575 972 q 619 953 602 972 l 736 838 q 754 793 754 819 l 754 729 q 736 685 754 703 q 692 667 718 667 q 647 685 666 667 q 628 729 628 703 m 546 1257 l 433 1143 q 389 1125 415 1125 q 344 1143 363 1125 q 325 1187 325 1162 q 345 1232 325 1213 l 457 1346 q 501 1364 475 1364 q 547 1345 528 1364 q 566 1301 566 1327 q 546 1257 566 1274 z "},"":{"ha":888,"x_min":136,"x_max":754,"o":"m 406 1190 l 354 1140 q 315 1125 341 1125 q 276 1140 292 1125 q 260 1179 260 1156 q 277 1219 260 1202 l 406 1348 q 444 1364 420 1364 q 484 1348 467 1364 l 612 1219 q 628 1179 628 1204 q 613 1140 628 1156 q 574 1125 597 1125 q 533 1140 548 1125 l 484 1190 q 444 1207 467 1207 q 406 1190 420 1207 m 628 729 l 628 746 q 614 781 628 766 l 562 832 q 528 846 549 846 l 363 846 q 328 832 341 846 l 277 781 q 262 746 262 766 l 262 650 q 277 615 262 629 l 328 562 q 363 549 341 549 l 575 549 q 619 530 601 549 l 736 412 q 754 368 754 394 l 754 179 q 736 135 754 153 l 619 20 q 575 0 602 0 l 315 0 q 271 20 288 0 l 154 135 q 136 179 136 153 l 136 243 q 155 287 136 269 q 199 304 173 304 q 244 287 225 304 q 262 243 262 269 l 262 227 q 277 192 262 206 l 328 140 q 363 126 342 126 l 528 126 q 562 140 548 126 l 614 192 q 628 227 628 206 l 628 321 q 614 355 628 341 l 562 408 q 528 422 548 422 l 315 422 q 271 440 288 422 l 154 558 q 136 603 136 576 l 136 793 q 154 838 136 820 l 271 953 q 315 972 288 972 l 575 972 q 619 953 602 972 l 736 838 q 754 793 754 819 l 754 729 q 736 685 754 703 q 692 667 718 667 q 647 685 666 667 q 628 729 628 703 z "},"":{"ha":888,"x_min":136,"x_max":754,"o":"m 628 729 l 628 746 q 614 781 628 766 l 562 832 q 528 846 549 846 l 363 846 q 328 832 341 846 l 277 781 q 262 746 262 766 l 262 650 q 277 615 262 629 l 328 562 q 363 549 341 549 l 575 549 q 619 530 601 549 l 736 412 q 754 368 754 394 l 754 179 q 736 135 754 153 l 619 20 q 575 0 602 0 l 315 0 q 271 20 288 0 l 154 135 q 136 179 136 153 l 136 243 q 155 287 136 269 q 199 304 173 304 q 244 287 225 304 q 262 243 262 269 l 262 227 q 277 192 262 206 l 328 140 q 363 126 342 126 l 528 126 q 562 140 548 126 l 614 192 q 628 227 628 206 l 628 321 q 614 355 628 341 l 562 408 q 528 422 548 422 l 315 422 q 271 440 288 422 l 154 558 q 136 603 136 576 l 136 793 q 154 838 136 820 l 271 953 q 315 972 288 972 l 575 972 q 619 953 602 972 l 736 838 q 754 793 754 819 l 754 729 q 736 685 754 703 q 692 667 718 667 q 647 685 666 667 q 628 729 628 703 m 406 1190 l 354 1140 q 315 1125 341 1125 q 276 1140 292 1125 q 260 1179 260 1156 q 277 1219 260 1202 l 406 1348 q 444 1364 420 1364 q 484 1348 467 1364 l 612 1219 q 628 1179 628 1204 q 613 1140 628 1156 q 574 1125 597 1125 q 533 1140 548 1125 l 484 1190 q 444 1207 467 1207 q 406 1190 420 1207 z "},"":{"ha":888,"x_min":136,"x_max":754,"o":"m 628 729 l 628 746 q 614 781 628 766 l 562 832 q 528 846 549 846 l 363 846 q 328 832 341 846 l 277 781 q 262 746 262 766 l 262 650 q 277 615 262 629 l 328 562 q 363 549 341 549 l 575 549 q 619 530 601 549 l 736 412 q 754 368 754 394 l 754 179 q 736 135 754 153 l 619 20 q 575 0 602 0 l 315 0 q 271 20 288 0 l 154 135 q 136 179 136 153 l 136 243 q 155 287 136 269 q 199 304 173 304 q 244 287 225 304 q 262 243 262 269 l 262 227 q 277 192 262 206 l 328 140 q 363 126 342 126 l 528 126 q 562 140 548 126 l 614 192 q 628 227 628 206 l 628 321 q 614 355 628 341 l 562 408 q 528 422 548 422 l 315 422 q 271 440 288 422 l 154 558 q 136 603 136 576 l 136 793 q 154 838 136 820 l 271 953 q 315 972 288 972 l 575 972 q 619 953 602 972 l 736 838 q 754 793 754 819 l 754 729 q 736 685 754 703 q 692 667 718 667 q 647 685 666 667 q 628 729 628 703 m 400 -60 l 400 56 q 413 87 400 75 q 446 100 426 100 q 478 87 465 100 q 490 56 490 75 l 490 -22 q 505 -58 490 -43 l 589 -140 q 600 -168 600 -157 l 600 -253 q 589 -281 600 -269 l 515 -353 q 488 -366 505 -366 l 403 -366 q 375 -353 386 -366 l 338 -315 q 323 -283 323 -301 q 337 -251 323 -264 q 370 -239 350 -239 q 401 -252 389 -239 l 410 -260 q 446 -275 425 -275 q 482 -260 467 -275 l 494 -248 q 510 -211 510 -232 q 494 -175 510 -191 l 415 -96 q 400 -60 400 -81 z "},"":{"ha":888,"x_min":136,"x_max":754,"o":"m 628 729 l 628 746 q 614 781 628 766 l 562 832 q 528 846 549 846 l 363 846 q 328 832 341 846 l 277 781 q 262 746 262 766 l 262 650 q 277 615 262 629 l 328 562 q 363 549 341 549 l 575 549 q 619 530 601 549 l 736 412 q 754 368 754 394 l 754 179 q 736 135 754 153 l 619 20 q 575 0 602 0 l 315 0 q 271 20 288 0 l 154 135 q 136 179 136 153 l 136 243 q 155 287 136 269 q 199 304 173 304 q 244 287 225 304 q 262 243 262 269 l 262 227 q 277 192 262 206 l 328 140 q 363 126 342 126 l 528 126 q 562 140 548 126 l 614 192 q 628 227 628 206 l 628 321 q 614 355 628 341 l 562 408 q 528 422 548 422 l 315 422 q 271 440 288 422 l 154 558 q 136 603 136 576 l 136 793 q 154 838 136 820 l 271 953 q 315 972 288 972 l 575 972 q 619 953 602 972 l 736 838 q 754 793 754 819 l 754 729 q 736 685 754 703 q 692 667 718 667 q 647 685 666 667 q 628 729 628 703 m 400 -60 l 400 56 q 413 87 400 75 q 446 100 426 100 q 478 87 465 100 q 490 56 490 75 l 490 -22 q 505 -58 490 -43 l 589 -140 q 600 -168 600 -157 l 600 -253 q 589 -281 600 -269 l 515 -353 q 488 -366 505 -366 l 403 -366 q 375 -353 386 -366 l 338 -315 q 323 -283 323 -301 q 337 -251 323 -264 q 370 -239 350 -239 q 401 -252 389 -239 l 410 -260 q 446 -275 425 -275 q 482 -260 467 -275 l 494 -248 q 510 -211 510 -232 q 494 -175 510 -191 l 415 -96 q 400 -60 400 -81 z "}}}
